<?xml version="1.0" encoding="utf-8"?>
<!-- Generator: Adobe Illustrator 24.0.2, SVG Export Plug-In . SVG Version: 6.00 Build 0)  -->
<svg version="1.1" id="Capa_1" xmlns="http://www.w3.org/2000/svg" xmlns:xlink="http://www.w3.org/1999/xlink" x="0px" y="0px"
	 viewBox="0 0 216 216" style="enable-background:new 0 0 216 216;" xml:space="preserve">
<style type="text/css">
	.st0{fill:url(#SVGID_1_);}
	.st1{opacity:0.69;fill:none;stroke:#4D4D4D;stroke-width:3;stroke-miterlimit:10;}
	.st2{opacity:0.69;fill:none;stroke:#4D4D4D;stroke-width:3;stroke-linecap:round;stroke-linejoin:round;stroke-miterlimit:10;}
	.st3{opacity:0.6;fill:none;stroke:#4D4D4D;stroke-width:3;stroke-linecap:round;stroke-linejoin:round;stroke-miterlimit:10;}
	.st4{fill:none;}
	.st5{fill:url(#SVGID_2_);}
	.st6{opacity:0.05;}
	.st7{clip-path:url(#SVGID_4_);}
	.st8{fill:#5F27A4;}
	.st9{fill:url(#SVGID_5_);}
	.st10{clip-path:url(#SVGID_7_);}
	.st11{fill:url(#SVGID_8_);}
	.st12{fill:#3C3C3B;}
	.st13{fill:url(#SVGID_9_);}
	.st14{fill:url(#SVGID_10_);}
	.st15{fill:url(#SVGID_11_);}
	.st16{fill:url(#SVGID_12_);}
	.st17{fill:url(#SVGID_13_);}
	.st18{fill:url(#SVGID_14_);}
	.st19{fill:url(#SVGID_15_);}
	.st20{fill:url(#SVGID_16_);}
	.st21{fill:url(#SVGID_17_);}
	.st22{fill:url(#SVGID_18_);}
	.st23{fill:url(#SVGID_19_);}
	.st24{fill:url(#SVGID_20_);}
	.st25{fill:url(#SVGID_21_);}
	.st26{fill:url(#SVGID_22_);}
	.st27{fill:url(#SVGID_23_);}
	.st28{fill:url(#SVGID_24_);}
	.st29{fill:url(#SVGID_25_);}
	.st30{fill:url(#SVGID_26_);}
	.st31{fill:url(#SVGID_27_);}
	.st32{fill:url(#SVGID_28_);}
	.st33{fill:url(#SVGID_29_);}
	.st34{fill:url(#SVGID_30_);}
	.st35{fill:url(#SVGID_31_);}
	.st36{fill:url(#SVGID_32_);}
	.st37{fill:url(#SVGID_33_);}
	.st38{fill:url(#SVGID_34_);}
	.st39{fill:url(#SVGID_35_);}
	.st40{fill:url(#SVGID_36_);}
	.st41{fill:url(#SVGID_37_);}
	.st42{fill:url(#SVGID_38_);}
	.st43{fill:url(#SVGID_39_);}
	.st44{fill:url(#SVGID_40_);}
	.st45{fill:url(#SVGID_41_);}
	.st46{fill:url(#SVGID_42_);}
	.st47{fill:url(#SVGID_43_);}
	.st48{fill:url(#SVGID_44_);}
	.st49{fill:url(#SVGID_45_);}
	.st50{fill:url(#SVGID_46_);}
	.st51{fill:url(#SVGID_47_);}
	.st52{fill:url(#SVGID_48_);}
	.st53{fill:url(#SVGID_49_);}
	.st54{fill:url(#SVGID_50_);}
	.st55{fill:url(#SVGID_51_);}
	.st56{fill:url(#SVGID_52_);}
	.st57{fill:url(#SVGID_53_);}
	.st58{fill:url(#SVGID_54_);}
	.st59{fill:url(#SVGID_55_);}
	.st60{fill:url(#SVGID_56_);}
	.st61{fill:url(#SVGID_57_);}
	.st62{fill:url(#SVGID_58_);}
	.st63{fill:url(#SVGID_59_);}
	.st64{fill:url(#SVGID_60_);}
	.st65{fill:url(#SVGID_61_);}
	.st66{fill:url(#SVGID_62_);}
	.st67{fill:#B3B3B3;}
	.st68{fill:#FFFFFF;}
	.st69{fill:#471D7B;}
	.st70{fill:#E8E6EC;stroke:#999999;stroke-miterlimit:10;}
	.st71{fill:url(#SVGID_63_);}
	.st72{fill:#4D4D4D;}
	.st73{fill:#E6E6E6;}
	.st74{fill:#FFD800;}
	.st75{fill:#C2820F;}
</style>
<g class="st6">
	<defs>
		<path id="SVGID_6_" class="st6" d="M1154.57,991.99H571.85c-26.31,0-47.64-21.33-47.64-47.64V-439.36
			c0-26.31,21.33-47.64,47.64-47.64h582.71c26.31,0,47.64,21.33,47.64,47.64V944.35C1202.21,970.66,1180.88,991.99,1154.57,991.99z"
			/>
	</defs>
	<clipPath id="SVGID_1_">
		<use xlink:href="#SVGID_6_"  style="overflow:visible;"/>
	</clipPath>
	<g style="clip-path:url(#SVGID_1_);">
		<g>
			<path class="st8" d="M111.05-8.8L54.06,6.77c-0.08,0.02-0.16,0.05-0.23,0.08l-0.56,0.24l-4.53-6.62
				c-0.31-0.45-0.8-0.75-1.35-0.81L34.29-1.77c-1.03-0.11-1.97,0.64-2.08,1.67c-0.11,1.03,0.64,1.97,1.67,2.08l12.23,1.32
				l24.1,35.18l-0.61,0.42c-0.37,0.25-0.6,0.64-0.63,1.07l-0.92,11.59c-0.04,0.47,0.16,0.93,0.52,1.23c0.36,0.3,0.85,0.41,1.3,0.28
				l3.55-0.97l-0.75,1.48c-0.79,1.58-0.98,3.38-0.51,5.07c1.04,3.8,4.97,6.04,8.77,5c3.8-1.04,6.04-4.97,5-8.77
				c-0.46-1.69-1.53-3.15-3.02-4.11l-1.4-0.9l19.77-5.4l-0.75,1.48c-0.79,1.58-0.98,3.38-0.52,5.07c1.04,3.8,4.97,6.04,8.77,5
				c3.8-1.04,6.04-4.97,5-8.77c-0.46-1.69-1.53-3.15-3.02-4.11l-1.4-0.9l3.98-1.09c0.77-0.21,1.23-1.01,1.01-1.78
				c-0.21-0.77-1.01-1.23-1.78-1.01L71.1,49.75l0.71-9.01l0.77,0.1c0.26,0.03,0.51,0.02,0.74-0.04l37.15-10.15
				c0.79-0.22,1.35-0.91,1.39-1.74l1.56-35.81c0.03-0.6-0.24-1.18-0.71-1.56C112.25-8.83,111.63-8.96,111.05-8.8z M105.8,45.08
				c2.26-0.62,4.59,0.72,5.21,2.97c0.62,2.26-0.72,4.59-2.97,5.21c-2.26,0.62-4.59-0.72-5.21-2.97
				C102.21,48.04,103.55,45.7,105.8,45.08z M77.94,52.69c2.26-0.62,4.59,0.72,5.21,2.97c0.62,2.26-0.72,4.59-2.97,5.21
				s-4.59-0.72-5.21-2.97C74.35,55.65,75.68,53.31,77.94,52.69z M55.47,10.29l17.25-4.71l1.95,7.13l-14.78,4.04L55.47,10.29z
				 M80.72,34.87l-7.09,1.94l-4.29-6.26l9.49-2.59L80.72,34.87z M77.84,24.31l-10.75,2.94l-4.94-7.22l13.52-3.69L77.84,24.31z
				 M97.47,30.3l-13.11,3.58l-1.89-6.92l13.11-3.58L97.47,30.3z M94.58,19.74l-13.11,3.58l-2.18-7.97l13.11-3.58L94.58,19.74z
				 M91.41,8.13L78.3,11.71l-1.95-7.13L89.47,1L91.41,8.13z M108.16,27.38l-7.06,1.93l-1.89-6.92l9.27-2.53L108.16,27.38z
				 M108.66,15.9l-10.44,2.85l-2.18-7.97l13-3.55L108.66,15.9z M109.21,3.27L95.05,7.14L93.1,0.01l16.45-4.49L109.21,3.27z"/>
		</g>
		<g>
			<path class="st8" d="M216.78-37.68l-56.99,15.57c-0.08,0.02-0.16,0.05-0.23,0.08L159-21.8l-4.53-6.62
				c-0.31-0.45-0.8-0.75-1.35-0.81l-13.09-1.42c-1.03-0.11-1.97,0.64-2.08,1.67c-0.11,1.03,0.64,1.97,1.67,2.08l12.23,1.32
				l24.1,35.18l-0.61,0.42c-0.37,0.25-0.6,0.64-0.63,1.07l-0.92,11.59c-0.04,0.47,0.16,0.93,0.52,1.23c0.36,0.3,0.85,0.41,1.3,0.28
				l3.55-0.97l-0.75,1.48c-0.79,1.58-0.98,3.38-0.51,5.07c1.04,3.8,4.97,6.04,8.77,5c3.8-1.04,6.04-4.97,5-8.77
				c-0.46-1.69-1.53-3.15-3.02-4.11l-1.4-0.9l19.77-5.4l-0.75,1.48c-0.79,1.58-0.98,3.38-0.52,5.07c1.04,3.8,4.97,6.04,8.77,5
				s6.04-4.97,5-8.77c-0.46-1.69-1.53-3.15-3.02-4.11l-1.4-0.9l3.98-1.09c0.77-0.21,1.23-1.01,1.01-1.78
				c-0.21-0.77-1.01-1.23-1.78-1.01l-41.5,11.33l0.71-9.01l0.77,0.1c0.26,0.03,0.51,0.02,0.74-0.04l37.15-10.15
				c0.79-0.22,1.35-0.91,1.39-1.74l1.56-35.81c0.03-0.6-0.24-1.18-0.71-1.56C217.98-37.71,217.36-37.83,216.78-37.68z M211.53,16.21
				c2.26-0.62,4.59,0.72,5.21,2.97c0.62,2.26-0.72,4.59-2.97,5.21c-2.26,0.62-4.59-0.72-5.21-2.97
				C207.94,19.16,209.28,16.82,211.53,16.21z M183.67,23.82c2.26-0.62,4.59,0.72,5.21,2.97s-0.72,4.59-2.97,5.21
				c-2.26,0.62-4.59-0.72-5.21-2.97S181.41,24.43,183.67,23.82z M161.2-18.59l17.25-4.71l1.95,7.13l-14.78,4.04L161.2-18.59z
				 M186.45,5.99l-7.09,1.94l-4.29-6.26l9.49-2.59L186.45,5.99z M183.57-4.56l-10.75,2.94l-4.94-7.22l13.52-3.69L183.57-4.56z
				 M203.2,1.42L190.09,5l-1.89-6.92l13.11-3.58L203.2,1.42z M200.31-9.14l-13.11,3.58l-2.18-7.97l13.11-3.58L200.31-9.14z
				 M197.14-20.75l-13.11,3.58l-1.95-7.13l13.11-3.58L197.14-20.75z M213.89-1.5l-7.06,1.93l-1.89-6.92l9.27-2.53L213.89-1.5z
				 M214.39-12.98l-10.44,2.85l-2.18-7.97l13-3.55L214.39-12.98z M214.94-25.61l-14.16,3.87l-1.95-7.13l16.45-4.49L214.94-25.61z"/>
		</g>
		<g>
			<path class="st8" d="M86.08,124.17c-1.82-2.95-4.75-4.02-8.53-2.99c-1.43,0.39-2.86,0.78-4.3,1.17
				c-3.31-10.46-13.65-18.05-24.96-18.2c-1.77-0.02-3.55,0.17-5.33,0.27c-1.55,0.42-3.1,0.85-4.64,1.27
				c-0.31,0.19-0.6,0.43-0.94,0.57c-9.32,4.11-14.72,11.25-16.31,21.26c-0.47,2.98-0.44,5.98,0.31,8.99c-1.46,0.4-2.92,0.8-4.38,1.2
				c-0.36,0.1-0.71,0.2-1.06,0.33c-2.98,1.14-4.68,3.51-4.73,6.61c-0.05,2.9,1.64,5.28,4.58,6.52c0.52,0.22,1.15,0.56,1.39,1.03
				c4.39,8.4,8.92,16.74,12.98,25.3c1.79,3.77,4.14,5.96,8.31,6.07c14.89-4.07,29.77-8.13,44.66-12.2c3.57-2.15,4.61-5.15,4.22-9.36
				c-0.88-9.43-1.23-18.92-1.72-28.38c-0.04-0.85,0.26-1.79,0.63-2.58C87.36,128.7,87.48,126.43,86.08,124.17z M40.36,110.22
				c4.99-1.8,10.05-1.76,15.02,0.09c6.53,2.42,10.85,6.99,13.29,13.3c-14.22,3.88-28.44,7.76-42.66,11.65
				C24.05,123.5,30.82,113.67,40.36,110.22z M82.02,129.26c-0.56,1-1.03,2.25-0.97,3.36c0.56,10.45,1.25,20.88,1.9,31.32
				c0.11,1.81-0.75,2.94-2.44,3.44c-1.71,0.51-3.45,0.96-5.17,1.43c-11.78,3.22-23.57,6.44-35.35,9.65
				c-3.29,0.9-4.01,0.47-5.52-2.51c-4.64-9.17-9.33-18.31-14.09-27.42c-0.36-0.69-1.36-1.25-2.16-1.45
				c-1.33-0.33-2.41-0.81-2.49-2.28c-0.07-1.52,0.92-2.32,2.32-2.69c5.3-1.44,10.59-2.89,15.89-4.34c4.88-1.33,9.76-2.67,14.64-4
				c9.88-2.7,19.76-5.4,29.64-8.08c0.76-0.21,1.6-0.42,2.35-0.31C82.43,125.63,82.99,127.54,82.02,129.26z"/>
			<path class="st8" d="M39.29,159.61c-0.8-2.91-1.61-5.82-2.38-8.73c-0.31-1.18-0.9-1.9-2.22-1.58c-1.32,0.32-1.56,1.23-1.24,2.42
				c1.59,5.82,3.19,11.64,4.77,17.47c0.33,1.21,1.04,1.84,2.29,1.47c1.25-0.37,1.47-1.29,1.12-2.49
				C40.82,165.32,40.07,162.46,39.29,159.61z"/>
			<path class="st8" d="M50.72,156.43c-0.8-2.91-1.61-5.82-2.38-8.74c-0.32-1.2-0.96-1.86-2.26-1.51c-1.32,0.36-1.47,1.29-1.15,2.47
				c1.58,5.76,3.16,11.52,4.72,17.29c0.32,1.17,0.9,1.94,2.2,1.62c1.39-0.34,1.58-1.3,1.22-2.58
				C52.25,162.14,51.5,159.28,50.72,156.43z"/>
			<path class="st8" d="M73.68,150.35c-0.81-2.97-1.63-5.94-2.43-8.91c-0.32-1.18-0.95-1.88-2.26-1.51
				c-1.29,0.37-1.47,1.27-1.14,2.46c1.59,5.76,3.17,11.52,4.72,17.29c0.32,1.18,0.9,1.93,2.2,1.62c1.4-0.34,1.58-1.31,1.22-2.58
				C75.18,155.94,74.44,153.14,73.68,150.35z"/>
			<path class="st8" d="M57.56,143.05c-1.44,0.39-1.47,1.41-1.13,2.63c1.58,5.7,3.14,11.4,4.67,17.11c0.34,1.27,0.99,2.02,2.36,1.6
				c1.29-0.39,1.4-1.36,1.07-2.52c-0.8-2.84-1.57-5.7-2.34-8.55c-0.78-2.85-1.57-5.7-2.33-8.56C59.54,143.55,59,142.66,57.56,143.05
				z"/>
		</g>
		<g>
			<path class="st8" d="M203.6,92.08c-1.82-2.95-4.75-4.02-8.53-2.99c-1.43,0.39-2.86,0.78-4.3,1.17
				c-3.31-10.46-13.65-18.05-24.96-18.2c-1.77-0.02-3.55,0.17-5.33,0.27c-1.55,0.42-3.1,0.85-4.64,1.27
				c-0.31,0.19-0.6,0.43-0.94,0.57c-9.32,4.11-14.72,11.25-16.31,21.26c-0.47,2.98-0.44,5.98,0.31,8.99c-1.46,0.4-2.92,0.8-4.38,1.2
				c-0.36,0.1-0.71,0.2-1.06,0.33c-2.98,1.14-4.68,3.51-4.73,6.61c-0.05,2.9,1.64,5.28,4.58,6.52c0.52,0.22,1.15,0.56,1.39,1.03
				c4.39,8.4,8.92,16.74,12.98,25.3c1.79,3.77,4.14,5.96,8.31,6.07c14.89-4.07,29.77-8.13,44.66-12.2c3.57-2.15,4.61-5.15,4.22-9.36
				c-0.88-9.43-1.23-18.92-1.72-28.38c-0.04-0.85,0.26-1.79,0.63-2.58C204.87,96.6,204.99,94.33,203.6,92.08z M157.88,78.12
				c4.99-1.8,10.05-1.76,15.02,0.09c6.53,2.42,10.85,6.99,13.29,13.3c-14.22,3.88-28.44,7.76-42.66,11.65
				C141.57,91.4,148.33,81.58,157.88,78.12z M199.54,97.16c-0.56,1-1.03,2.25-0.97,3.36c0.56,10.45,1.25,20.88,1.9,31.32
				c0.11,1.81-0.75,2.94-2.44,3.44c-1.71,0.51-3.45,0.96-5.17,1.43c-11.78,3.22-23.57,6.44-35.35,9.65
				c-3.29,0.9-4.01,0.47-5.52-2.51c-4.64-9.17-9.33-18.31-14.09-27.42c-0.36-0.69-1.36-1.25-2.16-1.45
				c-1.33-0.33-2.41-0.81-2.49-2.28c-0.07-1.52,0.92-2.32,2.32-2.69c5.3-1.44,10.59-2.89,15.89-4.34c4.88-1.33,9.76-2.67,14.64-4
				c9.88-2.7,19.76-5.4,29.64-8.08c0.76-0.21,1.6-0.42,2.35-0.31C199.94,93.54,200.5,95.44,199.54,97.16z"/>
			<path class="st8" d="M156.81,127.52c-0.8-2.91-1.61-5.82-2.38-8.73c-0.31-1.18-0.9-1.9-2.22-1.58c-1.32,0.32-1.56,1.23-1.24,2.42
				c1.59,5.82,3.19,11.64,4.77,17.47c0.33,1.21,1.04,1.84,2.29,1.47c1.25-0.37,1.47-1.29,1.12-2.49
				C158.34,133.23,157.59,130.37,156.81,127.52z"/>
			<path class="st8" d="M168.24,124.33c-0.8-2.91-1.61-5.82-2.38-8.74c-0.32-1.2-0.96-1.86-2.26-1.51
				c-1.32,0.36-1.47,1.29-1.15,2.47c1.58,5.76,3.16,11.52,4.72,17.29c0.32,1.17,0.9,1.94,2.2,1.62c1.39-0.34,1.58-1.3,1.22-2.58
				C169.77,130.04,169.01,127.18,168.24,124.33z"/>
			<path class="st8" d="M191.2,118.25c-0.81-2.97-1.63-5.94-2.43-8.91c-0.32-1.18-0.95-1.88-2.26-1.51
				c-1.29,0.37-1.47,1.27-1.14,2.46c1.59,5.76,3.17,11.52,4.72,17.29c0.32,1.18,0.9,1.93,2.2,1.62c1.4-0.34,1.58-1.31,1.22-2.58
				C192.7,123.84,191.96,121.04,191.2,118.25z"/>
			<path class="st8" d="M175.08,110.95c-1.44,0.39-1.47,1.41-1.13,2.63c1.58,5.7,3.14,11.4,4.67,17.11c0.34,1.27,0.99,2.02,2.36,1.6
				c1.29-0.39,1.4-1.36,1.07-2.52c-0.8-2.84-1.57-5.7-2.34-8.55c-0.78-2.85-1.57-5.7-2.33-8.56
				C177.05,111.45,176.52,110.57,175.08,110.95z"/>
		</g>
		<g>
			<g>
				<g>
					<path class="st8" d="M184.92,258.7l-7.54,2.06l-7.24-26.52c0.44-0.02,0.87-0.09,1.3-0.2c3.47-0.95,5.51-4.53,4.57-8
						c-0.03-0.09-0.06-0.18-0.1-0.26l-5.6-10.62c-0.28-0.54-0.91-0.81-1.49-0.65l-3.77,1.03l-1.03-3.77
						c-0.19-0.69-0.91-1.1-1.6-0.91l-10.05,2.74l-0.69-2.51l2.51-0.69c0.69-0.19,1.1-0.91,0.91-1.6l-3.43-12.56
						c-0.19-0.69-0.91-1.1-1.6-0.91l-40.2,10.98c-0.69,0.19-1.1,0.91-0.91,1.6l3.43,12.56c0.19,0.69,0.91,1.1,1.6,0.91l2.51-0.69
						l0.69,2.51l-10.05,2.74c-0.69,0.19-1.1,0.91-0.91,1.6l1.03,3.77l-3.77,1.03c-0.59,0.16-0.99,0.71-0.96,1.32l0.58,11.99
						c0,0.1,0.02,0.19,0.04,0.28c0.95,3.47,4.53,5.51,8,4.57c0.42-0.12,0.83-0.28,1.22-0.49l7.24,26.52l-7.54,2.06
						c-0.69,0.19-1.1,0.91-0.91,1.6l1.37,5.03c0.19,0.69,0.91,1.1,1.6,0.91l72.86-19.9c0.69-0.19,1.1-0.91,0.91-1.6l-1.37-5.03
						C186.33,258.92,185.61,258.51,184.92,258.7z M168.48,217.29l5.04,9.56c0.49,2.05-0.74,4.12-2.77,4.67
						c-0.66,0.18-1.36,0.18-2.02,0c-1.02-0.27-1.89-0.94-2.41-1.86c-0.16-0.28-0.29-0.57-0.37-0.88c-0.01-0.05-0.03-0.09-0.05-0.14
						l-3.81-9.61L168.48,217.29z M163.1,243.06l-12.56,3.43c-0.69,0.19-1.1,0.91-0.91,1.6l5.15,18.84l-32.66,8.92l-7.56-27.68
						c0.38-0.48,0.69-1.01,0.92-1.58c2.81,2.22,6.88,1.74,9.09-1.07c0.4-0.51,0.72-1.07,0.96-1.67c2.81,2.22,6.88,1.74,9.09-1.07
						c0.4-0.51,0.72-1.07,0.96-1.67c2.81,2.22,6.88,1.74,9.09-1.07c0.4-0.51,0.72-1.07,0.96-1.67c2.81,2.22,6.88,1.74,9.09-1.07
						c0.4-0.51,0.72-1.07,0.96-1.67c2.81,2.22,6.88,1.73,9.1-1.07c0.4-0.51,0.72-1.07,0.95-1.67c0.49,0.37,1.02,0.67,1.59,0.89
						l7.56,27.69l-5.03,1.37l-5.15-18.84C164.51,243.28,163.79,242.87,163.1,243.06z M162.53,245.91l4.8,17.59l-10.05,2.74
						l-4.8-17.59L162.53,245.91z M115.71,242.57l-1.63-10.42l7.52-2.05l1.61,10.21c0.01,0.05,0.01,0.1,0.02,0.14
						c0.09,0.32,0.13,0.65,0.13,0.98c0.02,2.16-1.71,3.92-3.87,3.94c-1.42,0.01-2.73-0.74-3.43-1.98
						C115.91,243.13,115.79,242.86,115.71,242.57z M125.76,239.83l-1.63-10.42l6.41-1.75l2.74,10.05c0.09,0.32,0.13,0.65,0.13,0.98
						c0.02,2.16-1.71,3.92-3.87,3.94c-1.42,0.01-2.73-0.74-3.43-1.98C125.96,240.39,125.84,240.11,125.76,239.83z M135.8,237.02
						l-2.74-10.05l7.54-2.06l2.74,10.05c0.09,0.32,0.13,0.65,0.13,0.98c0.02,2.16-1.71,3.92-3.87,3.94
						c-1.42,0.01-2.73-0.74-3.43-1.98C136,237.62,135.88,237.33,135.8,237.02z M145.85,234.27l-2.74-10.05l6.41-1.75l3.89,9.81
						c0.08,0.3,0.12,0.61,0.11,0.91c0.02,2.16-1.71,3.92-3.87,3.94c-1.42,0.01-2.73-0.74-3.43-1.98
						C146.05,234.88,145.93,234.58,145.85,234.27z M152.04,221.78l7.52-2.05l3.89,9.81c0.08,0.3,0.12,0.61,0.11,0.91
						c0.02,2.16-1.71,3.92-3.87,3.94c-1.42,0.01-2.73-0.74-3.43-1.98c-0.16-0.28-0.29-0.57-0.37-0.88
						c-0.01-0.05-0.03-0.09-0.05-0.14L152.04,221.78z M114.54,218.52l-2.74-10.05l37.69-10.29l2.74,10.05L114.54,218.52z
						 M149.15,211.77l0.69,2.51l-30.15,8.23L119,220L149.15,211.77z M109.06,228.12l52.76-14.41l0.69,2.51l-52.76,14.41
						L109.06,228.12z M110.44,247.99c-2.03,0.56-4.14-0.6-4.76-2.61l-0.52-10.79l6.38-1.74l1.61,10.21
						c0.01,0.05,0.02,0.09,0.03,0.14c0.09,0.32,0.13,0.65,0.13,0.98c0.01,1.04-0.39,2.05-1.13,2.79
						C111.71,247.45,111.11,247.81,110.44,247.99z M185.03,264.07l-70.35,19.21l-0.69-2.51l70.35-19.21L185.03,264.07z"/>
				</g>
			</g>
		</g>
	</g>
	<g style="clip-path:url(#SVGID_1_);">
	</g>
</g>
<g>
	<g>
		<path class="st8" d="M144.85,186c-2.87,0-5.75-0.95-8.14-2.91l-74.93-61.31c-2.99-2.44-4.72-6.1-4.72-9.96s1.73-7.51,4.72-9.96
			l74.93-61.31c5.5-4.5,13.6-3.69,18.11,1.81c4.5,5.5,3.69,13.61-1.81,18.11l-62.76,51.35l62.76,51.35
			c5.5,4.5,6.31,12.61,1.81,18.11C152.28,184.39,148.58,186,144.85,186z"/>
	</g>
</g>
</svg>
