<?xml version="1.0" encoding="utf-8"?>
<!-- Generator: Adobe Illustrator 24.0.2, SVG Export Plug-In . SVG Version: 6.00 Build 0)  -->
<svg version="1.1" id="Capa_1" xmlns="http://www.w3.org/2000/svg" xmlns:xlink="http://www.w3.org/1999/xlink" x="0px" y="0px"
	 viewBox="0 0 216 216" style="enable-background:new 0 0 216 216;" xml:space="preserve">
<style type="text/css">
	.st0{fill:url(#SVGID_1_);}
	.st1{opacity:0.69;fill:none;stroke:#4D4D4D;stroke-width:3;stroke-miterlimit:10;}
	.st2{opacity:0.69;fill:none;stroke:#4D4D4D;stroke-width:3;stroke-linecap:round;stroke-linejoin:round;stroke-miterlimit:10;}
	.st3{opacity:0.6;fill:none;stroke:#4D4D4D;stroke-width:3;stroke-linecap:round;stroke-linejoin:round;stroke-miterlimit:10;}
	.st4{fill:none;}
	.st5{fill:url(#SVGID_2_);}
	.st6{opacity:0.05;}
	.st7{clip-path:url(#SVGID_4_);}
	.st8{fill:#5F27A4;}
	.st9{fill:url(#SVGID_5_);}
	.st10{clip-path:url(#SVGID_7_);}
	.st11{fill:url(#SVGID_8_);}
	.st12{fill:#3C3C3B;}
	.st13{fill:url(#SVGID_9_);}
	.st14{fill:url(#SVGID_10_);}
	.st15{fill:url(#SVGID_11_);}
	.st16{fill:url(#SVGID_12_);}
	.st17{fill:url(#SVGID_13_);}
	.st18{fill:url(#SVGID_14_);}
	.st19{fill:url(#SVGID_15_);}
	.st20{fill:url(#SVGID_16_);}
	.st21{fill:url(#SVGID_17_);}
	.st22{fill:url(#SVGID_18_);}
	.st23{fill:url(#SVGID_19_);}
	.st24{fill:url(#SVGID_20_);}
	.st25{fill:url(#SVGID_21_);}
	.st26{fill:url(#SVGID_22_);}
	.st27{fill:url(#SVGID_23_);}
	.st28{fill:url(#SVGID_24_);}
	.st29{fill:url(#SVGID_25_);}
	.st30{fill:url(#SVGID_26_);}
	.st31{fill:url(#SVGID_27_);}
	.st32{fill:url(#SVGID_28_);}
	.st33{fill:url(#SVGID_29_);}
	.st34{fill:url(#SVGID_30_);}
	.st35{fill:url(#SVGID_31_);}
	.st36{fill:url(#SVGID_32_);}
	.st37{fill:url(#SVGID_33_);}
	.st38{fill:url(#SVGID_34_);}
	.st39{fill:url(#SVGID_35_);}
	.st40{fill:url(#SVGID_36_);}
	.st41{fill:url(#SVGID_37_);}
	.st42{fill:url(#SVGID_38_);}
	.st43{fill:url(#SVGID_39_);}
	.st44{fill:url(#SVGID_40_);}
	.st45{fill:url(#SVGID_41_);}
	.st46{fill:url(#SVGID_42_);}
	.st47{fill:url(#SVGID_43_);}
	.st48{fill:url(#SVGID_44_);}
	.st49{fill:url(#SVGID_45_);}
	.st50{fill:url(#SVGID_46_);}
	.st51{fill:url(#SVGID_47_);}
	.st52{fill:url(#SVGID_48_);}
	.st53{fill:url(#SVGID_49_);}
	.st54{fill:url(#SVGID_50_);}
	.st55{fill:url(#SVGID_51_);}
	.st56{fill:url(#SVGID_52_);}
	.st57{fill:url(#SVGID_53_);}
	.st58{fill:url(#SVGID_54_);}
	.st59{fill:url(#SVGID_55_);}
	.st60{fill:url(#SVGID_56_);}
	.st61{fill:url(#SVGID_57_);}
	.st62{fill:url(#SVGID_58_);}
	.st63{fill:url(#SVGID_59_);}
	.st64{fill:url(#SVGID_60_);}
	.st65{fill:url(#SVGID_61_);}
	.st66{fill:url(#SVGID_62_);}
	.st67{fill:#B3B3B3;}
	.st68{fill:#FFFFFF;}
	.st69{fill:#471D7B;}
	.st70{fill:#E8E6EC;stroke:#999999;stroke-miterlimit:10;}
	.st71{fill:url(#SVGID_63_);}
	.st72{fill:#4D4D4D;}
	.st73{fill:#E6E6E6;}
	.st74{fill:#FFD800;}
	.st75{fill:#C2820F;}
</style>
<g>
	<path class="st8" d="M91.7,69.9c-2.1-2.49-4.18-4.88-6.21-7.27c-4.91-5.77-9.85-11.54-14.76-17.31c-1.05-1.24-1.12-2.23-0.35-3.6
		c3.76-6.6,7.52-13.16,11.22-19.76c0.83-1.5,1.91-2.14,3.63-2.14c15.39,0.03,30.82,0.03,46.21,0.03c1.21,0,2.1,0.45,2.71,1.53
		c3.82,6.76,7.68,13.48,11.51,20.24c0.96,1.69,0.8,2.36-0.61,4.05c-4.62,5.45-9.27,10.93-13.9,16.38c-2.01,2.36-4.02,4.68-6.02,7.04
		c-0.22,0.25-0.41,0.51-0.64,0.8c17.46,5.23,30.6,15.71,38.91,31.9c6.79,13.19,8.48,27.19,5.26,41.65
		c-6.44,28.97-32.7,49.53-62.63,48.51c-31.62-1.08-55.77-25.08-59.53-53.67C42.4,107,61.75,78.31,91.7,69.9z M150.35,129.85
		c-0.06-23.68-19.5-42.74-43.28-42.26c-22.02,0.45-41.24,18.48-41.27,42.36c-0.03,23.2,19.03,42.16,42.29,42.16
		C131.38,172.11,150.38,153.11,150.35,129.85z M113.6,82.62c25.21,3,44.3,25.62,41.75,51.85c-2.23,22.95-20.78,41.4-44.46,42.77
		c-25.4,1.47-46.59-16.95-49.85-40.95c-1.53-11.31,0.67-21.93,6.79-31.58c8.1-12.68,19.76-19.95,34.67-22.09
		c-0.03-0.1-0.03-0.19-0.1-0.25c-2.1-2.45-4.24-4.91-6.34-7.36c-0.41-0.48-0.8-0.64-1.37-0.45c-3.31,1.15-6.72,2.04-9.91,3.44
		c-23.17,10.39-37.19,35.5-32.76,61.38c1.69,9.88,5.61,18.8,12.08,26.42c13.64,16.06,31.07,22.91,51.98,20.33
		c11.09-1.37,20.97-5.93,29.29-13.42c15.52-14.02,21.96-31.52,18.74-52.2c-2.01-13.03-8.25-23.97-18.01-32.86
		c-7.08-6.44-15.3-10.77-24.6-13.07c-0.61-0.16-0.99-0.06-1.37,0.45c-1.15,1.4-2.33,2.77-3.51,4.14
		C115.61,80.29,114.62,81.44,113.6,82.62z M107.99,75.16c0.06,0,0.13,0,0.19,0c2.77-9.69,5.51-19.38,8.29-29.16
		c-5.64,0-11.12,0-16.76,0C102.48,55.75,105.22,65.47,107.99,75.16z M113.98,73.88c0.03,0.03,0.1,0.03,0.13,0.06
		c7.9-9.27,15.84-18.55,23.9-27.98c-0.48,0-0.73,0-0.99,0c-4.72,0-9.47,0.03-14.18-0.03c-0.76,0-0.99,0.22-1.18,0.92
		c-1.78,6.41-3.63,12.78-5.45,19.19C115.45,68.66,114.71,71.27,113.98,73.88z M102.13,74.04c0.03-0.16,0.06-0.22,0.03-0.29
		c-2.58-9.05-5.16-18.07-7.71-27.12c-0.16-0.64-0.48-0.67-1.02-0.67c-4.81,0-9.62,0-14.44,0c-0.22,0-0.41,0.03-0.76,0.06
		C86.25,55.43,94.16,64.71,102.13,74.04z M103.53,25.19c-4.94,0-9.72,0-14.63,0c2.45,4.33,4.88,8.6,7.33,12.97
		C98.72,33.76,101.11,29.52,103.53,25.19z M127.27,25.15c-4.94,0-9.72,0-14.66,0c2.45,4.33,4.88,8.54,7.33,12.88
		C122.4,33.7,124.82,29.49,127.27,25.15z M115.45,40.74c-2.49-4.37-4.88-8.6-7.36-12.94c-2.52,4.4-4.91,8.6-7.39,12.94
		C105.66,40.74,110.44,40.74,115.45,40.74z M139.13,40.71c-2.45-4.33-4.88-8.57-7.33-12.91c-2.49,4.37-4.88,8.57-7.33,12.91
		C129.41,40.71,134.19,40.71,139.13,40.71z M91.7,40.71c-2.49-4.37-4.88-8.57-7.33-12.91c-2.49,4.37-4.88,8.6-7.33,12.91
		C81.98,40.71,86.76,40.71,91.7,40.71z"/>
</g>
</svg>
