<?xml version="1.0" encoding="utf-8"?>
<!-- Generator: Adobe Illustrator 24.0.2, SVG Export Plug-In . SVG Version: 6.00 Build 0)  -->
<svg version="1.1" id="Capa_1" xmlns="http://www.w3.org/2000/svg" xmlns:xlink="http://www.w3.org/1999/xlink" x="0px" y="0px"
	 viewBox="0 0 216 216" style="enable-background:new 0 0 216 216;" xml:space="preserve">
<style type="text/css">
	.st0{fill:url(#SVGID_1_);}
	.st1{opacity:0.69;fill:none;stroke:#4D4D4D;stroke-width:3;stroke-miterlimit:10;}
	.st2{opacity:0.69;fill:none;stroke:#4D4D4D;stroke-width:3;stroke-linecap:round;stroke-linejoin:round;stroke-miterlimit:10;}
	.st3{opacity:0.6;fill:none;stroke:#4D4D4D;stroke-width:3;stroke-linecap:round;stroke-linejoin:round;stroke-miterlimit:10;}
	.st4{fill:none;}
	.st5{fill:url(#SVGID_2_);}
	.st6{opacity:0.05;}
	.st7{clip-path:url(#SVGID_4_);}
	.st8{fill:#5F27A4;}
	.st9{fill:url(#SVGID_5_);}
	.st10{clip-path:url(#SVGID_7_);}
	.st11{fill:url(#SVGID_8_);}
	.st12{fill:#3C3C3B;}
	.st13{fill:url(#SVGID_9_);}
	.st14{fill:url(#SVGID_10_);}
	.st15{fill:url(#SVGID_11_);}
	.st16{fill:url(#SVGID_12_);}
	.st17{fill:url(#SVGID_13_);}
	.st18{fill:url(#SVGID_14_);}
	.st19{fill:url(#SVGID_15_);}
	.st20{fill:url(#SVGID_16_);}
	.st21{fill:url(#SVGID_17_);}
	.st22{fill:url(#SVGID_18_);}
	.st23{fill:url(#SVGID_19_);}
	.st24{fill:url(#SVGID_20_);}
	.st25{fill:url(#SVGID_21_);}
	.st26{fill:url(#SVGID_22_);}
	.st27{fill:url(#SVGID_23_);}
	.st28{fill:url(#SVGID_24_);}
	.st29{fill:url(#SVGID_25_);}
	.st30{fill:url(#SVGID_26_);}
	.st31{fill:url(#SVGID_27_);}
	.st32{fill:url(#SVGID_28_);}
	.st33{fill:url(#SVGID_29_);}
	.st34{fill:url(#SVGID_30_);}
	.st35{fill:url(#SVGID_31_);}
	.st36{fill:url(#SVGID_32_);}
	.st37{fill:url(#SVGID_33_);}
	.st38{fill:url(#SVGID_34_);}
	.st39{fill:url(#SVGID_35_);}
	.st40{fill:url(#SVGID_36_);}
	.st41{fill:url(#SVGID_37_);}
	.st42{fill:url(#SVGID_38_);}
	.st43{fill:url(#SVGID_39_);}
	.st44{fill:url(#SVGID_40_);}
	.st45{fill:url(#SVGID_41_);}
	.st46{fill:url(#SVGID_42_);}
	.st47{fill:url(#SVGID_43_);}
	.st48{fill:url(#SVGID_44_);}
	.st49{fill:url(#SVGID_45_);}
	.st50{fill:url(#SVGID_46_);}
	.st51{fill:url(#SVGID_47_);}
	.st52{fill:url(#SVGID_48_);}
	.st53{fill:url(#SVGID_49_);}
	.st54{fill:url(#SVGID_50_);}
	.st55{fill:url(#SVGID_51_);}
	.st56{fill:url(#SVGID_52_);}
	.st57{fill:url(#SVGID_53_);}
	.st58{fill:url(#SVGID_54_);}
	.st59{fill:url(#SVGID_55_);}
	.st60{fill:url(#SVGID_56_);}
	.st61{fill:url(#SVGID_57_);}
	.st62{fill:url(#SVGID_58_);}
	.st63{fill:url(#SVGID_59_);}
	.st64{fill:url(#SVGID_60_);}
	.st65{fill:url(#SVGID_61_);}
	.st66{fill:url(#SVGID_62_);}
	.st67{fill:#B3B3B3;}
	.st68{fill:#FFFFFF;}
	.st69{fill:#471D7B;}
	.st70{fill:#E8E6EC;stroke:#999999;stroke-miterlimit:10;}
	.st71{fill:url(#SVGID_63_);}
	.st72{fill:#4D4D4D;}
	.st73{fill:#E6E6E6;}
	.st74{fill:#FFD800;}
	.st75{fill:#C2820F;}
</style>
<g>
	<path class="st8" d="M45.28,115.36c0.43,0,0.87-0.1,1.29-0.3l14.39-7.05l6.24,9.7c0.67,1.04,1.79,1.64,2.99,1.64
		c0.25,0,0.51-0.03,0.76-0.08c1.47-0.31,2.56-1.48,2.79-2.96l2.51-15.8l11.81,11.57c1.08,1.06,2.73,1.32,4.09,0.65
		c1.36-0.67,2.15-2.14,1.96-3.64l-1.82-14.6l10.84,10.36c1.17,1.12,2.95,1.31,4.33,0.46c1.38-0.84,2.02-2.52,1.56-4.07l-4.4-14.8
		l13.39,9.79c1.31,0.96,3.14,0.67,4.09-0.64c0.96-1.31,0.67-3.14-0.64-4.09L106,80.19l6.22-10.32c0.26-0.42,0.65-0.54,0.85-0.58
		c0.21-0.03,0.62-0.04,0.99,0.28l9.35,8.14c1.22,1.06,3.07,0.93,4.13-0.29c1.06-1.22,0.93-3.07-0.29-4.13l-9.35-8.14
		c-1.58-1.38-3.68-1.98-5.75-1.65c-2.07,0.33-3.88,1.54-4.96,3.34l-6.15,10.21c-0.9-0.14-1.84,0.06-2.62,0.61
		c-1.25,0.88-1.8,2.47-1.37,3.94l0.26,0.88c-1.35,1.43-5.22,3.72-5.22,3.72l-0.42-0.4c-1.09-1.04-2.73-1.29-4.07-0.61
		c-1.35,0.68-2.13,2.14-1.94,3.63l0.06,0.5l-8.35,4.09l-0.35-0.34c-0.96-0.94-2.35-1.26-3.63-0.84c-1.28,0.43-2.2,1.52-2.4,2.85
		l-0.24,1.56l-7.72,3.78c-0.91-1.23-2.63-1.56-3.93-0.72c-1.11,0.71-1.57,2.05-1.24,3.25l-13.9,6.81c-1.45,0.71-2.05,2.47-1.34,3.92
		C43.16,114.76,44.2,115.36,45.28,115.36L45.28,115.36z M99.18,88.72l1.77,5.94l-4.37-4.17C97.49,89.96,98.36,89.36,99.18,88.72
		L99.18,88.72z M86.51,95.49l0.98,7.82l-5.65-5.53L86.51,95.49z M68.85,109.44l-2.59-4.03l3.45-1.69L68.85,109.44z"/>
	<path class="st8" d="M202.36,129.26c0.01-0.11-0.11-11.25-0.11-16.61c0-0.06,0-0.13-0.01-0.19c-0.33-4.69-3.25-7.9-5.82-10.73
		c-0.89-0.98-1.74-1.92-2.47-2.89c2.39-1.95,2.95-5.34,1.3-7.96l-2.7-4.28c-1.38-2.19-3.92-3.22-6.34-2.73L183.01,69
		c-0.41-1.92-2.11-3.29-4.08-3.29h-15.93c-3.56,0-6.45,2.89-6.45,6.45v10.89c0,0.78-0.1,1.56-0.34,2.29
		c-1.04,3.16-4.05,5.16-7.35,4.91c-1.56-0.12-3.03-0.79-4.21-1.82l-7.97-6.94c-1.24-1.08-3.14-0.93-4.19,0.36
		c-1.02,1.24-0.77,3.09,0.44,4.15l7.99,6.95c2.38,2.07,5.4,3.19,8.51,3.19c0.62,0,1.25-0.04,1.88-0.14
		c3.75-0.55,7.06-2.69,9.09-5.89c1.32-2.08,2.02-4.48,2.02-6.95V72.17c0-0.33,0.27-0.59,0.59-0.59h14.56l3.19,14.81L169.5,92.1
		c-1.53,0.77-2.66,2.17-3.12,3.82c-0.45,1.65-0.19,3.43,0.72,4.87l4.31,6.83c0.59,0.93,1.39,1.73,2.37,2.24
		c0.91,0.48,1.89,0.71,2.85,0.71c1.34,0,2.65-0.44,3.72-1.26l8.95-6.89c0.88,1.16,1.84,2.22,2.78,3.25c2.18,2.4,4.07,4.48,4.3,7.1
		c0,3.69,0,7.47,0.04,11.23c-2.73-1.54-5.87-2.43-9.22-2.43h-36.39c-10.53,0-20.8,3.29-29.37,9.41l-2.49,1.78
		c-2.77,1.98-6.09,3.04-9.5,3.04H30.61c-3.96,0-7.88-0.66-11.62-1.95l-4.48-1.55c0.7-1.31,1.8-2.39,3.16-3.06l17.58-8.62
		c1.34-0.66,2.06-2.2,1.58-3.61c-0.58-1.71-2.5-2.46-4.07-1.69l-17.67,8.66c-1.8,0.88-3.39,2.42-4.63,4.22
		c-1.71,2.49-2.59,5.47-2.66,8.5c0,0.08,0,0.13,0,0.13c0,12.31,10.01,22.32,22.32,22.32h156.79c10.31,0,18.93-8.19,19.08-18.5
		C206.06,136.38,204.7,132.44,202.36,129.26L202.36,129.26z M176.79,104.66c-0.02,0.02-0.08,0.06-0.18,0.04
		c-0.1-0.02-0.14-0.08-0.16-0.11l-4.38-6.94c-0.01-0.02-0.06-0.09-0.03-0.19c0.03-0.1,0.1-0.14,0.12-0.15l15.13-7.69
		c0.03-0.02,0.07-0.03,0.11-0.03c0.08,0,0.15,0.04,0.2,0.11l2.7,4.28c0.07,0.1,0.04,0.24-0.06,0.31L176.79,104.66z M157.7,127.42
		V133c0,1.62,1.31,2.93,2.93,2.93c1.62,0,2.93-1.31,2.93-2.93v-5.58h9.06v25.86h-9.06v-7.79c0-1.62-1.31-2.93-2.93-2.93
		c-1.62,0-2.93,1.31-2.93,2.93v7.79h-9.06v-25.8c0.72-0.03,1.45-0.06,2.17-0.06H157.7z M142.78,153.28h-9.06v-22.47
		c2.91-1.21,5.95-2.1,9.06-2.66V153.28z M122.37,137.52l2.49-1.78c0.98-0.7,1.98-1.36,3.01-1.97v19.51h-9.06v-13.69
		C120.05,139.01,121.24,138.32,122.37,137.52z M112.95,141.38v11.9h-9.06v-11.62h5.57C110.64,141.65,111.81,141.56,112.95,141.38z
		 M59.14,141.65h9.06v11.62h-9.06V141.65z M53.28,153.28h-9.06v-11.62h9.06V153.28z M74.06,141.65h9.06v11.62h-9.06V141.65z
		 M88.98,141.65h9.06v11.62h-9.06V141.65z M13.72,138.21l3.36,1.16c2.08,0.72,4.21,1.27,6.37,1.65v10.84
		C18.09,149.48,14.23,144.31,13.72,138.21L13.72,138.21z M29.31,153.26v-11.63c0.44,0.01,9.06,0.03,9.06,0.03v11.62
		C38.36,153.28,29.58,153.27,29.31,153.26z M178.48,153.28v-25.86c0,0,8.95,0.01,9.06,0.01v25.84
		C187.43,153.27,178.48,153.28,178.48,153.28z M193.4,151.7V129c4.01,2.2,6.74,6.46,6.74,11.35
		C200.14,145.24,197.41,149.5,193.4,151.7z"/>
</g>
</svg>
