<?xml version="1.0" encoding="utf-8"?>
<!-- Generator: Adobe Illustrator 24.0.2, SVG Export Plug-In . SVG Version: 6.00 Build 0)  -->
<svg version="1.1" id="Capa_1" xmlns="http://www.w3.org/2000/svg" xmlns:xlink="http://www.w3.org/1999/xlink" x="0px" y="0px"
	 viewBox="0 0 216 216" style="enable-background:new 0 0 216 216;" xml:space="preserve">
<style type="text/css">
	.st0{fill:url(#SVGID_1_);}
	.st1{opacity:0.69;fill:none;stroke:#4D4D4D;stroke-width:3;stroke-miterlimit:10;}
	.st2{opacity:0.69;fill:none;stroke:#4D4D4D;stroke-width:3;stroke-linecap:round;stroke-linejoin:round;stroke-miterlimit:10;}
	.st3{opacity:0.6;fill:none;stroke:#4D4D4D;stroke-width:3;stroke-linecap:round;stroke-linejoin:round;stroke-miterlimit:10;}
	.st4{fill:none;}
	.st5{fill:url(#SVGID_2_);}
	.st6{opacity:0.05;}
	.st7{clip-path:url(#SVGID_4_);}
	.st8{fill:#5F27A4;}
	.st9{fill:url(#SVGID_5_);}
	.st10{clip-path:url(#SVGID_7_);}
	.st11{fill:url(#SVGID_8_);}
	.st12{fill:#3C3C3B;}
	.st13{fill:url(#SVGID_9_);}
	.st14{fill:url(#SVGID_10_);}
	.st15{fill:url(#SVGID_11_);}
	.st16{fill:url(#SVGID_12_);}
	.st17{fill:url(#SVGID_13_);}
	.st18{fill:url(#SVGID_14_);}
	.st19{fill:url(#SVGID_15_);}
	.st20{fill:url(#SVGID_16_);}
	.st21{fill:url(#SVGID_17_);}
	.st22{fill:url(#SVGID_18_);}
	.st23{fill:url(#SVGID_19_);}
	.st24{fill:url(#SVGID_20_);}
	.st25{fill:url(#SVGID_21_);}
	.st26{fill:url(#SVGID_22_);}
	.st27{fill:url(#SVGID_23_);}
	.st28{fill:url(#SVGID_24_);}
	.st29{fill:url(#SVGID_25_);}
	.st30{fill:url(#SVGID_26_);}
	.st31{fill:url(#SVGID_27_);}
	.st32{fill:url(#SVGID_28_);}
	.st33{fill:url(#SVGID_29_);}
	.st34{fill:url(#SVGID_30_);}
	.st35{fill:url(#SVGID_31_);}
	.st36{fill:url(#SVGID_32_);}
	.st37{fill:url(#SVGID_33_);}
	.st38{fill:url(#SVGID_34_);}
	.st39{fill:url(#SVGID_35_);}
	.st40{fill:url(#SVGID_36_);}
	.st41{fill:url(#SVGID_37_);}
	.st42{fill:url(#SVGID_38_);}
	.st43{fill:url(#SVGID_39_);}
	.st44{fill:url(#SVGID_40_);}
	.st45{fill:url(#SVGID_41_);}
	.st46{fill:url(#SVGID_42_);}
	.st47{fill:url(#SVGID_43_);}
	.st48{fill:url(#SVGID_44_);}
	.st49{fill:url(#SVGID_45_);}
	.st50{fill:url(#SVGID_46_);}
	.st51{fill:url(#SVGID_47_);}
	.st52{fill:url(#SVGID_48_);}
	.st53{fill:url(#SVGID_49_);}
	.st54{fill:url(#SVGID_50_);}
	.st55{fill:url(#SVGID_51_);}
	.st56{fill:url(#SVGID_52_);}
	.st57{fill:url(#SVGID_53_);}
	.st58{fill:url(#SVGID_54_);}
	.st59{fill:url(#SVGID_55_);}
	.st60{fill:url(#SVGID_56_);}
	.st61{fill:url(#SVGID_57_);}
	.st62{fill:url(#SVGID_58_);}
	.st63{fill:url(#SVGID_59_);}
	.st64{fill:url(#SVGID_60_);}
	.st65{fill:url(#SVGID_61_);}
	.st66{fill:url(#SVGID_62_);}
	.st67{fill:#B3B3B3;}
	.st68{fill:#FFFFFF;}
	.st69{fill:#471D7B;}
	.st70{fill:#E8E6EC;stroke:#999999;stroke-miterlimit:10;}
	.st71{fill:url(#SVGID_63_);}
	.st72{fill:#4D4D4D;}
	.st73{fill:#E6E6E6;}
	.st74{fill:#FFD800;}
	.st75{fill:#C2820F;}
</style>
<g>
	<path class="st8" d="M79.83,66.07c4.28,0,7.77-3.48,7.77-7.77s-3.48-7.77-7.77-7.77s-7.77,3.48-7.77,7.77S75.55,66.07,79.83,66.07z
		 M79.83,55.72c1.43,0,2.59,1.16,2.59,2.59c0,1.43-1.16,2.59-2.59,2.59s-2.59-1.16-2.59-2.59C77.24,56.88,78.4,55.72,79.83,55.72z"
		/>
	<path class="st8" d="M59.12,66.07c4.28,0,7.77-3.48,7.77-7.77s-3.48-7.77-7.77-7.77s-7.77,3.48-7.77,7.77S54.84,66.07,59.12,66.07z
		 M59.12,55.72c1.43,0,2.59,1.16,2.59,2.59c0,1.43-1.16,2.59-2.59,2.59c-1.43,0-2.59-1.16-2.59-2.59
		C56.53,56.88,57.69,55.72,59.12,55.72z"/>
	<path class="st8" d="M38.41,66.07c4.28,0,7.77-3.48,7.77-7.77s-3.48-7.77-7.77-7.77s-7.77,3.48-7.77,7.77S34.13,66.07,38.41,66.07z
		 M38.41,55.72c1.43,0,2.59,1.16,2.59,2.59c0,1.43-1.16,2.59-2.59,2.59c-1.43,0-2.59-1.16-2.59-2.59
		C35.83,56.88,36.99,55.72,38.41,55.72z"/>
	<path class="st8" d="M194.41,19.48H22.88c-1.43,0-2.59,1.16-2.59,2.59V193.6c0,1.43,1.16,2.59,2.59,2.59h171.53
		c1.43,0,2.59-1.16,2.59-2.59V22.07C197,20.64,195.84,19.48,194.41,19.48z M25.47,24.66h145.64v15.53H25.47V24.66z M191.82,191.01
		H25.47V76.43h166.35V191.01z M191.82,71.25H25.47V45.37h166.35V71.25z M191.82,40.19h-15.53V24.66h15.53V40.19z"/>
	<path class="st8" d="M95.36,66.07h88.7c1.43,0,2.59-1.16,2.59-2.59V53.13c0-1.43-1.16-2.59-2.59-2.59h-88.7
		c-1.43,0-2.59,1.16-2.59,2.59v10.35C92.77,64.92,93.93,66.07,95.36,66.07z M97.95,55.72h83.52v5.18H97.95V55.72z"/>
	<path class="st8" d="M33.24,185.83h150.82c1.43,0,2.59-1.16,2.59-2.59V84.19c0-1.43-1.16-2.59-2.59-2.59H33.24
		c-1.43,0-2.59,1.16-2.59,2.59v44.35c0,1.43,1.16,2.59,2.59,2.59c1.43,0,2.59-1.16,2.59-2.59V86.78h145.64v93.87H35.83V138.9
		c0-1.43-1.16-2.59-2.59-2.59c-1.43,0-2.59,1.16-2.59,2.59v44.35C30.65,184.68,31.81,185.83,33.24,185.83z"/>
</g>
</svg>
