<?xml version="1.0" encoding="utf-8"?>
<!-- Generator: Adobe Illustrator 24.0.2, SVG Export Plug-In . SVG Version: 6.00 Build 0)  -->
<svg version="1.1" id="Capa_1" xmlns="http://www.w3.org/2000/svg" xmlns:xlink="http://www.w3.org/1999/xlink" x="0px" y="0px"
	 viewBox="0 0 69 69" style="enable-background:new 0 0 69 69;" xml:space="preserve">
<style type="text/css">
	.st0{fill:#5F27A4;}
	.st1{fill:#5F27A4;}
	.st2{fill:none;}
	.st3{fill:#5F27A4;}
	.st4{fill:#EEEEEC;}
	.st5{clip-path:url(#SVGID_2_);}
	.st6{fill:#4D4D4D;}
	.st7{fill:#222221;}
	.st8{fill:#FFFFFF;}
	.st9{fill:none;stroke:#999999;stroke-miterlimit:10;}
	.st10{fill:none;stroke:#F15A24;stroke-width:8;stroke-linecap:round;stroke-linejoin:round;stroke-miterlimit:10;}
</style>
<path class="st3" d="M60.49,23.6l-16.18-7.67l-2.18-2.18l-2.04-2.18c0,0-0.01-0.01-0.01-0.01c-0.08-0.08-0.17-0.14-0.27-0.19
	c-0.02-0.01-0.04-0.02-0.07-0.03c-0.11-0.04-0.22-0.07-0.33-0.07H28.63c-0.09,0-0.18,0.02-0.27,0.04c-0.02,0.01-0.03,0.01-0.05,0.02
	c-0.02,0.01-0.04,0.02-0.06,0.03c-0.1,0.04-0.19,0.1-0.27,0.18c0,0,0,0-0.01,0l-4.54,4.54L7.58,23.01
	c-0.47,0.21-0.69,0.75-0.48,1.22l4.37,10.2c0.1,0.24,0.29,0.42,0.54,0.51c0.24,0.09,0.51,0.07,0.74-0.04l5.06-2.53v26.16
	c0,0.51,0.42,0.93,0.93,0.93h30.29c0.51,0,0.93-0.41,0.93-0.92l0.27-26.09l4.74,2.71c0.23,0.13,0.49,0.16,0.74,0.08
	c0.25-0.08,0.45-0.26,0.56-0.49l4.66-9.9C61.15,24.37,60.95,23.82,60.49,23.6z M33.95,20.05l-3.75-6.91h7.5L33.95,20.05z
	 M28.39,13.77l4.43,8.61l-3.19,5.74l-4.56-11.04L28.39,13.77z M39.58,13.84l1.2,1.2l2,2.14l-4.52,10.94l-3.26-5.86L39.58,13.84z
	 M55.02,33.04l-5.24-3c-0.29-0.16-0.64-0.16-0.93,0c-0.29,0.16-0.46,0.47-0.47,0.8L48.1,57.59H19.66V30.85
	c0-0.32-0.17-0.62-0.44-0.79c-0.28-0.17-0.62-0.18-0.91-0.04l-5.52,2.76l-3.62-8.44l14.3-6.24l5.17,12.52
	c0.14,0.33,0.45,0.55,0.81,0.57c0.02,0,0.04,0,0.05,0c0.34,0,0.65-0.18,0.81-0.48l3.63-6.54l3.63,6.54c0.17,0.3,0.48,0.48,0.81,0.48
	c0.02,0,0.04,0,0.05,0c0.36-0.02,0.67-0.24,0.81-0.57l5.19-12.56l14.41,6.83L55.02,33.04z"/>
</svg>
