<?xml version="1.0" encoding="utf-8"?>
<!-- Generator: Adobe Illustrator 24.0.2, SVG Export Plug-In . SVG Version: 6.00 Build 0)  -->
<svg version="1.1" id="Capa_1" xmlns="http://www.w3.org/2000/svg" xmlns:xlink="http://www.w3.org/1999/xlink" x="0px" y="0px"
	 viewBox="0 0 216 216" style="enable-background:new 0 0 216 216;" xml:space="preserve">
<style type="text/css">
	.st0{fill:url(#SVGID_1_);}
	.st1{opacity:0.69;fill:none;stroke:#4D4D4D;stroke-width:3;stroke-miterlimit:10;}
	.st2{opacity:0.69;fill:none;stroke:#4D4D4D;stroke-width:3;stroke-linecap:round;stroke-linejoin:round;stroke-miterlimit:10;}
	.st3{opacity:0.6;fill:none;stroke:#4D4D4D;stroke-width:3;stroke-linecap:round;stroke-linejoin:round;stroke-miterlimit:10;}
	.st4{fill:none;}
	.st5{fill:url(#SVGID_2_);}
	.st6{opacity:0.05;}
	.st7{clip-path:url(#SVGID_4_);}
	.st8{fill:#5F27A4;}
	.st9{fill:url(#SVGID_5_);}
	.st10{clip-path:url(#SVGID_7_);}
	.st11{fill:url(#SVGID_8_);}
	.st12{fill:#3C3C3B;}
	.st13{fill:url(#SVGID_9_);}
	.st14{fill:url(#SVGID_10_);}
	.st15{fill:url(#SVGID_11_);}
	.st16{fill:url(#SVGID_12_);}
	.st17{fill:url(#SVGID_13_);}
	.st18{fill:url(#SVGID_14_);}
	.st19{fill:url(#SVGID_15_);}
	.st20{fill:url(#SVGID_16_);}
	.st21{fill:url(#SVGID_17_);}
	.st22{fill:url(#SVGID_18_);}
	.st23{fill:url(#SVGID_19_);}
	.st24{fill:url(#SVGID_20_);}
	.st25{fill:url(#SVGID_21_);}
	.st26{fill:url(#SVGID_22_);}
	.st27{fill:url(#SVGID_23_);}
	.st28{fill:url(#SVGID_24_);}
	.st29{fill:url(#SVGID_25_);}
	.st30{fill:url(#SVGID_26_);}
	.st31{fill:url(#SVGID_27_);}
	.st32{fill:url(#SVGID_28_);}
	.st33{fill:url(#SVGID_29_);}
	.st34{fill:url(#SVGID_30_);}
	.st35{fill:url(#SVGID_31_);}
	.st36{fill:url(#SVGID_32_);}
	.st37{fill:url(#SVGID_33_);}
	.st38{fill:url(#SVGID_34_);}
	.st39{fill:url(#SVGID_35_);}
	.st40{fill:url(#SVGID_36_);}
	.st41{fill:url(#SVGID_37_);}
	.st42{fill:url(#SVGID_38_);}
	.st43{fill:url(#SVGID_39_);}
	.st44{fill:url(#SVGID_40_);}
	.st45{fill:url(#SVGID_41_);}
	.st46{fill:url(#SVGID_42_);}
	.st47{fill:url(#SVGID_43_);}
	.st48{fill:url(#SVGID_44_);}
	.st49{fill:url(#SVGID_45_);}
	.st50{fill:url(#SVGID_46_);}
	.st51{fill:url(#SVGID_47_);}
	.st52{fill:url(#SVGID_48_);}
	.st53{fill:url(#SVGID_49_);}
	.st54{fill:url(#SVGID_50_);}
	.st55{fill:url(#SVGID_51_);}
	.st56{fill:url(#SVGID_52_);}
	.st57{fill:url(#SVGID_53_);}
	.st58{fill:url(#SVGID_54_);}
	.st59{fill:url(#SVGID_55_);}
	.st60{fill:url(#SVGID_56_);}
	.st61{fill:url(#SVGID_57_);}
	.st62{fill:url(#SVGID_58_);}
	.st63{fill:url(#SVGID_59_);}
	.st64{fill:url(#SVGID_60_);}
	.st65{fill:url(#SVGID_61_);}
	.st66{fill:url(#SVGID_62_);}
	.st67{fill:#B3B3B3;}
	.st68{fill:#FFFFFF;}
	.st69{fill:#471D7B;}
	.st70{fill:#E8E6EC;stroke:#999999;stroke-miterlimit:10;}
	.st71{fill:url(#SVGID_63_);}
	.st72{fill:#4D4D4D;}
	.st73{fill:#E6E6E6;}
	.st74{fill:#FFD800;}
	.st75{fill:#C2820F;}
</style>
<g>
	<g>
		<path class="st8" d="M161.06,28.28c-0.91-1.57-2.37-2.7-4.12-3.17l-6.56-1.76c-1.75-0.47-3.58-0.23-5.15,0.68
			c-1.57,0.91-2.7,2.37-3.17,4.12l-8.63,32.21c-4.91,1.94-9.49,5.44-13.63,10.45c-4.47,5.41-7.3,11.24-8.63,14.37h-5.58
			c-1.33-3.12-4.16-8.96-8.63-14.37c-4.14-5.01-8.73-8.51-13.63-10.45l-8.63-32.21c-0.47-1.75-1.59-3.21-3.17-4.12
			c-1.57-0.91-3.4-1.15-5.15-0.68l-6.56,1.76c-1.75,0.47-3.21,1.59-4.12,3.17c-0.91,1.57-1.15,3.4-0.68,5.15l7.79,29.09
			c-6.24,9.73-7.95,20.18-4.65,28.89c1.8,4.75,4.99,8.54,9.08,10.96l2.03,11.94c0.2,1.2,1.04,2.2,2.19,2.62
			c5.4,1.97,13.14,3.69,21.24,4.74c0.15,0.02,0.29,0.03,0.44,0.03c1.68,0,3.14-1.25,3.36-2.96c0.24-1.86-1.07-3.56-2.93-3.8
			c-6.72-0.87-13.13-2.21-17.94-3.75l-1.05-6.16c1.87,0.34,3.81,0.51,5.76,0.51c4.29,0,8.67-0.82,12.69-2.42
			c6.13-2.44,10.52-6.34,12.64-11.13h5.41c2.12,4.79,6.51,8.69,12.64,11.13c4.02,1.6,8.4,2.42,12.69,2.42
			c1.95,0,3.89-0.17,5.76-0.51l-1.05,6.16c-4.81,1.54-11.22,2.89-17.94,3.76c-1.86,0.24-3.17,1.94-2.93,3.8
			c0.22,1.71,1.68,2.96,3.36,2.96c0.15,0,0.29-0.01,0.44-0.03c8.1-1.05,15.85-2.77,21.25-4.74c1.15-0.42,1.98-1.42,2.19-2.62
			l2.03-11.94c4.09-2.41,7.28-6.21,9.08-10.95c3.3-8.71,1.59-19.16-4.65-28.89l7.79-29.08C162.22,31.69,161.97,29.86,161.06,28.28
			L161.06,28.28z M68.13,29.92l7.7,28.73c-2.26-0.17-4.57-0.04-6.93,0.39l-7.33-27.36L68.13,29.92z M90.52,96.81
			c-5.07,2.02-11.09,2.48-16.09,1.24c-4.62-1.15-8.15-4.36-9.92-9.04c-2.54-6.71-1.04-15.02,4.1-22.95
			c8.53-2.15,16.26,0.87,23.01,8.97c4.44,5.33,7.12,11.33,8.07,13.67C98.41,92.05,95.13,94.97,90.52,96.81L90.52,96.81z
			 M152.25,89.01c-1.77,4.68-5.29,7.89-9.92,9.04c-5,1.24-11.02,0.78-16.09-1.24c-4.61-1.84-7.89-4.75-9.17-8.11
			c2.06-5.08,12.28-27.35,31.08-22.65C153.29,73.99,154.79,82.3,152.25,89.01z M147.85,59.04c-2.35-0.43-4.66-0.56-6.93-0.39
			l7.7-28.73l6.56,1.76L147.85,59.04z"/>
		<path class="st8" d="M145.18,143.15c-11.65,2.24-23.69,3.33-36.8,3.33c-13.11,0-25.15-1.09-36.8-3.33
			c-1.32-0.26-2.67,0.3-3.43,1.4c-3.21,4.63-6.59,13.39-6.86,21.16c-0.06,1.71,1.16,3.19,2.84,3.47
			c16.17,2.65,26.18,10.78,29.76,24.15c0.31,1.17,1.23,2.09,2.4,2.4c3.96,1.06,7.3,1.26,12.09,1.26c4.78,0,8.13-0.2,12.09-1.26
			c1.17-0.31,2.09-1.23,2.4-2.4c3.58-13.37,13.6-21.5,29.76-24.15c1.69-0.28,2.9-1.76,2.84-3.47c-0.27-7.78-3.66-16.53-6.86-21.16
			C147.85,143.45,146.5,142.89,145.18,143.15L145.18,143.15z M116.89,189.6c-2.54,0.5-5.03,0.61-8.51,0.61s-5.96-0.1-8.51-0.61
			c-4.45-13.94-15.29-23.05-31.54-26.53c0.66-4.67,2.43-9.5,4.27-12.82c11.36,2.04,23.09,3.03,35.77,3.03
			c12.69,0,24.42-0.99,35.77-3.03c1.84,3.32,3.61,8.15,4.27,12.82C132.17,166.55,121.34,175.66,116.89,189.6z"/>
		<path class="st8" d="M111.78,119.34c0-1.88-1.52-3.4-3.4-3.4h0c-1.88,0-3.39,1.52-3.39,3.4s1.52,3.4,3.4,3.4
			S111.78,121.22,111.78,119.34z"/>
	</g>
</g>
</svg>
