<?xml version="1.0" encoding="utf-8"?>
<!-- Generator: Adobe Illustrator 24.0.2, SVG Export Plug-In . SVG Version: 6.00 Build 0)  -->
<svg version="1.1" id="Capa_1" xmlns="http://www.w3.org/2000/svg" xmlns:xlink="http://www.w3.org/1999/xlink" x="0px" y="0px"
	 viewBox="0 0 216 216" style="enable-background:new 0 0 216 216;" xml:space="preserve">
<style type="text/css">
	.st0{fill:url(#SVGID_1_);}
	.st1{opacity:0.69;fill:none;stroke:#4D4D4D;stroke-width:3;stroke-miterlimit:10;}
	.st2{opacity:0.69;fill:none;stroke:#4D4D4D;stroke-width:3;stroke-linecap:round;stroke-linejoin:round;stroke-miterlimit:10;}
	.st3{opacity:0.6;fill:none;stroke:#4D4D4D;stroke-width:3;stroke-linecap:round;stroke-linejoin:round;stroke-miterlimit:10;}
	.st4{fill:none;}
	.st5{fill:url(#SVGID_2_);}
	.st6{opacity:0.05;}
	.st7{clip-path:url(#SVGID_4_);}
	.st8{fill:#5F27A4;}
	.st9{fill:url(#SVGID_5_);}
	.st10{clip-path:url(#SVGID_7_);}
	.st11{fill:url(#SVGID_8_);}
	.st12{fill:#3C3C3B;}
	.st13{fill:url(#SVGID_9_);}
	.st14{fill:url(#SVGID_10_);}
	.st15{fill:url(#SVGID_11_);}
	.st16{fill:url(#SVGID_12_);}
	.st17{fill:url(#SVGID_13_);}
	.st18{fill:url(#SVGID_14_);}
	.st19{fill:url(#SVGID_15_);}
	.st20{fill:url(#SVGID_16_);}
	.st21{fill:url(#SVGID_17_);}
	.st22{fill:url(#SVGID_18_);}
	.st23{fill:url(#SVGID_19_);}
	.st24{fill:url(#SVGID_20_);}
	.st25{fill:url(#SVGID_21_);}
	.st26{fill:url(#SVGID_22_);}
	.st27{fill:url(#SVGID_23_);}
	.st28{fill:url(#SVGID_24_);}
	.st29{fill:url(#SVGID_25_);}
	.st30{fill:url(#SVGID_26_);}
	.st31{fill:url(#SVGID_27_);}
	.st32{fill:url(#SVGID_28_);}
	.st33{fill:url(#SVGID_29_);}
	.st34{fill:url(#SVGID_30_);}
	.st35{fill:url(#SVGID_31_);}
	.st36{fill:url(#SVGID_32_);}
	.st37{fill:url(#SVGID_33_);}
	.st38{fill:url(#SVGID_34_);}
	.st39{fill:url(#SVGID_35_);}
	.st40{fill:url(#SVGID_36_);}
	.st41{fill:url(#SVGID_37_);}
	.st42{fill:url(#SVGID_38_);}
	.st43{fill:url(#SVGID_39_);}
	.st44{fill:url(#SVGID_40_);}
	.st45{fill:url(#SVGID_41_);}
	.st46{fill:url(#SVGID_42_);}
	.st47{fill:url(#SVGID_43_);}
	.st48{fill:url(#SVGID_44_);}
	.st49{fill:url(#SVGID_45_);}
	.st50{fill:url(#SVGID_46_);}
	.st51{fill:url(#SVGID_47_);}
	.st52{fill:url(#SVGID_48_);}
	.st53{fill:url(#SVGID_49_);}
	.st54{fill:url(#SVGID_50_);}
	.st55{fill:url(#SVGID_51_);}
	.st56{fill:url(#SVGID_52_);}
	.st57{fill:url(#SVGID_53_);}
	.st58{fill:url(#SVGID_54_);}
	.st59{fill:url(#SVGID_55_);}
	.st60{fill:url(#SVGID_56_);}
	.st61{fill:url(#SVGID_57_);}
	.st62{fill:url(#SVGID_58_);}
	.st63{fill:url(#SVGID_59_);}
	.st64{fill:url(#SVGID_60_);}
	.st65{fill:url(#SVGID_61_);}
	.st66{fill:url(#SVGID_62_);}
	.st67{fill:#B3B3B3;}
	.st68{fill:#FFFFFF;}
	.st69{fill:#471D7B;}
	.st70{fill:#E8E6EC;stroke:#999999;stroke-miterlimit:10;}
	.st71{fill:url(#SVGID_63_);}
	.st72{fill:#4D4D4D;}
	.st73{fill:#E6E6E6;}
	.st74{fill:#FFD800;}
	.st75{fill:#C2820F;}
</style>
<g>
	<path class="st8" d="M98.16,109.95H97.9v-9.45c0-2.37-1.93-4.3-4.29-4.3H90.1V46.49c0-0.01,0-0.02,0-0.03
		c0.04-1.58-0.19-3.3-0.71-5.11c-1.28-4.51-4.2-9.2-8.22-13.22c-5.59-5.59-12.31-8.93-17.96-8.93c0,0-0.01,0-0.01,0
		c-2.98,0-5.51,0.96-7.32,2.77c-1.81,1.81-2.77,4.34-2.77,7.33c0,0.14,0,0.29,0.01,0.43l0.04,66.47H49.6c-2.37,0-4.29,1.93-4.29,4.3
		v9.45h-0.27c-5.2,0-9.43,4.24-9.43,9.44c0,4.31,2.91,7.96,6.87,9.08v61.12c0,2.43,1.79,4.41,3.99,4.41h50.26
		c2.2,0,3.98-1.98,3.98-4.41v-61.12c3.97-1.12,6.88-4.76,6.88-9.08C107.6,114.19,103.37,109.95,98.16,109.95L98.16,109.95z
		 M59.5,25.59C59.5,25.59,59.5,25.59,59.5,25.59c0.84-0.84,2.09-1.27,3.7-1.27h0.01c4.2,0,9.83,2.92,14.34,7.43
		c7.13,7.13,8.97,15.24,6.16,18.05c-1.37,1.37-3.94,1.64-7.05,0.76c-3.68-1.05-7.58-3.5-11-6.92c-4.52-4.51-7.43-10.14-7.43-14.34
		C58.23,27.68,58.66,26.43,59.5,25.59L59.5,25.59z M84.97,55.12V96.2h-26.7l-0.03-53.37c1.11,1.52,2.38,3.01,3.8,4.43
		c4.02,4.02,8.71,6.95,13.22,8.23c1.68,0.48,3.27,0.71,4.76,0.71C81.86,56.2,83.53,55.84,84.97,55.12z M50.43,101.32h5.29h0h37.07
		v8.63H50.43V101.32z M47.6,188.88v-14.16h48v14.16H47.6z M98.16,123.7H76.34c-1.41,0-2.56,1.15-2.56,2.56
		c0,1.41,1.15,2.56,2.56,2.56H95.6v40.78h-48v-40.78h18.24c1.41,0,2.56-1.15,2.56-2.56c0-1.41-1.15-2.56-2.56-2.56H45.04
		c-2.38,0-4.31-1.93-4.31-4.31c0-2.38,1.93-4.32,4.31-4.32h2.83h47.48h2.82c2.38,0,4.32,1.94,4.32,4.32
		C102.48,121.77,100.54,123.7,98.16,123.7L98.16,123.7z"/>
	<path class="st8" d="M162.55,84.37h-22.99c-9.72,0-17.63,7.9-17.63,17.62v17.58v15.26v54.89c0,2.36,1.92,4.27,4.27,4.27h49.7
		c2.35,0,4.26-1.92,4.26-4.27v-23.61c0-1.41-1.15-2.56-2.56-2.56c-1.41,0-2.56,1.15-2.56,2.56v22.76h-48V137.4h48v16.89
		c0,1.41,1.15,2.56,2.56,2.56s2.56-1.15,2.56-2.56v-19.45v-15.26v-17.58C180.17,92.28,172.27,84.37,162.55,84.37L162.55,84.37z
		 M139.56,89.5h22.99c6.89,0,12.5,5.61,12.5,12.5v15.02h-48v-15.02C127.05,95.1,132.66,89.5,139.56,89.5L139.56,89.5z
		 M127.05,132.28v-10.14h48v10.14H127.05z"/>
</g>
</svg>
