<?xml version="1.0" encoding="utf-8"?>
<!-- Generator: Adobe Illustrator 24.0.2, SVG Export Plug-In . SVG Version: 6.00 Build 0)  -->
<svg version="1.1" id="Capa_1" xmlns="http://www.w3.org/2000/svg" xmlns:xlink="http://www.w3.org/1999/xlink" x="0px" y="0px"
	 viewBox="0 0 216 216" style="enable-background:new 0 0 216 216;" xml:space="preserve">
<style type="text/css">
	.st0{fill:url(#SVGID_1_);}
	.st1{opacity:0.69;fill:none;stroke:#4D4D4D;stroke-width:3;stroke-miterlimit:10;}
	.st2{opacity:0.69;fill:none;stroke:#4D4D4D;stroke-width:3;stroke-linecap:round;stroke-linejoin:round;stroke-miterlimit:10;}
	.st3{opacity:0.6;fill:none;stroke:#4D4D4D;stroke-width:3;stroke-linecap:round;stroke-linejoin:round;stroke-miterlimit:10;}
	.st4{fill:none;}
	.st5{fill:url(#SVGID_2_);}
	.st6{opacity:0.05;}
	.st7{clip-path:url(#SVGID_4_);}
	.st8{fill:#5F27A4;}
	.st9{fill:url(#SVGID_5_);}
	.st10{clip-path:url(#SVGID_7_);}
	.st11{fill:url(#SVGID_8_);}
	.st12{fill:#3C3C3B;}
	.st13{fill:url(#SVGID_9_);}
	.st14{fill:url(#SVGID_10_);}
	.st15{fill:url(#SVGID_11_);}
	.st16{fill:url(#SVGID_12_);}
	.st17{fill:url(#SVGID_13_);}
	.st18{fill:url(#SVGID_14_);}
	.st19{fill:url(#SVGID_15_);}
	.st20{fill:url(#SVGID_16_);}
	.st21{fill:url(#SVGID_17_);}
	.st22{fill:url(#SVGID_18_);}
	.st23{fill:url(#SVGID_19_);}
	.st24{fill:url(#SVGID_20_);}
	.st25{fill:url(#SVGID_21_);}
	.st26{fill:url(#SVGID_22_);}
	.st27{fill:url(#SVGID_23_);}
	.st28{fill:url(#SVGID_24_);}
	.st29{fill:url(#SVGID_25_);}
	.st30{fill:url(#SVGID_26_);}
	.st31{fill:url(#SVGID_27_);}
	.st32{fill:url(#SVGID_28_);}
	.st33{fill:url(#SVGID_29_);}
	.st34{fill:url(#SVGID_30_);}
	.st35{fill:url(#SVGID_31_);}
	.st36{fill:url(#SVGID_32_);}
	.st37{fill:url(#SVGID_33_);}
	.st38{fill:url(#SVGID_34_);}
	.st39{fill:url(#SVGID_35_);}
	.st40{fill:url(#SVGID_36_);}
	.st41{fill:url(#SVGID_37_);}
	.st42{fill:url(#SVGID_38_);}
	.st43{fill:url(#SVGID_39_);}
	.st44{fill:url(#SVGID_40_);}
	.st45{fill:url(#SVGID_41_);}
	.st46{fill:url(#SVGID_42_);}
	.st47{fill:url(#SVGID_43_);}
	.st48{fill:url(#SVGID_44_);}
	.st49{fill:url(#SVGID_45_);}
	.st50{fill:url(#SVGID_46_);}
	.st51{fill:url(#SVGID_47_);}
	.st52{fill:url(#SVGID_48_);}
	.st53{fill:url(#SVGID_49_);}
	.st54{fill:url(#SVGID_50_);}
	.st55{fill:url(#SVGID_51_);}
	.st56{fill:url(#SVGID_52_);}
	.st57{fill:url(#SVGID_53_);}
	.st58{fill:url(#SVGID_54_);}
	.st59{fill:url(#SVGID_55_);}
	.st60{fill:url(#SVGID_56_);}
	.st61{fill:url(#SVGID_57_);}
	.st62{fill:url(#SVGID_58_);}
	.st63{fill:url(#SVGID_59_);}
	.st64{fill:url(#SVGID_60_);}
	.st65{fill:url(#SVGID_61_);}
	.st66{fill:url(#SVGID_62_);}
	.st67{fill:#B3B3B3;}
	.st68{fill:#FFFFFF;}
	.st69{fill:#471D7B;}
	.st70{fill:#E8E6EC;stroke:#999999;stroke-miterlimit:10;}
	.st71{fill:url(#SVGID_63_);}
	.st72{fill:#4D4D4D;}
	.st73{fill:#E6E6E6;}
	.st74{fill:#FFD800;}
	.st75{fill:#C2820F;}
</style>
<g>
	<path class="st8" d="M14.97,106.32c0.12-1,0.19-2,0.36-2.98c1.47-8.23,6.29-13.51,14.17-16.09c0.12-0.04,0.25-0.1,0.5-0.18
		c0-0.36,0-0.76,0-1.15c0.07-3.9-0.14-7.84,0.29-11.7C31.4,64.31,36.08,56.24,43.83,50c6.88-5.55,14.82-8.13,23.67-8.12
		c27.33,0.03,54.65-0.1,81.98,0.06c12.58,0.07,22.61,5.54,29.95,15.75c4.73,6.58,6.82,14.02,6.66,22.1
		c-0.04,2.21,0.01,4.41-0.03,6.62c-0.01,0.61,0.24,0.81,0.76,0.96c8.88,2.65,14.78,10.97,14.09,20.24
		c-0.5,6.76-4.03,11.73-9.76,15.21c-0.32,0.19-0.64,0.43-0.99,0.53c-1.54,0.39-2.1,1.55-2.61,2.91c-2.68,7.13-5.41,14.24-8.16,21.35
		c-0.99,2.54-2.18,4.97-4.22,6.87c-0.47,0.44-0.18,0.76,0.01,1.15c2.03,4.09,4.07,8.19,6.08,12.28c3.47,7.04-1.17,15.09-9.01,15.41
		c-4.36,0.18-7.8-1.75-9.83-5.68c-2.69-5.21-5.22-10.49-7.79-15.77c-0.33-0.68-0.71-0.89-1.46-0.89
		c-11.58,0.03-23.14,0.01-34.72,0.01c-11.67,0-23.35,0.01-35.02,0.01c-6.86,0-13.71,0-20.57-0.04c-0.81,0-1.17,0.25-1.51,0.97
		c-2.53,5.22-5.08,10.42-7.69,15.6c-3.55,7.04-13.45,7.86-18.03,1.44c-2.47-3.46-2.75-7.22-0.87-11.06c2-4.11,4.04-8.22,6.09-12.3
		c0.31-0.6,0.24-0.93-0.22-1.37c-2.32-2.23-3.43-5.18-4.55-8.08c-2.18-5.62-4.33-11.26-6.5-16.88c-0.54-1.39-1.12-2.76-1.6-4.18
		c-0.24-0.71-0.64-1.08-1.3-1.39c-5.87-2.76-9.73-7.23-11.22-13.6c-0.28-1.17-0.36-2.39-0.53-3.58
		C14.97,106.45,14.97,106.39,14.97,106.32z M178.59,86.56c0-2.91,0.08-5.98-0.01-9.02c-0.24-7.29-2.89-13.63-7.88-18.91
		c-5.95-6.29-13.35-9.3-22.01-9.29c-27.15,0.03-54.3-0.01-81.45,0.04c-2.32,0-4.71,0.19-6.95,0.74c-9.74,2.35-16.62,8.2-20.65,17.39
		c-2.72,6.19-2.19,12.73-2.18,19.25c0.33,0.07,0.62,0.14,0.93,0.19c6.37,1.33,10.98,4.97,13.87,10.74c1.14,2.26,2.08,4.62,3.12,6.94
		c1.22,2.75,2.46,5.5,3.75,8.4c32.63-10.19,65.27-10.54,97.83-0.03c2.22-4.98,4.34-9.77,6.5-14.55c2.01-4.47,5.15-7.88,9.62-9.95
		C174.82,87.7,176.73,87.2,178.59,86.56z M55.47,122.88c-0.11-0.18-0.22-0.31-0.29-0.46c-1.96-4.32-3.91-8.63-5.87-12.95
		c-0.99-2.19-2.18-4.32-2.9-6.59c-1.86-5.94-7.32-9.62-13.41-8.77c-5.54,0.76-10.04,5.51-10.44,11.04
		c-0.43,5.82,3.04,11.01,8.68,12.58c1.6,0.44,2.32,1.21,2.89,2.71c3.26,8.61,6.68,17.17,9.99,25.76c0.71,1.82,1.79,3.3,3.41,4.3
		c1.22,0.76,2.58,1.32,3.93,1.89c3.47,1.46,7.18,1.17,10.79,1.17c28.34,0.08,56.69,0.06,85.03,0.04c3.71,0,7.41-0.03,11.12-0.08
		c3.07-0.04,5.97-0.81,8.72-2.15c2.21-1.08,3.9-2.68,4.8-5.02c1.15-3,2.33-6,3.5-8.99c2.37-6.14,4.73-12.27,7.13-18.38
		c0.14-0.35,0.6-0.71,0.97-0.79c6.93-1.65,10.99-7.47,9.86-14.14c-0.85-4.98-5.02-9.06-10.12-9.87c-5.18-0.82-10.34,1.75-12.59,6.5
		c-2.42,5.11-4.66,10.31-6.98,15.46c-1.01,2.23-2.01,4.48-3,6.68c-1.57-0.83-2.96-1.9-4.51-2.32c-6.3-1.72-12.63-3.41-19-4.82
		c-7.8-1.72-15.73-2.58-23.71-2.91c-7.95-0.33-15.88,0.17-23.78,1.21c-8.18,1.08-16.24,2.72-24.18,4.9
		c-3.32,0.92-6.72,1.68-9.55,3.83C55.8,122.74,55.64,122.8,55.47,122.88z M53.75,160.69c-2.07-0.58-4.07-1.14-6.11-1.72
		c0,0-0.07,0.04-0.1,0.1c-2.08,4.14-4.18,8.26-6.23,12.42c-0.46,0.92-0.42,1.92,0.12,2.83c1.24,2.07,4.19,2.14,5.36,0.03
		c1.5-2.72,2.85-5.54,4.26-8.3C51.96,164.25,52.85,162.47,53.75,160.69z M162.3,160.69c2.36,4.64,4.68,9.27,7.09,13.85
		c0.72,1.36,2.6,1.69,4.04,0.9c1.43-0.79,2.05-2.42,1.32-3.93c-2.07-4.23-4.19-8.43-6.26-12.58
		C166.43,159.54,164.46,160.1,162.3,160.69z"/>
</g>
</svg>
