<?xml version="1.0" encoding="utf-8"?>
<!-- Generator: Adobe Illustrator 24.0.2, SVG Export Plug-In . SVG Version: 6.00 Build 0)  -->
<svg version="1.1" id="Capa_1" xmlns="http://www.w3.org/2000/svg" xmlns:xlink="http://www.w3.org/1999/xlink" x="0px" y="0px"
	 viewBox="0 0 216 216" style="enable-background:new 0 0 216 216;" xml:space="preserve">
<style type="text/css">
	.st0{fill:url(#SVGID_1_);}
	.st1{opacity:0.69;fill:none;stroke:#4D4D4D;stroke-width:3;stroke-miterlimit:10;}
	.st2{opacity:0.69;fill:none;stroke:#4D4D4D;stroke-width:3;stroke-linecap:round;stroke-linejoin:round;stroke-miterlimit:10;}
	.st3{opacity:0.6;fill:none;stroke:#4D4D4D;stroke-width:3;stroke-linecap:round;stroke-linejoin:round;stroke-miterlimit:10;}
	.st4{fill:none;}
	.st5{fill:url(#SVGID_2_);}
	.st6{opacity:0.05;}
	.st7{clip-path:url(#SVGID_4_);}
	.st8{fill:#5F27A4;}
	.st9{fill:url(#SVGID_5_);}
	.st10{clip-path:url(#SVGID_7_);}
	.st11{fill:url(#SVGID_8_);}
	.st12{fill:#3C3C3B;}
	.st13{fill:url(#SVGID_9_);}
	.st14{fill:url(#SVGID_10_);}
	.st15{fill:url(#SVGID_11_);}
	.st16{fill:url(#SVGID_12_);}
	.st17{fill:url(#SVGID_13_);}
	.st18{fill:url(#SVGID_14_);}
	.st19{fill:url(#SVGID_15_);}
	.st20{fill:url(#SVGID_16_);}
	.st21{fill:url(#SVGID_17_);}
	.st22{fill:url(#SVGID_18_);}
	.st23{fill:url(#SVGID_19_);}
	.st24{fill:url(#SVGID_20_);}
	.st25{fill:url(#SVGID_21_);}
	.st26{fill:url(#SVGID_22_);}
	.st27{fill:url(#SVGID_23_);}
	.st28{fill:url(#SVGID_24_);}
	.st29{fill:url(#SVGID_25_);}
	.st30{fill:url(#SVGID_26_);}
	.st31{fill:url(#SVGID_27_);}
	.st32{fill:url(#SVGID_28_);}
	.st33{fill:url(#SVGID_29_);}
	.st34{fill:url(#SVGID_30_);}
	.st35{fill:url(#SVGID_31_);}
	.st36{fill:url(#SVGID_32_);}
	.st37{fill:url(#SVGID_33_);}
	.st38{fill:url(#SVGID_34_);}
	.st39{fill:url(#SVGID_35_);}
	.st40{fill:url(#SVGID_36_);}
	.st41{fill:url(#SVGID_37_);}
	.st42{fill:url(#SVGID_38_);}
	.st43{fill:url(#SVGID_39_);}
	.st44{fill:url(#SVGID_40_);}
	.st45{fill:url(#SVGID_41_);}
	.st46{fill:url(#SVGID_42_);}
	.st47{fill:url(#SVGID_43_);}
	.st48{fill:url(#SVGID_44_);}
	.st49{fill:url(#SVGID_45_);}
	.st50{fill:url(#SVGID_46_);}
	.st51{fill:url(#SVGID_47_);}
	.st52{fill:url(#SVGID_48_);}
	.st53{fill:url(#SVGID_49_);}
	.st54{fill:url(#SVGID_50_);}
	.st55{fill:url(#SVGID_51_);}
	.st56{fill:url(#SVGID_52_);}
	.st57{fill:url(#SVGID_53_);}
	.st58{fill:url(#SVGID_54_);}
	.st59{fill:url(#SVGID_55_);}
	.st60{fill:url(#SVGID_56_);}
	.st61{fill:url(#SVGID_57_);}
	.st62{fill:url(#SVGID_58_);}
	.st63{fill:url(#SVGID_59_);}
	.st64{fill:url(#SVGID_60_);}
	.st65{fill:url(#SVGID_61_);}
	.st66{fill:url(#SVGID_62_);}
	.st67{fill:#B3B3B3;}
	.st68{fill:#FFFFFF;}
	.st69{fill:#471D7B;}
	.st70{fill:#E8E6EC;stroke:#999999;stroke-miterlimit:10;}
	.st71{fill:url(#SVGID_63_);}
	.st72{fill:#4D4D4D;}
	.st73{fill:#E6E6E6;}
	.st74{fill:#FFD800;}
	.st75{fill:#C2820F;}
</style>
<g class="st6">
	<defs>
		<path id="SVGID_6_" class="st6" d="M918.57,747.99H335.85c-26.31,0-47.64-21.33-47.64-47.64V-683.36
			c0-26.31,21.33-47.64,47.64-47.64h582.71c26.31,0,47.64,21.33,47.64,47.64V700.35C966.21,726.66,944.88,747.99,918.57,747.99z"/>
	</defs>
	<clipPath id="SVGID_1_">
		<use xlink:href="#SVGID_6_"  style="overflow:visible;"/>
	</clipPath>
	<g style="clip-path:url(#SVGID_1_);">
		<g>
			<g>
				<g>
					<path class="st8" d="M67.51-17.69l-7.54,2.06l-7.24-26.52c0.44-0.02,0.87-0.09,1.3-0.2c3.47-0.95,5.51-4.53,4.57-8
						c-0.03-0.09-0.06-0.18-0.1-0.26l-5.6-10.62c-0.28-0.54-0.91-0.81-1.49-0.65l-3.77,1.03l-1.03-3.77
						c-0.19-0.69-0.91-1.1-1.6-0.91l-10.05,2.74l-0.69-2.51l2.51-0.69c0.69-0.19,1.1-0.91,0.91-1.6l-3.43-12.56
						c-0.19-0.69-0.91-1.1-1.6-0.91l-40.2,10.98c-0.69,0.19-1.1,0.91-0.91,1.6l3.43,12.56c0.19,0.69,0.91,1.1,1.6,0.91l2.51-0.69
						l0.69,2.51l-10.05,2.74c-0.69,0.19-1.1,0.91-0.91,1.6l1.03,3.77l-3.77,1.03c-0.59,0.16-0.99,0.71-0.96,1.32l0.58,11.99
						c0,0.09,0.02,0.19,0.04,0.28c0.95,3.47,4.53,5.51,8,4.57c0.42-0.12,0.83-0.28,1.22-0.49L2.18,0.15l-7.54,2.06
						c-0.69,0.19-1.1,0.91-0.91,1.6l1.37,5.03c0.19,0.69,0.91,1.1,1.6,0.91l72.86-19.9c0.69-0.19,1.1-0.91,0.91-1.6l-1.37-5.03
						C68.92-17.47,68.2-17.88,67.51-17.69z M51.07-59.1l5.04,9.56c0.49,2.05-0.74,4.12-2.77,4.67c-0.66,0.18-1.36,0.18-2.02,0
						c-1.02-0.27-1.89-0.94-2.41-1.86c-0.16-0.28-0.29-0.57-0.37-0.88c-0.01-0.05-0.03-0.09-0.05-0.14l-3.81-9.61L51.07-59.1z
						 M45.68-33.33L33.12-29.9c-0.69,0.19-1.1,0.91-0.91,1.6l5.15,18.84L4.69-0.53l-7.56-27.68c0.38-0.48,0.69-1.01,0.92-1.58
						c2.81,2.22,6.88,1.74,9.09-1.07c0.4-0.51,0.72-1.07,0.96-1.67c2.81,2.22,6.88,1.74,9.09-1.07c0.4-0.51,0.72-1.07,0.96-1.67
						c2.81,2.22,6.88,1.74,9.09-1.07c0.4-0.51,0.72-1.07,0.96-1.67c2.81,2.22,6.88,1.74,9.09-1.07c0.4-0.51,0.72-1.07,0.96-1.67
						c2.81,2.22,6.88,1.73,9.1-1.07c0.4-0.51,0.72-1.07,0.95-1.67c0.49,0.37,1.02,0.67,1.59,0.89l7.56,27.69l-5.03,1.37l-5.15-18.84
						C47.09-33.11,46.38-33.52,45.68-33.33z M45.11-30.47l4.8,17.59l-10.05,2.74l-4.8-17.59L45.11-30.47z M-1.7-33.82l-1.63-10.42
						l7.52-2.05L5.8-36.08c0.01,0.05,0.01,0.1,0.02,0.14c0.09,0.32,0.13,0.65,0.13,0.98c0.02,2.16-1.71,3.92-3.87,3.94
						C0.66-31.01-0.65-31.77-1.35-33C-1.5-33.26-1.62-33.53-1.7-33.82z M8.35-36.56L6.72-46.99l6.41-1.75l2.74,10.05
						c0.09,0.32,0.13,0.65,0.13,0.98c0.02,2.16-1.71,3.92-3.87,3.94c-1.42,0.01-2.73-0.74-3.43-1.98C8.55-36,8.43-36.28,8.35-36.56z
						 M18.38-39.37l-2.74-10.05l7.54-2.06l2.74,10.05c0.09,0.32,0.13,0.65,0.13,0.98c0.02,2.16-1.71,3.92-3.87,3.94
						c-1.42,0.01-2.73-0.74-3.43-1.98C18.59-38.77,18.46-39.06,18.38-39.37z M28.43-42.12l-2.74-10.05l6.41-1.75l3.89,9.81
						c0.08,0.3,0.12,0.61,0.11,0.91c0.02,2.16-1.71,3.92-3.87,3.94c-1.42,0.01-2.73-0.74-3.43-1.98
						C28.64-41.51,28.51-41.81,28.43-42.12z M34.63-54.61l7.52-2.05l3.89,9.81c0.08,0.3,0.12,0.61,0.11,0.91
						c0.02,2.16-1.71,3.92-3.87,3.94c-1.42,0.01-2.73-0.74-3.43-1.98c-0.16-0.28-0.29-0.57-0.37-0.88
						c-0.01-0.05-0.03-0.09-0.05-0.14L34.63-54.61z M-2.87-57.87l-2.74-10.05l37.69-10.29l2.74,10.05L-2.87-57.87z M31.74-64.62
						l0.69,2.51L2.27-53.87l-0.69-2.51L31.74-64.62z M-8.35-48.27l52.76-14.41l0.69,2.51L-7.66-45.76L-8.35-48.27z M-6.97-28.4
						c-2.03,0.56-4.14-0.6-4.76-2.61l-0.52-10.79l6.38-1.74l1.61,10.21c0.01,0.05,0.02,0.09,0.03,0.14
						c0.09,0.32,0.13,0.65,0.13,0.98c0.01,1.04-0.39,2.05-1.13,2.79C-5.7-28.93-6.31-28.58-6.97-28.4z M67.62-12.32L-2.73,6.89
						l-0.69-2.51l70.35-19.21L67.62-12.32z"/>
				</g>
			</g>
		</g>
	</g>
	<g style="clip-path:url(#SVGID_1_);">
		<g>
			<path class="st8" d="M68.29,38.73L11.29,54.29c-0.08,0.02-0.16,0.05-0.23,0.08l-0.56,0.24l-4.53-6.62
				c-0.31-0.45-0.8-0.75-1.35-0.81l-13.09-1.42c-1.03-0.11-1.97,0.64-2.08,1.67c-0.11,1.03,0.64,1.97,1.67,2.08l12.23,1.32
				l24.1,35.18l-0.61,0.42c-0.37,0.25-0.6,0.64-0.63,1.07L25.29,99.1c-0.04,0.47,0.16,0.93,0.52,1.23c0.36,0.3,0.85,0.41,1.3,0.28
				l3.55-0.97l-0.75,1.48c-0.79,1.58-0.98,3.38-0.51,5.07c1.04,3.8,4.97,6.04,8.77,5c3.8-1.04,6.04-4.97,5-8.77
				c-0.46-1.69-1.53-3.15-3.02-4.11l-1.4-0.9l19.77-5.4l-0.75,1.48c-0.79,1.58-0.98,3.38-0.52,5.07c1.04,3.8,4.97,6.04,8.77,5
				s6.04-4.97,5-8.77c-0.46-1.69-1.53-3.15-3.02-4.11l-1.4-0.9l3.98-1.09c0.77-0.21,1.23-1.01,1.01-1.78
				c-0.21-0.77-1.01-1.23-1.78-1.01l-41.5,11.33l0.71-9.01l0.77,0.1c0.26,0.03,0.51,0.02,0.74-0.04l37.15-10.15
				c0.79-0.22,1.35-0.91,1.39-1.74l1.56-35.81c0.03-0.6-0.24-1.18-0.71-1.56C69.49,38.7,68.87,38.57,68.29,38.73z M63.04,92.61
				c2.26-0.62,4.59,0.72,5.21,2.97c0.62,2.26-0.72,4.59-2.97,5.21c-2.26,0.62-4.59-0.72-5.21-2.97
				C59.45,95.57,60.79,93.23,63.04,92.61z M35.18,100.22c2.26-0.62,4.59,0.72,5.21,2.97s-0.72,4.59-2.97,5.21
				c-2.26,0.62-4.59-0.72-5.21-2.97C31.59,103.18,32.92,100.84,35.18,100.22z M12.7,57.82l17.25-4.71l1.95,7.13l-14.78,4.04
				L12.7,57.82z M37.96,82.4l-7.09,1.94l-4.29-6.26l9.49-2.59L37.96,82.4z M35.08,71.84l-10.75,2.94l-4.94-7.22l13.52-3.69
				L35.08,71.84z M54.7,77.82l-13.11,3.58l-1.89-6.92l13.11-3.58L54.7,77.82z M51.82,67.27l-13.11,3.58l-2.18-7.97l13.11-3.58
				L51.82,67.27z M48.65,55.66l-13.11,3.58l-1.95-7.13l13.11-3.58L48.65,55.66z M65.4,74.9l-7.06,1.93l-1.89-6.92l9.27-2.53
				L65.4,74.9z M65.9,63.42l-10.44,2.85l-2.18-7.97l13-3.55L65.9,63.42z M66.45,50.8l-14.16,3.87l-1.95-7.13l16.45-4.49L66.45,50.8z
				"/>
		</g>
		<g>
			<path class="st8" d="M174.02,9.85l-56.99,15.57c-0.08,0.02-0.16,0.05-0.23,0.08l-0.56,0.24l-4.53-6.62
				c-0.31-0.45-0.8-0.75-1.35-0.81l-13.09-1.42c-1.03-0.11-1.97,0.64-2.08,1.67c-0.11,1.03,0.64,1.97,1.67,2.08l12.23,1.32
				l24.1,35.18l-0.61,0.42c-0.37,0.25-0.6,0.64-0.63,1.07l-0.92,11.59c-0.04,0.47,0.16,0.93,0.52,1.23c0.36,0.3,0.85,0.41,1.3,0.28
				l3.55-0.97l-0.75,1.48c-0.79,1.58-0.98,3.38-0.51,5.07c1.04,3.8,4.97,6.04,8.77,5c3.8-1.04,6.04-4.97,5-8.77
				c-0.46-1.69-1.53-3.15-3.02-4.11l-1.4-0.9l19.77-5.4l-0.75,1.48c-0.79,1.58-0.98,3.38-0.52,5.07c1.04,3.8,4.97,6.04,8.77,5
				c3.8-1.04,6.04-4.97,5-8.77c-0.46-1.69-1.53-3.15-3.02-4.11l-1.4-0.9l3.98-1.09c0.77-0.21,1.23-1.01,1.01-1.78
				c-0.21-0.77-1.01-1.23-1.78-1.01l-41.5,11.33l0.71-9.01l0.77,0.1c0.26,0.03,0.51,0.02,0.74-0.04l37.15-10.15
				c0.79-0.22,1.35-0.91,1.39-1.74l1.56-35.81c0.03-0.6-0.24-1.18-0.71-1.56C175.22,9.82,174.6,9.69,174.02,9.85z M168.77,63.74
				c2.26-0.62,4.59,0.72,5.21,2.97c0.62,2.26-0.72,4.59-2.97,5.21c-2.26,0.62-4.59-0.72-5.21-2.97
				C165.18,66.69,166.52,64.35,168.77,63.74z M140.91,71.35c2.26-0.62,4.59,0.72,5.21,2.97c0.62,2.26-0.72,4.59-2.97,5.21
				c-2.26,0.62-4.59-0.72-5.21-2.97C137.32,74.3,138.65,71.96,140.91,71.35z M118.43,28.94l17.25-4.71l1.95,7.13l-14.78,4.04
				L118.43,28.94z M143.69,53.52l-7.09,1.94l-4.29-6.26l9.49-2.59L143.69,53.52z M140.81,42.97l-10.75,2.94l-4.94-7.22l13.52-3.69
				L140.81,42.97z M160.43,48.95l-13.11,3.58l-1.89-6.92l13.11-3.58L160.43,48.95z M157.55,38.39l-13.11,3.58L142.26,34l13.11-3.58
				L157.55,38.39z M154.38,26.78l-13.11,3.58l-1.95-7.13l13.11-3.58L154.38,26.78z M171.13,46.03l-7.06,1.93l-1.89-6.92l9.27-2.53
				L171.13,46.03z M171.63,34.55l-10.44,2.85l-2.18-7.97l13-3.55L171.63,34.55z M172.18,21.92l-14.16,3.87l-1.95-7.13l16.45-4.49
				L172.18,21.92z"/>
		</g>
		<g>
			<path class="st8" d="M279.75-19.02L222.75-3.46c-0.08,0.02-0.16,0.05-0.23,0.08l-0.56,0.24l-4.53-6.62
				c-0.31-0.45-0.8-0.75-1.35-0.81l-13.09-1.42c-1.03-0.11-1.97,0.64-2.08,1.67c-0.11,1.03,0.64,1.97,1.67,2.08l12.23,1.32
				l24.1,35.18l-0.61,0.42c-0.37,0.25-0.6,0.64-0.63,1.07l-0.92,11.59c-0.04,0.47,0.16,0.93,0.52,1.23c0.36,0.3,0.85,0.41,1.3,0.28
				l3.55-0.97l-0.75,1.48c-0.79,1.58-0.98,3.38-0.51,5.07c1.04,3.8,4.97,6.04,8.77,5c3.8-1.04,6.04-4.97,5-8.77
				c-0.46-1.69-1.53-3.15-3.02-4.11l-1.4-0.9l19.77-5.4l-0.75,1.48c-0.79,1.58-0.98,3.38-0.52,5.07c1.04,3.8,4.97,6.04,8.77,5
				c3.8-1.04,6.04-4.97,5-8.77c-0.46-1.69-1.53-3.15-3.02-4.11l-1.4-0.9l3.98-1.09c0.77-0.21,1.23-1.01,1.01-1.78
				c-0.21-0.77-1.01-1.23-1.78-1.01l-41.5,11.33l0.71-9.01l0.77,0.1c0.26,0.03,0.51,0.02,0.74-0.04l37.15-10.15
				c0.79-0.22,1.35-0.91,1.39-1.74l1.56-35.81c0.03-0.6-0.24-1.18-0.71-1.56C280.95-19.05,280.33-19.18,279.75-19.02z M274.5,34.86
				c2.26-0.62,4.59,0.72,5.21,2.97c0.62,2.26-0.72,4.59-2.97,5.21c-2.26,0.62-4.59-0.72-5.21-2.97
				C270.91,37.81,272.25,35.48,274.5,34.86z M246.64,42.47c2.26-0.62,4.59,0.72,5.21,2.97s-0.72,4.59-2.97,5.21
				c-2.26,0.62-4.59-0.72-5.21-2.97C243.05,45.42,244.38,43.09,246.64,42.47z M224.16,0.06l17.25-4.71l1.95,7.13l-14.78,4.04
				L224.16,0.06z M249.42,24.65l-7.09,1.94l-4.29-6.26l9.49-2.59L249.42,24.65z M246.54,14.09l-10.75,2.94l-4.94-7.22l13.52-3.69
				L246.54,14.09z M266.16,20.07l-13.11,3.58l-1.89-6.92l13.11-3.58L266.16,20.07z M263.28,9.52l-13.11,3.58l-2.18-7.97l13.11-3.58
				L263.28,9.52z M260.11-2.09L247,1.49l-1.95-7.13l13.11-3.58L260.11-2.09z M276.86,17.15l-7.06,1.93l-1.89-6.92l9.27-2.53
				L276.86,17.15z M277.36,5.67l-10.44,2.85l-2.18-7.97l13-3.55L277.36,5.67z M277.91-6.95l-14.16,3.87l-1.95-7.13l16.45-4.49
				L277.91-6.95z"/>
		</g>
		<g>
			<path class="st8" d="M55.11,168.48c-1.82-2.95-4.75-4.02-8.53-2.99c-1.43,0.39-2.86,0.78-4.3,1.17
				c-3.31-10.46-13.65-18.05-24.96-18.2c-1.77-0.02-3.55,0.17-5.33,0.27c-1.55,0.42-3.1,0.85-4.64,1.27
				c-0.31,0.19-0.6,0.43-0.94,0.57c-9.32,4.11-14.72,11.25-16.31,21.26c-0.47,2.98-0.44,5.98,0.31,8.99c-1.46,0.4-2.92,0.8-4.38,1.2
				c-0.36,0.1-0.71,0.2-1.06,0.33c-2.98,1.14-4.68,3.51-4.73,6.61c-0.05,2.9,1.64,5.28,4.58,6.52c0.52,0.22,1.15,0.56,1.39,1.03
				c4.39,8.4,8.92,16.74,12.98,25.3c1.79,3.77,4.14,5.96,8.31,6.07c14.89-4.07,29.77-8.13,44.66-12.2c3.57-2.15,4.61-5.15,4.22-9.36
				c-0.88-9.43-1.23-18.92-1.72-28.38c-0.04-0.85,0.26-1.79,0.63-2.58C56.38,173,56.5,170.74,55.11,168.48z M9.38,154.53
				c4.99-1.8,10.05-1.76,15.02,0.09c6.53,2.42,10.85,6.99,13.29,13.3c-14.22,3.88-28.44,7.76-42.66,11.65
				C-6.93,167.81-0.16,157.98,9.38,154.53z M51.05,173.56c-0.56,1-1.03,2.25-0.97,3.36c0.56,10.45,1.25,20.88,1.9,31.32
				c0.11,1.81-0.75,2.94-2.44,3.44c-1.71,0.51-3.45,0.96-5.17,1.43c-11.78,3.22-23.57,6.44-35.35,9.65
				c-3.29,0.9-4.01,0.47-5.52-2.51c-4.64-9.17-9.33-18.31-14.09-27.42c-0.36-0.69-1.36-1.25-2.16-1.45
				c-1.33-0.33-2.41-0.81-2.49-2.28c-0.07-1.52,0.92-2.32,2.32-2.69c5.3-1.44,10.59-2.89,15.89-4.34c4.88-1.33,9.76-2.67,14.64-4
				c9.88-2.7,19.76-5.4,29.64-8.08c0.76-0.21,1.6-0.42,2.35-0.31C51.45,169.94,52.01,171.85,51.05,173.56z"/>
			<path class="st8" d="M8.32,203.92c-0.8-2.91-1.61-5.82-2.38-8.73c-0.31-1.18-0.9-1.9-2.22-1.58c-1.32,0.32-1.56,1.23-1.24,2.42
				c1.59,5.82,3.19,11.64,4.77,17.47c0.33,1.21,1.04,1.84,2.29,1.47c1.25-0.37,1.47-1.29,1.12-2.49
				C9.85,209.63,9.1,206.77,8.32,203.92z"/>
			<path class="st8" d="M19.74,200.74c-0.8-2.91-1.61-5.82-2.38-8.74c-0.32-1.2-0.96-1.86-2.26-1.51c-1.32,0.36-1.47,1.29-1.15,2.47
				c1.58,5.76,3.16,11.52,4.72,17.29c0.32,1.17,0.9,1.94,2.2,1.62c1.39-0.34,1.58-1.3,1.22-2.58
				C21.27,206.45,20.52,203.59,19.74,200.74z"/>
			<path class="st8" d="M42.7,194.66c-0.81-2.97-1.63-5.94-2.43-8.91c-0.32-1.18-0.95-1.88-2.26-1.51
				c-1.29,0.37-1.47,1.27-1.14,2.46c1.59,5.76,3.17,11.52,4.72,17.29c0.32,1.18,0.9,1.93,2.2,1.62c1.4-0.34,1.58-1.31,1.22-2.58
				C44.21,200.25,43.47,197.45,42.7,194.66z"/>
			<path class="st8" d="M26.58,187.36c-1.44,0.39-1.47,1.41-1.13,2.63c1.58,5.7,3.14,11.4,4.67,17.11c0.34,1.27,0.99,2.02,2.36,1.6
				c1.29-0.39,1.4-1.36,1.07-2.52c-0.8-2.84-1.57-5.7-2.34-8.55c-0.78-2.85-1.57-5.7-2.33-8.56
				C28.56,187.86,28.03,186.97,26.58,187.36z"/>
		</g>
		<g>
			<path class="st8" d="M172.62,136.38c-1.82-2.95-4.75-4.02-8.53-2.99c-1.43,0.39-2.86,0.78-4.3,1.17
				c-3.31-10.46-13.65-18.05-24.96-18.2c-1.77-0.02-3.55,0.17-5.33,0.27c-1.55,0.42-3.1,0.85-4.64,1.27
				c-0.31,0.19-0.6,0.43-0.94,0.57c-9.32,4.11-14.72,11.25-16.31,21.26c-0.47,2.98-0.44,5.98,0.31,8.99c-1.46,0.4-2.92,0.8-4.38,1.2
				c-0.36,0.1-0.71,0.2-1.06,0.33c-2.98,1.14-4.68,3.51-4.73,6.61c-0.05,2.9,1.64,5.28,4.58,6.52c0.52,0.22,1.15,0.56,1.39,1.03
				c4.39,8.4,8.92,16.74,12.98,25.3c1.79,3.77,4.14,5.96,8.31,6.07c14.89-4.07,29.77-8.13,44.66-12.2c3.57-2.15,4.61-5.15,4.22-9.36
				c-0.88-9.43-1.23-18.92-1.72-28.38c-0.04-0.85,0.26-1.79,0.63-2.58C173.9,140.91,174.02,138.64,172.62,136.38z M126.9,122.43
				c4.99-1.8,10.05-1.76,15.02,0.09c6.53,2.42,10.85,6.99,13.29,13.3c-14.22,3.88-28.44,7.76-42.66,11.65
				C110.59,135.71,117.36,125.89,126.9,122.43z M168.57,141.47c-0.56,1-1.03,2.25-0.97,3.36c0.56,10.45,1.25,20.88,1.9,31.32
				c0.11,1.81-0.75,2.94-2.44,3.44c-1.71,0.51-3.45,0.96-5.17,1.43c-11.78,3.22-23.57,6.44-35.35,9.65
				c-3.29,0.9-4.01,0.47-5.52-2.51c-4.64-9.17-9.33-18.31-14.09-27.42c-0.36-0.69-1.36-1.25-2.16-1.45
				c-1.33-0.33-2.41-0.81-2.49-2.28c-0.07-1.52,0.92-2.32,2.32-2.69c5.3-1.44,10.59-2.89,15.89-4.34c4.88-1.33,9.76-2.67,14.64-4
				c9.88-2.7,19.76-5.4,29.64-8.08c0.76-0.21,1.6-0.42,2.35-0.31C168.97,137.85,169.53,139.75,168.57,141.47z"/>
			<path class="st8" d="M125.83,171.83c-0.8-2.91-1.61-5.82-2.38-8.73c-0.31-1.18-0.9-1.9-2.22-1.58c-1.32,0.32-1.56,1.23-1.24,2.42
				c1.59,5.82,3.19,11.64,4.77,17.47c0.33,1.21,1.04,1.84,2.29,1.47c1.25-0.37,1.47-1.29,1.12-2.49
				C127.37,177.54,126.61,174.68,125.83,171.83z"/>
			<path class="st8" d="M137.26,168.64c-0.8-2.91-1.61-5.82-2.38-8.74c-0.32-1.2-0.96-1.86-2.26-1.51
				c-1.32,0.36-1.47,1.29-1.15,2.47c1.58,5.76,3.16,11.52,4.72,17.29c0.32,1.17,0.9,1.94,2.2,1.62c1.39-0.34,1.58-1.3,1.22-2.58
				C138.79,174.35,138.04,171.49,137.26,168.64z"/>
			<path class="st8" d="M160.22,162.56c-0.81-2.97-1.63-5.94-2.43-8.91c-0.32-1.18-0.95-1.88-2.26-1.51
				c-1.29,0.37-1.47,1.27-1.14,2.46c1.59,5.76,3.17,11.52,4.72,17.29c0.32,1.18,0.9,1.93,2.2,1.62c1.4-0.34,1.58-1.31,1.22-2.58
				C161.73,168.15,160.98,165.35,160.22,162.56z"/>
			<path class="st8" d="M144.1,155.26c-1.44,0.39-1.47,1.41-1.13,2.63c1.58,5.7,3.14,11.4,4.67,17.11c0.34,1.27,0.99,2.02,2.36,1.6
				c1.29-0.39,1.4-1.36,1.07-2.52c-0.8-2.84-1.57-5.7-2.34-8.55c-0.78-2.85-1.57-5.7-2.33-8.56
				C146.08,155.76,145.55,154.87,144.1,155.26z"/>
		</g>
		<g>
			<path class="st8" d="M290.14,104.29c-1.82-2.95-4.75-4.02-8.53-2.99c-1.43,0.39-2.86,0.78-4.3,1.17
				c-3.31-10.46-13.65-18.05-24.96-18.2c-1.77-0.02-3.55,0.17-5.33,0.27c-1.55,0.42-3.1,0.85-4.64,1.27
				c-0.31,0.19-0.6,0.43-0.94,0.57c-9.32,4.11-14.72,11.25-16.31,21.26c-0.47,2.98-0.44,5.98,0.31,8.99c-1.46,0.4-2.92,0.8-4.38,1.2
				c-0.36,0.1-0.71,0.2-1.06,0.33c-2.98,1.14-4.68,3.51-4.73,6.61c-0.05,2.9,1.64,5.28,4.58,6.52c0.52,0.22,1.15,0.56,1.39,1.03
				c4.39,8.4,8.92,16.74,12.98,25.3c1.79,3.77,4.14,5.96,8.31,6.07c14.89-4.07,29.77-8.13,44.66-12.2c3.57-2.15,4.61-5.15,4.22-9.36
				c-0.88-9.43-1.23-18.92-1.72-28.38c-0.04-0.85,0.26-1.79,0.63-2.58C291.42,108.81,291.54,106.55,290.14,104.29z M244.42,90.34
				c4.99-1.8,10.05-1.76,15.02,0.09c6.53,2.42,10.85,6.99,13.29,13.3c-14.22,3.88-28.44,7.76-42.66,11.65
				C228.11,103.61,234.88,93.79,244.42,90.34z M286.08,109.37c-0.56,1-1.03,2.25-0.97,3.36c0.56,10.45,1.25,20.88,1.9,31.32
				c0.11,1.81-0.75,2.94-2.44,3.44c-1.71,0.51-3.45,0.96-5.17,1.43c-11.78,3.22-23.57,6.44-35.35,9.65
				c-3.29,0.9-4.01,0.47-5.52-2.51c-4.64-9.17-9.33-18.31-14.09-27.42c-0.36-0.69-1.36-1.25-2.16-1.45
				c-1.33-0.33-2.41-0.81-2.49-2.28c-0.07-1.52,0.92-2.32,2.32-2.69c5.3-1.44,10.59-2.89,15.89-4.34c4.88-1.33,9.76-2.67,14.64-4
				c9.88-2.7,19.76-5.4,29.64-8.08c0.76-0.21,1.6-0.42,2.35-0.31C286.49,105.75,287.05,107.65,286.08,109.37z"/>
		</g>
		<g>
			<g>
				<g>
					<path class="st8" d="M273.6,270.33l-7.54,2.06l-7.24-26.52c0.44-0.02,0.87-0.09,1.3-0.2c3.47-0.95,5.51-4.53,4.57-8
						c-0.03-0.09-0.06-0.18-0.1-0.26l-5.6-10.62c-0.28-0.54-0.91-0.81-1.49-0.65l-3.77,1.03l-1.03-3.77
						c-0.19-0.69-0.91-1.1-1.6-0.91l-10.05,2.74l-0.69-2.51l2.51-0.69c0.69-0.19,1.1-0.91,0.91-1.6l-3.43-12.56
						c-0.19-0.69-0.91-1.1-1.6-0.91l-40.2,10.98c-0.69,0.19-1.1,0.91-0.91,1.6l3.43,12.56c0.19,0.69,0.91,1.1,1.6,0.91l2.51-0.69
						l0.69,2.51l-10.05,2.74c-0.69,0.19-1.1,0.91-0.91,1.6l1.03,3.77l-3.77,1.03c-0.59,0.16-0.99,0.71-0.96,1.32l0.58,11.99
						c0,0.1,0.02,0.19,0.04,0.28c0.95,3.47,4.53,5.51,8,4.57c0.42-0.12,0.83-0.28,1.22-0.49l7.24,26.52l-7.54,2.06
						c-0.69,0.19-1.1,0.91-0.91,1.6l1.37,5.03c0.19,0.69,0.91,1.1,1.6,0.91l72.86-19.9c0.69-0.19,1.1-0.91,0.91-1.6l-1.37-5.03
						C275.01,270.55,274.3,270.14,273.6,270.33z M257.16,228.92l5.04,9.56c0.49,2.05-0.74,4.12-2.77,4.67
						c-0.66,0.18-1.36,0.18-2.02,0c-1.02-0.27-1.89-0.94-2.41-1.86c-0.16-0.28-0.29-0.57-0.37-0.88c-0.01-0.05-0.03-0.09-0.05-0.14
						l-3.81-9.61L257.16,228.92z M251.78,254.69l-12.56,3.43c-0.69,0.19-1.1,0.91-0.91,1.6l5.15,18.84l-32.66,8.92l-7.56-27.68
						c0.38-0.48,0.69-1.01,0.92-1.58c2.81,2.22,6.88,1.74,9.09-1.07c0.4-0.51,0.72-1.07,0.96-1.67c2.81,2.22,6.88,1.74,9.09-1.07
						c0.4-0.51,0.72-1.07,0.96-1.67c2.81,2.22,6.88,1.74,9.09-1.07c0.4-0.51,0.72-1.07,0.96-1.67c2.81,2.22,6.88,1.74,9.09-1.07
						c0.4-0.51,0.72-1.07,0.96-1.67c2.81,2.22,6.88,1.73,9.1-1.07c0.4-0.51,0.72-1.07,0.95-1.67c0.49,0.37,1.02,0.67,1.59,0.89
						l7.56,27.69l-5.03,1.37l-5.15-18.84C253.19,254.91,252.47,254.5,251.78,254.69z M251.21,257.54l4.8,17.59l-10.05,2.74
						l-4.8-17.59L251.21,257.54z M204.4,254.2l-1.63-10.42l7.52-2.05l1.61,10.21c0.01,0.05,0.01,0.1,0.02,0.14
						c0.09,0.32,0.13,0.65,0.13,0.98c0.02,2.16-1.71,3.92-3.87,3.94c-1.42,0.01-2.73-0.74-3.43-1.98
						C204.59,254.76,204.48,254.49,204.4,254.2z M214.45,251.45l-1.63-10.42l6.41-1.75l2.74,10.05c0.09,0.32,0.13,0.65,0.13,0.98
						c0.02,2.16-1.71,3.92-3.87,3.94c-1.42,0.01-2.73-0.74-3.43-1.98C214.64,252.02,214.53,251.74,214.45,251.45z M224.48,248.64
						l-2.74-10.05l7.54-2.06l2.74,10.05c0.09,0.32,0.13,0.65,0.13,0.98c0.02,2.16-1.71,3.92-3.87,3.94
						c-1.42,0.01-2.73-0.74-3.43-1.98C224.68,249.25,224.56,248.95,224.48,248.64z M234.53,245.9l-2.74-10.05l6.41-1.75l3.89,9.81
						c0.08,0.3,0.12,0.61,0.11,0.91c0.02,2.16-1.71,3.92-3.87,3.94c-1.42,0.01-2.73-0.74-3.43-1.98
						C234.73,246.51,234.61,246.21,234.53,245.9z M240.73,233.41l7.52-2.05l3.89,9.81c0.08,0.3,0.12,0.61,0.11,0.91
						c0.02,2.16-1.71,3.92-3.87,3.94c-1.42,0.01-2.73-0.74-3.43-1.98c-0.16-0.28-0.29-0.57-0.37-0.88
						c-0.01-0.05-0.03-0.09-0.05-0.14L240.73,233.41z M203.23,230.15l-2.74-10.05l37.69-10.29l2.74,10.05L203.23,230.15z
						 M237.83,223.4l0.69,2.51l-30.15,8.23l-0.69-2.51L237.83,223.4z M197.75,239.74l52.76-14.41l0.69,2.51l-52.76,14.41
						L197.75,239.74z M199.13,259.62c-2.03,0.56-4.14-0.6-4.76-2.61l-0.52-10.79l6.38-1.74l1.61,10.21
						c0.01,0.05,0.02,0.09,0.03,0.14c0.09,0.32,0.13,0.65,0.13,0.98c0.01,1.04-0.39,2.05-1.13,2.79
						C200.39,259.08,199.79,259.44,199.13,259.62z M273.72,275.7l-70.35,19.21l-0.69-2.51l70.35-19.21L273.72,275.7z"/>
				</g>
			</g>
		</g>
	</g>
	<g style="clip-path:url(#SVGID_1_);">
	</g>
</g>
<g>
	<g>
		<path class="st8" d="M173.81,123.37c-1.35-10.88-5.46-20.85-12.2-29.63c-7.05-9.19-16.14-15.95-27.03-20.11
			c-0.21-0.07-0.25-0.12-0.26-0.3c0.04-1.47,0.04-2.96,0.01-4.43c-0.01-0.66-0.08-1.29-0.18-1.9c-0.55-4.37-3.95-7.77-8.75-8.35
			c-1.53-0.19-3.09-0.23-4.62-0.23c-0.5,0-0.99,0-1.48,0.01c-0.7,0-1.42,0.01-2.18,0c-0.81-0.01-1.65-0.02-1.81-0.1
			c-0.11-0.18-0.11-1.03-0.11-1.86c0-0.34,0-0.68,0.02-0.88c0.21-0.02,0.55-0.02,0.9-0.02h5.58v-4.67c0-0.88,0-1.79,0.11-1.96
			c0.18-0.12,1.1-0.12,1.98-0.12c0.38,0,0.85,0,0.85-0.06c0.06,0.1,0.04-6.87-0.09-5.77c-0.01,0.04-0.03,0.1-0.06,0.16
			c-0.85,0.04-1.71,0.03-2.61,0.03l-0.22,0V36.8h-17.92v18.76h5.76v2.83l-0.28,0c-0.73,0-1.43-0.01-2.13,0.01
			c-0.71,0.02-1.41,0.02-2.12,0.02c-1.73,0.01-3.52,0.02-5.27,0.25c-5.47,0.71-9.16,4.98-9.17,10.64l-0.01,1.07
			c-0.01,0.94-0.02,1.88,0.03,2.8c0.03,0.49-0.01,0.6-0.55,0.81c-7.22,2.81-13.86,7.03-19.71,12.56
			c-5.42,5.12-9.85,11.15-13.16,17.94c-4.31,8.85-6.39,18.4-6.17,28.39c0.14,6.71,1.47,13.43,3.96,19.97
			c3.31,8.67,8.41,16.4,15.13,22.97c4.26,4.16,8.94,7.61,13.93,10.25c0.36,0.19,0.44,0.33,0.43,0.75c-0.04,2.3,0.11,9.18,0.11,9.18
			l55.04-0.01c0,0,0.01-7.06-0.01-8.75c0-0.34,0.02-0.37,0.33-0.53c4.39-2.22,8.18-4.65,11.59-7.43
			c8.02-6.54,14.11-14.62,18.09-24.02C173.77,145.31,175.2,134.58,173.81,123.37z M109.4,49.78v-7.35h6.55v7.35H109.4z M96.28,67.98
			c0.22-2.1,2.74-3.89,5.51-3.91c2.13-0.01,4.26-0.01,6.39-0.01c1.13,0,2.27,0,3.4,0l3.4,0l2.51,0c2.04,0,4.09-0.01,6.16,0.02
			c3.18,0.04,5,1.91,4.99,5.14v2.47c-10.98-2.77-21.6-2.71-32.4,0.19c-0.01-0.2-0.01-0.4-0.02-0.6
			C96.2,70.11,96.17,69.02,96.28,67.98z M168.4,136.59c-0.54,6.26-2.16,12.35-4.83,18.11c-3.37,7.28-8.13,13.62-14.15,18.83
			c-4.5,3.9-9.1,6.83-14.04,8.97c-1.03,0.44-1.52,1.21-1.5,2.33c0.03,1.48,0.02,5.57,0.02,5.57c-1.87,0-43.94,0.01-43.94,0.01
			c-0.01-0.28-0.09-3.13,0.04-4.2c0.32-2.67-0.93-3.9-2.9-4.93c-7.69-3.98-14.32-9.76-19.73-17.19c-3.59-4.91-6.34-10.31-8.17-16.04
			c-2.93-9.16-3.42-18.56-1.47-27.93c2.02-9.71,6.39-18.41,12.99-25.86c7.58-8.57,17-14.35,28.02-17.18
			c11.81-3.03,23.56-2.27,34.92,2.26c7.78,3.1,14.62,7.84,20.33,14.1c6.2,6.79,10.52,14.74,12.86,23.64
			C168.47,123.25,168.99,129.81,168.4,136.59z"/>
		<path class="st8" d="M146.92,107.67c4.13,5.8,6.56,12.24,7.23,19.16c0.12,1.17,0.19,2.35,0.26,3.53l0.15,2.28h5.5v-2.15
			c-0.02-4.19-0.65-8.35-1.85-12.35c-3.71-12.34-11.39-21.71-22.84-27.86c-0.76-0.41-15.36-7.25-23.72-5.58
			c-0.46,0.09-0.02,4.79,0.42,5.26c0.45,0.47,1.09,0.53,1.54,0.53c4.7,0.01,9.45,0.88,14.12,2.57c0.36,0.13,1.75,0.67,1.75,0.67
			C136.68,96.83,142.56,101.52,146.92,107.67z"/>
		<path class="st8" d="M102.5,28.68l-4.09,4.54c-0.13,0.14-0.35,0.15-0.49,0.03l-14.64-13.2c-0.14-0.13-0.15-0.35-0.03-0.49
			l4.09-4.54c0.13-0.14,0.35-0.15,0.49-0.03l14.64,13.2C102.62,28.32,102.63,28.54,102.5,28.68z"/>
		<path class="st8" d="M97.01,42.34l1.19,5.99c0.04,0.19-0.08,0.37-0.27,0.41L78.6,52.59c-0.19,0.04-0.37-0.08-0.41-0.27L77,46.33
			c-0.04-0.19,0.08-0.37,0.27-0.41l19.33-3.86C96.79,42.03,96.97,42.15,97.01,42.34z"/>
		<path class="st8" d="M96.57,33.95l-1.27,5.98c-0.04,0.19-0.22,0.31-0.41,0.27l-19.28-4.11c-0.19-0.04-0.31-0.22-0.27-0.41
			l1.27-5.98c0.04-0.19,0.22-0.31,0.41-0.27l19.28,4.11C96.49,33.58,96.61,33.76,96.57,33.95z"/>
	</g>
	<path class="st8" d="M146.08,22.61c-12.7,0-23,10.3-23,23s10.29,23,23,23c12.7,0,23-10.3,23-23S158.78,22.61,146.08,22.61z
		 M146.08,63.93c-10.12,0-18.32-8.2-18.32-18.32s8.2-18.32,18.32-18.32c10.12,0,18.32,8.2,18.32,18.32S156.2,63.93,146.08,63.93z"/>
</g>
</svg>
