<?xml version="1.0" encoding="utf-8"?>
<!-- Generator: Adobe Illustrator 24.0.2, SVG Export Plug-In . SVG Version: 6.00 Build 0)  -->
<svg version="1.1" id="Capa_1" xmlns="http://www.w3.org/2000/svg" xmlns:xlink="http://www.w3.org/1999/xlink" x="0px" y="0px"
	 viewBox="0 0 216 216" style="enable-background:new 0 0 216 216;" xml:space="preserve">
<style type="text/css">
	.st0{fill:url(#SVGID_1_);}
	.st1{opacity:0.69;fill:none;stroke:#4D4D4D;stroke-width:3;stroke-miterlimit:10;}
	.st2{opacity:0.69;fill:none;stroke:#4D4D4D;stroke-width:3;stroke-linecap:round;stroke-linejoin:round;stroke-miterlimit:10;}
	.st3{opacity:0.6;fill:none;stroke:#4D4D4D;stroke-width:3;stroke-linecap:round;stroke-linejoin:round;stroke-miterlimit:10;}
	.st4{fill:none;}
	.st5{fill:url(#SVGID_2_);}
	.st6{opacity:0.05;}
	.st7{clip-path:url(#SVGID_4_);}
	.st8{fill:#5F27A4;}
	.st9{fill:url(#SVGID_5_);}
	.st10{clip-path:url(#SVGID_7_);}
	.st11{fill:url(#SVGID_8_);}
	.st12{fill:#3C3C3B;}
	.st13{fill:url(#SVGID_9_);}
	.st14{fill:url(#SVGID_10_);}
	.st15{fill:url(#SVGID_11_);}
	.st16{fill:url(#SVGID_12_);}
	.st17{fill:url(#SVGID_13_);}
	.st18{fill:url(#SVGID_14_);}
	.st19{fill:url(#SVGID_15_);}
	.st20{fill:url(#SVGID_16_);}
	.st21{fill:url(#SVGID_17_);}
	.st22{fill:url(#SVGID_18_);}
	.st23{fill:url(#SVGID_19_);}
	.st24{fill:url(#SVGID_20_);}
	.st25{fill:url(#SVGID_21_);}
	.st26{fill:url(#SVGID_22_);}
	.st27{fill:url(#SVGID_23_);}
	.st28{fill:url(#SVGID_24_);}
	.st29{fill:url(#SVGID_25_);}
	.st30{fill:url(#SVGID_26_);}
	.st31{fill:url(#SVGID_27_);}
	.st32{fill:url(#SVGID_28_);}
	.st33{fill:url(#SVGID_29_);}
	.st34{fill:url(#SVGID_30_);}
	.st35{fill:url(#SVGID_31_);}
	.st36{fill:url(#SVGID_32_);}
	.st37{fill:url(#SVGID_33_);}
	.st38{fill:url(#SVGID_34_);}
	.st39{fill:url(#SVGID_35_);}
	.st40{fill:url(#SVGID_36_);}
	.st41{fill:url(#SVGID_37_);}
	.st42{fill:url(#SVGID_38_);}
	.st43{fill:url(#SVGID_39_);}
	.st44{fill:url(#SVGID_40_);}
	.st45{fill:url(#SVGID_41_);}
	.st46{fill:url(#SVGID_42_);}
	.st47{fill:url(#SVGID_43_);}
	.st48{fill:url(#SVGID_44_);}
	.st49{fill:url(#SVGID_45_);}
	.st50{fill:url(#SVGID_46_);}
	.st51{fill:url(#SVGID_47_);}
	.st52{fill:url(#SVGID_48_);}
	.st53{fill:url(#SVGID_49_);}
	.st54{fill:url(#SVGID_50_);}
	.st55{fill:url(#SVGID_51_);}
	.st56{fill:url(#SVGID_52_);}
	.st57{fill:url(#SVGID_53_);}
	.st58{fill:url(#SVGID_54_);}
	.st59{fill:url(#SVGID_55_);}
	.st60{fill:url(#SVGID_56_);}
	.st61{fill:url(#SVGID_57_);}
	.st62{fill:url(#SVGID_58_);}
	.st63{fill:url(#SVGID_59_);}
	.st64{fill:url(#SVGID_60_);}
	.st65{fill:url(#SVGID_61_);}
	.st66{fill:url(#SVGID_62_);}
	.st67{fill:#B3B3B3;}
	.st68{fill:#FFFFFF;}
	.st69{fill:#471D7B;}
	.st70{fill:#E8E6EC;stroke:#999999;stroke-miterlimit:10;}
	.st71{fill:url(#SVGID_63_);}
	.st72{fill:#4D4D4D;}
	.st73{fill:#E6E6E6;}
	.st74{fill:#FFD800;}
	.st75{fill:#C2820F;}
</style>
<g class="st6">
	<defs>
		<path id="SVGID_6_" class="st6" d="M1154.57,747.99H571.85c-26.31,0-47.64-21.33-47.64-47.64V-683.36
			c0-26.31,21.33-47.64,47.64-47.64h582.71c26.31,0,47.64,21.33,47.64,47.64V700.35C1202.21,726.66,1180.88,747.99,1154.57,747.99z"
			/>
	</defs>
	<clipPath id="SVGID_1_">
		<use xlink:href="#SVGID_6_"  style="overflow:visible;"/>
	</clipPath>
	<g style="clip-path:url(#SVGID_1_);">
		<g>
			<g>
				<g>
					<path class="st8" d="M184.92,14.7l-7.54,2.06l-7.24-26.52c0.44-0.02,0.87-0.09,1.3-0.2c3.47-0.95,5.51-4.53,4.57-8
						c-0.03-0.09-0.06-0.18-0.1-0.26l-5.6-10.62c-0.28-0.54-0.91-0.81-1.49-0.65l-3.77,1.03L164-32.24c-0.19-0.69-0.91-1.1-1.6-0.91
						l-10.05,2.74l-0.69-2.51l2.51-0.69c0.69-0.19,1.1-0.91,0.91-1.6l-3.43-12.56c-0.19-0.69-0.91-1.1-1.6-0.91l-40.2,10.98
						c-0.69,0.19-1.1,0.91-0.91,1.6l3.43,12.56c0.19,0.69,0.91,1.1,1.6,0.91l2.51-0.69l0.69,2.51l-10.05,2.74
						c-0.69,0.19-1.1,0.91-0.91,1.6l1.03,3.77l-3.77,1.03c-0.59,0.16-0.99,0.71-0.96,1.32l0.58,11.99c0,0.09,0.02,0.19,0.04,0.28
						c0.95,3.47,4.53,5.51,8,4.57c0.42-0.12,0.83-0.28,1.22-0.49l7.24,26.52l-7.54,2.06c-0.69,0.19-1.1,0.91-0.91,1.6l1.37,5.03
						c0.19,0.69,0.91,1.1,1.6,0.91l72.86-19.9c0.69-0.19,1.1-0.91,0.91-1.6l-1.37-5.03C186.33,14.92,185.61,14.51,184.92,14.7z
						 M168.48-26.71l5.04,9.56c0.49,2.05-0.74,4.12-2.77,4.67c-0.66,0.18-1.36,0.18-2.02,0c-1.02-0.27-1.89-0.94-2.41-1.86
						c-0.16-0.28-0.29-0.57-0.37-0.88c-0.01-0.05-0.03-0.09-0.05-0.14l-3.81-9.61L168.48-26.71z M163.1-0.94l-12.56,3.43
						c-0.69,0.19-1.1,0.91-0.91,1.6l5.15,18.84l-32.66,8.92l-7.56-27.68c0.38-0.48,0.69-1.01,0.92-1.58
						c2.81,2.22,6.88,1.74,9.09-1.07c0.4-0.51,0.72-1.07,0.96-1.67c2.81,2.22,6.88,1.74,9.09-1.07c0.4-0.51,0.72-1.07,0.96-1.67
						c2.81,2.22,6.88,1.74,9.09-1.07c0.4-0.51,0.72-1.07,0.96-1.67c2.81,2.22,6.88,1.74,9.09-1.07c0.4-0.51,0.72-1.07,0.96-1.67
						c2.81,2.22,6.88,1.73,9.1-1.07c0.4-0.51,0.72-1.07,0.95-1.67c0.49,0.37,1.02,0.67,1.59,0.89l7.56,27.69l-5.03,1.37l-5.15-18.84
						C164.51-0.72,163.79-1.13,163.1-0.94z M162.53,1.91l4.8,17.59l-10.05,2.74l-4.8-17.59L162.53,1.91z M115.71-1.43l-1.63-10.42
						l7.52-2.05l1.61,10.21c0.01,0.05,0.01,0.1,0.02,0.14c0.09,0.32,0.13,0.65,0.13,0.98c0.02,2.16-1.71,3.92-3.87,3.94
						c-1.42,0.01-2.73-0.74-3.43-1.98C115.91-0.87,115.79-1.14,115.71-1.43z M125.76-4.17l-1.63-10.42l6.41-1.75l2.74,10.05
						c0.09,0.32,0.13,0.65,0.13,0.98c0.02,2.16-1.71,3.92-3.87,3.94c-1.42,0.01-2.73-0.74-3.43-1.98
						C125.96-3.61,125.84-3.89,125.76-4.17z M135.8-6.98l-2.74-10.05l7.54-2.06l2.74,10.05c0.09,0.32,0.13,0.65,0.13,0.98
						c0.02,2.16-1.71,3.92-3.87,3.94c-1.42,0.01-2.73-0.74-3.43-1.98C136-6.38,135.88-6.67,135.8-6.98z M145.85-9.73l-2.74-10.05
						l6.41-1.75l3.89,9.81c0.08,0.3,0.12,0.61,0.11,0.91c0.02,2.16-1.71,3.92-3.87,3.94c-1.42,0.01-2.73-0.74-3.43-1.98
						C146.05-9.12,145.93-9.42,145.85-9.73z M152.04-22.22l7.52-2.05l3.89,9.81c0.08,0.3,0.12,0.61,0.11,0.91
						c0.02,2.16-1.71,3.92-3.87,3.94c-1.42,0.01-2.73-0.74-3.43-1.98c-0.16-0.28-0.29-0.57-0.37-0.88
						c-0.01-0.05-0.03-0.09-0.05-0.14L152.04-22.22z M114.54-25.48l-2.74-10.05l37.69-10.29l2.74,10.05L114.54-25.48z M149.15-32.23
						l0.69,2.51l-30.15,8.23L119-24L149.15-32.23z M109.06-15.88l52.76-14.41l0.69,2.51l-52.76,14.41L109.06-15.88z M110.44,3.99
						c-2.03,0.56-4.14-0.6-4.76-2.61l-0.52-10.79l6.38-1.74l1.61,10.21c0.01,0.05,0.02,0.09,0.03,0.14
						c0.09,0.32,0.13,0.65,0.13,0.98c0.01,1.04-0.39,2.05-1.13,2.79C111.71,3.45,111.11,3.81,110.44,3.99z M185.03,20.07
						l-70.35,19.21L114,36.77l70.35-19.21L185.03,20.07z"/>
				</g>
			</g>
			<g>
				<g>
					<path class="st8" d="M143.4,5.11l-20.1,5.49c-0.69,0.19-1.1,0.91-0.91,1.6l3.43,12.56c0.19,0.69,0.91,1.1,1.6,0.91l20.1-5.49
						c0.69-0.19,1.1-0.91,0.91-1.6L145,6.02C144.81,5.33,144.09,4.92,143.4,5.11z M145.57,18.02l-17.59,4.8l-2.74-10.05l17.59-4.8
						L145.57,18.02z"/>
				</g>
			</g>
		</g>
	</g>
	<g style="clip-path:url(#SVGID_1_);">
		<g>
			<path class="st8" d="M198.56,67.6l-56.99,15.57c-0.08,0.02-0.16,0.05-0.23,0.08l-0.56,0.24l-4.53-6.62
				c-0.31-0.45-0.8-0.75-1.35-0.81l-13.09-1.42c-1.03-0.11-1.97,0.64-2.08,1.67c-0.11,1.03,0.64,1.97,1.67,2.08l12.23,1.32
				l24.1,35.18l-0.61,0.42c-0.37,0.25-0.6,0.64-0.63,1.07l-0.92,11.59c-0.04,0.47,0.16,0.93,0.52,1.23c0.36,0.3,0.85,0.41,1.3,0.28
				l3.55-0.97L160.2,130c-0.79,1.58-0.98,3.38-0.51,5.07c1.04,3.8,4.97,6.04,8.77,5c3.8-1.04,6.04-4.97,5-8.77
				c-0.46-1.69-1.53-3.15-3.02-4.11l-1.4-0.9l19.77-5.4l-0.75,1.48c-0.79,1.58-0.98,3.38-0.52,5.07c1.04,3.8,4.97,6.04,8.77,5
				c3.8-1.04,6.04-4.97,5-8.77c-0.46-1.69-1.53-3.15-3.02-4.11l-1.4-0.9l3.98-1.09c0.77-0.21,1.23-1.01,1.01-1.78
				c-0.21-0.77-1.01-1.23-1.78-1.01l-41.5,11.33l0.71-9.01l0.77,0.1c0.26,0.03,0.51,0.02,0.74-0.04l37.15-10.15
				c0.79-0.22,1.35-0.91,1.39-1.74l1.56-35.81c0.03-0.6-0.24-1.18-0.71-1.56C199.76,67.58,199.14,67.45,198.56,67.6z M193.31,121.49
				c2.26-0.62,4.59,0.72,5.21,2.97s-0.72,4.59-2.97,5.21c-2.26,0.62-4.59-0.72-5.21-2.97S191.06,122.11,193.31,121.49z
				 M165.45,129.1c2.26-0.62,4.59,0.72,5.21,2.97c0.62,2.26-0.72,4.59-2.97,5.21s-4.59-0.72-5.21-2.97
				C161.86,132.05,163.19,129.72,165.45,129.1z M142.97,86.69l17.25-4.71l1.95,7.13l-14.78,4.04L142.97,86.69z M168.23,111.27
				l-7.09,1.94l-4.29-6.26l9.49-2.59L168.23,111.27z M165.35,100.72l-10.75,2.94l-4.94-7.22l13.52-3.69L165.35,100.72z
				 M184.97,106.7l-13.11,3.58l-1.89-6.92l13.11-3.58L184.97,106.7z M182.09,96.15l-13.11,3.58l-2.18-7.97l13.11-3.58L182.09,96.15z
				 M178.92,84.54l-13.11,3.58l-1.95-7.13l13.11-3.58L178.92,84.54z M195.67,103.78l-7.06,1.93l-1.89-6.92l9.27-2.53L195.67,103.78z
				 M196.17,92.3l-10.44,2.85l-2.18-7.97l13-3.55L196.17,92.3z M196.72,79.67l-14.16,3.87l-1.95-7.13l16.45-4.49L196.72,79.67z"/>
		</g>
		<g>
			<path class="st8" d="M173.59,200.58c-1.82-2.95-4.75-4.02-8.53-2.99c-1.43,0.39-2.86,0.78-4.3,1.17
				c-3.31-10.46-13.65-18.05-24.96-18.2c-1.77-0.02-3.55,0.17-5.33,0.27c-1.55,0.42-3.1,0.85-4.64,1.27
				c-0.31,0.19-0.6,0.43-0.94,0.57c-9.32,4.11-14.72,11.25-16.31,21.26c-0.47,2.98-0.44,5.98,0.31,8.99c-1.46,0.4-2.92,0.8-4.38,1.2
				c-0.36,0.1-0.71,0.2-1.06,0.33c-2.98,1.14-4.68,3.51-4.73,6.61c-0.05,2.9,1.64,5.28,4.58,6.52c0.52,0.22,1.15,0.56,1.39,1.03
				c4.39,8.4,8.92,16.74,12.98,25.3c1.79,3.77,4.14,5.96,8.31,6.07c14.89-4.07,29.77-8.13,44.66-12.2c3.57-2.15,4.61-5.15,4.22-9.36
				c-0.88-9.43-1.23-18.92-1.72-28.38c-0.04-0.85,0.26-1.79,0.63-2.58C174.86,205.1,174.98,202.84,173.59,200.58z M127.87,186.62
				c4.99-1.8,10.05-1.76,15.02,0.09c6.53,2.42,10.85,6.99,13.29,13.3c-14.22,3.88-28.44,7.76-42.66,11.65
				C111.55,199.9,118.32,190.08,127.87,186.62z M169.53,205.66c-0.56,1-1.03,2.25-0.97,3.36c0.56,10.45,1.25,20.88,1.9,31.32
				c0.11,1.81-0.75,2.94-2.44,3.44c-1.71,0.51-3.45,0.96-5.17,1.43c-11.78,3.22-23.57,6.44-35.35,9.65
				c-3.29,0.9-4.01,0.47-5.52-2.51c-4.64-9.17-9.33-18.31-14.09-27.42c-0.36-0.69-1.36-1.25-2.16-1.45
				c-1.33-0.33-2.41-0.81-2.49-2.28c-0.07-1.52,0.92-2.32,2.32-2.69c5.3-1.44,10.59-2.89,15.89-4.34c4.88-1.33,9.76-2.67,14.64-4
				c9.88-2.7,19.76-5.4,29.64-8.08c0.76-0.21,1.6-0.42,2.35-0.31C169.93,202.04,170.49,203.94,169.53,205.66z"/>
		</g>
	</g>
	<g style="clip-path:url(#SVGID_1_);">
	</g>
</g>
<g>
	<circle class="st8" cx="107.9" cy="35.08" r="2.01"/>
	<path class="st8" d="M153.11,22.53H62.69c-6.93,0-12.56,5.63-12.56,12.56v146.36c0,6.93,5.63,12.56,12.56,12.56h90.43
		c6.93,0,12.56-5.63,12.56-12.56V35.08C165.67,28.16,160.04,22.53,153.11,22.53z M160.65,181.44c0,4.16-3.38,7.54-7.54,7.54H62.69
		c-4.15,0-7.54-3.38-7.54-7.54V35.08c0-4.16,3.38-7.54,7.54-7.54h90.43c4.15,0,7.54,3.38,7.54,7.54V181.44z"/>
	<path class="st8" d="M117.95,168.88H97.85c-4.15,0-7.54,3.38-7.54,7.54s3.38,7.54,7.54,7.54h20.09c4.15,0,7.54-3.38,7.54-7.54
		S122.1,168.88,117.95,168.88z M117.95,178.93H97.85c-1.39,0-2.51-1.13-2.51-2.51c0-1.39,1.13-2.51,2.51-2.51h20.09
		c1.39,0,2.51,1.13,2.51,2.51C120.46,177.8,119.33,178.93,117.95,178.93z"/>
	<path class="st8" d="M153.11,32.57h-31c-0.67,0-1.3,0.26-1.78,0.74l-7.1,7.1c-1.43,1.43-3.33,2.21-5.33,2.21
		c-2.01,0-3.9-0.78-5.32-2.21c-0.01-0.01-4.41-4.4-7.11-7.1c-0.47-0.47-1.11-0.74-1.78-0.74h-31c-1.39,0-2.51,1.12-2.51,2.51v58.11
		c0,1.39,1.12,2.51,2.51,2.51c1.39,0,2.51-1.12,2.51-2.51V37.6h27.45c0,0,6.1,6.09,6.39,6.36l-0.01,0.01
		c2.37,2.37,5.53,3.68,8.87,3.68c3.34,0,6.5-1.3,8.88-3.68l6.37-6.37h27.45v121.24H65.2v-55.6c0-1.39-1.12-2.51-2.51-2.51
		c-1.39,0-2.51,1.12-2.51,2.51v58.11c0,1.39,1.12,2.51,2.51,2.51h90.43c1.39,0,2.51-1.12,2.51-2.51V35.08
		C155.63,33.7,154.5,32.57,153.11,32.57z"/>
</g>
</svg>
