<?xml version="1.0" encoding="utf-8"?>
<!-- Generator: Adobe Illustrator 24.0.2, SVG Export Plug-In . SVG Version: 6.00 Build 0)  -->
<svg version="1.1" id="Capa_1" xmlns="http://www.w3.org/2000/svg" xmlns:xlink="http://www.w3.org/1999/xlink" x="0px" y="0px"
	 viewBox="0 0 216 216" style="enable-background:new 0 0 216 216;" xml:space="preserve">
<style type="text/css">
	.st0{fill:url(#SVGID_1_);}
	.st1{opacity:0.69;fill:none;stroke:#4D4D4D;stroke-width:3;stroke-miterlimit:10;}
	.st2{opacity:0.69;fill:none;stroke:#4D4D4D;stroke-width:3;stroke-linecap:round;stroke-linejoin:round;stroke-miterlimit:10;}
	.st3{opacity:0.6;fill:none;stroke:#4D4D4D;stroke-width:3;stroke-linecap:round;stroke-linejoin:round;stroke-miterlimit:10;}
	.st4{fill:none;}
	.st5{fill:url(#SVGID_2_);}
	.st6{opacity:0.05;}
	.st7{clip-path:url(#SVGID_4_);}
	.st8{fill:#5F27A4;}
	.st9{fill:url(#SVGID_5_);}
	.st10{clip-path:url(#SVGID_7_);}
	.st11{fill:url(#SVGID_8_);}
	.st12{fill:#3C3C3B;}
	.st13{fill:url(#SVGID_9_);}
	.st14{fill:url(#SVGID_10_);}
	.st15{fill:url(#SVGID_11_);}
	.st16{fill:url(#SVGID_12_);}
	.st17{fill:url(#SVGID_13_);}
	.st18{fill:url(#SVGID_14_);}
	.st19{fill:url(#SVGID_15_);}
	.st20{fill:url(#SVGID_16_);}
	.st21{fill:url(#SVGID_17_);}
	.st22{fill:url(#SVGID_18_);}
	.st23{fill:url(#SVGID_19_);}
	.st24{fill:url(#SVGID_20_);}
	.st25{fill:url(#SVGID_21_);}
	.st26{fill:url(#SVGID_22_);}
	.st27{fill:url(#SVGID_23_);}
	.st28{fill:url(#SVGID_24_);}
	.st29{fill:url(#SVGID_25_);}
	.st30{fill:url(#SVGID_26_);}
	.st31{fill:url(#SVGID_27_);}
	.st32{fill:url(#SVGID_28_);}
	.st33{fill:url(#SVGID_29_);}
	.st34{fill:url(#SVGID_30_);}
	.st35{fill:url(#SVGID_31_);}
	.st36{fill:url(#SVGID_32_);}
	.st37{fill:url(#SVGID_33_);}
	.st38{fill:url(#SVGID_34_);}
	.st39{fill:url(#SVGID_35_);}
	.st40{fill:url(#SVGID_36_);}
	.st41{fill:url(#SVGID_37_);}
	.st42{fill:url(#SVGID_38_);}
	.st43{fill:url(#SVGID_39_);}
	.st44{fill:url(#SVGID_40_);}
	.st45{fill:url(#SVGID_41_);}
	.st46{fill:url(#SVGID_42_);}
	.st47{fill:url(#SVGID_43_);}
	.st48{fill:url(#SVGID_44_);}
	.st49{fill:url(#SVGID_45_);}
	.st50{fill:url(#SVGID_46_);}
	.st51{fill:url(#SVGID_47_);}
	.st52{fill:url(#SVGID_48_);}
	.st53{fill:url(#SVGID_49_);}
	.st54{fill:url(#SVGID_50_);}
	.st55{fill:url(#SVGID_51_);}
	.st56{fill:url(#SVGID_52_);}
	.st57{fill:url(#SVGID_53_);}
	.st58{fill:url(#SVGID_54_);}
	.st59{fill:url(#SVGID_55_);}
	.st60{fill:url(#SVGID_56_);}
	.st61{fill:url(#SVGID_57_);}
	.st62{fill:url(#SVGID_58_);}
	.st63{fill:url(#SVGID_59_);}
	.st64{fill:url(#SVGID_60_);}
	.st65{fill:url(#SVGID_61_);}
	.st66{fill:url(#SVGID_62_);}
	.st67{fill:#B3B3B3;}
	.st68{fill:#FFFFFF;}
	.st69{fill:#471D7B;}
	.st70{fill:#E8E6EC;stroke:#999999;stroke-miterlimit:10;}
	.st71{fill:url(#SVGID_63_);}
	.st72{fill:#4D4D4D;}
	.st73{fill:#E6E6E6;}
	.st74{fill:#FFD800;}
	.st75{fill:#C2820F;}
</style>
<circle class="st8" cx="107.75" cy="111.15" r="86.25"/>
<g>
	<path class="st68" d="M160.34,145.44c-0.54,1.44-0.92,2.98-1.66,4.31c-2.53,4.54-6.56,6.88-11.69,6.89
		c-26.21,0.07-52.42,0.07-78.63,0.01c-7.52-0.02-13.26-5.66-13.3-13.16c-0.1-17.55-0.1-35.1,0-52.65
		c0.04-7.53,5.74-13.01,13.3-13.16c2.5-0.05,5-0.09,7.49,0.02c1.58,0.07,2.52-0.33,3.21-1.91c1.17-2.71,2.65-5.28,4.01-7.9
		c1.24-2.37,3.16-3.46,5.87-3.44c12.48,0.05,24.96,0.06,37.44-0.01c2.82-0.01,4.77,1.1,6.01,3.58c1.36,2.71,2.65,5.46,4.18,8.08
		c0.43,0.74,1.55,1.44,2.41,1.5c2.64,0.19,5.3,0.04,7.95,0.08c6.55,0.11,11.41,3.98,13.02,10.32c0.07,0.28,0.25,0.54,0.38,0.81
		C160.34,107.69,160.34,126.57,160.34,145.44z M107.51,150.11c12.87,0,25.73,0.01,38.6-0.01c5.07-0.01,7.67-2.57,7.67-7.6
		c0.01-16.92,0.02-33.84,0-50.77c0-4.9-2.61-7.52-7.49-7.57c-2.81-0.03-5.64-0.25-8.41,0.06c-3.07,0.35-4.66-0.8-5.73-3.62
		c-0.87-2.31-2.29-4.41-3.49-6.6c-1.16-2.12-2.92-3.03-5.36-3.01c-10.37,0.06-20.74,0.07-31.11,0c-2.54-0.02-4.35,0.91-5.54,3.11
		c-1.22,2.26-2.65,4.44-3.58,6.82c-0.99,2.56-2.46,3.56-5.22,3.29c-2.78-0.27-5.61-0.07-8.42-0.06c-5.32,0.03-7.84,2.57-7.84,7.93
		c-0.01,16.69-0.01,33.38,0,50.06c0,5.49,2.49,7.94,8.03,7.95C82.24,150.12,94.88,150.11,107.51,150.11z"/>
	<path class="st68" d="M107.7,90.89c14.53,0.01,26.38,11.89,26.28,26.35c-0.1,14.55-11.98,26.34-26.43,26.23
		c-14.43-0.1-26.09-11.81-26.16-26.26C81.32,102.74,93.17,90.87,107.7,90.89z M107.72,136.97c10.8-0.03,19.79-9.06,19.78-19.86
		c-0.01-10.76-9.11-19.83-19.86-19.79c-10.79,0.04-19.84,9.12-19.78,19.87C87.92,128.02,96.94,137,107.72,136.97z"/>
</g>
</svg>
