<?xml version="1.0" encoding="utf-8"?>
<!-- Generator: Adobe Illustrator 24.0.2, SVG Export Plug-In . SVG Version: 6.00 Build 0)  -->
<svg version="1.1" id="Capa_1" xmlns="http://www.w3.org/2000/svg" xmlns:xlink="http://www.w3.org/1999/xlink" x="0px" y="0px"
	 viewBox="0 0 216 216" style="enable-background:new 0 0 216 216;" xml:space="preserve">
<style type="text/css">
	.st0{fill:url(#SVGID_1_);}
	.st1{opacity:0.69;fill:none;stroke:#4D4D4D;stroke-width:3;stroke-miterlimit:10;}
	.st2{opacity:0.69;fill:none;stroke:#4D4D4D;stroke-width:3;stroke-linecap:round;stroke-linejoin:round;stroke-miterlimit:10;}
	.st3{opacity:0.6;fill:none;stroke:#4D4D4D;stroke-width:3;stroke-linecap:round;stroke-linejoin:round;stroke-miterlimit:10;}
	.st4{fill:none;}
	.st5{fill:url(#SVGID_2_);}
	.st6{opacity:0.05;}
	.st7{clip-path:url(#SVGID_4_);}
	.st8{fill:#5F27A4;}
	.st9{fill:url(#SVGID_5_);}
	.st10{clip-path:url(#SVGID_7_);}
	.st11{fill:url(#SVGID_8_);}
	.st12{fill:#3C3C3B;}
	.st13{fill:url(#SVGID_9_);}
	.st14{fill:url(#SVGID_10_);}
	.st15{fill:url(#SVGID_11_);}
	.st16{fill:url(#SVGID_12_);}
	.st17{fill:url(#SVGID_13_);}
	.st18{fill:url(#SVGID_14_);}
	.st19{fill:url(#SVGID_15_);}
	.st20{fill:url(#SVGID_16_);}
	.st21{fill:url(#SVGID_17_);}
	.st22{fill:url(#SVGID_18_);}
	.st23{fill:url(#SVGID_19_);}
	.st24{fill:url(#SVGID_20_);}
	.st25{fill:url(#SVGID_21_);}
	.st26{fill:url(#SVGID_22_);}
	.st27{fill:url(#SVGID_23_);}
	.st28{fill:url(#SVGID_24_);}
	.st29{fill:url(#SVGID_25_);}
	.st30{fill:url(#SVGID_26_);}
	.st31{fill:url(#SVGID_27_);}
	.st32{fill:url(#SVGID_28_);}
	.st33{fill:url(#SVGID_29_);}
	.st34{fill:url(#SVGID_30_);}
	.st35{fill:url(#SVGID_31_);}
	.st36{fill:url(#SVGID_32_);}
	.st37{fill:url(#SVGID_33_);}
	.st38{fill:url(#SVGID_34_);}
	.st39{fill:url(#SVGID_35_);}
	.st40{fill:url(#SVGID_36_);}
	.st41{fill:url(#SVGID_37_);}
	.st42{fill:url(#SVGID_38_);}
	.st43{fill:url(#SVGID_39_);}
	.st44{fill:url(#SVGID_40_);}
	.st45{fill:url(#SVGID_41_);}
	.st46{fill:url(#SVGID_42_);}
	.st47{fill:url(#SVGID_43_);}
	.st48{fill:url(#SVGID_44_);}
	.st49{fill:url(#SVGID_45_);}
	.st50{fill:url(#SVGID_46_);}
	.st51{fill:url(#SVGID_47_);}
	.st52{fill:url(#SVGID_48_);}
	.st53{fill:url(#SVGID_49_);}
	.st54{fill:url(#SVGID_50_);}
	.st55{fill:url(#SVGID_51_);}
	.st56{fill:url(#SVGID_52_);}
	.st57{fill:url(#SVGID_53_);}
	.st58{fill:url(#SVGID_54_);}
	.st59{fill:url(#SVGID_55_);}
	.st60{fill:url(#SVGID_56_);}
	.st61{fill:url(#SVGID_57_);}
	.st62{fill:url(#SVGID_58_);}
	.st63{fill:url(#SVGID_59_);}
	.st64{fill:url(#SVGID_60_);}
	.st65{fill:url(#SVGID_61_);}
	.st66{fill:url(#SVGID_62_);}
	.st67{fill:#B3B3B3;}
	.st68{fill:#FFFFFF;}
	.st69{fill:#471D7B;}
	.st70{fill:#E8E6EC;stroke:#999999;stroke-miterlimit:10;}
	.st71{fill:url(#SVGID_63_);}
	.st72{fill:#4D4D4D;}
	.st73{fill:#E6E6E6;}
	.st74{fill:#FFD800;}
	.st75{fill:#C2820F;}
</style>
<g>
	<path class="st8" d="M124.75,189c-5.07,0-10.14,0-15.21,0c-0.61-0.11-1.23-0.25-1.84-0.31c-3.73-0.36-7.48-0.55-11.18-1.08
		c-11.19-1.61-22.08-4.41-32.65-8.46c-4-1.53-5.41-3.46-5.41-7.71c0-10.72,0-21.44,0-32.16c0-9.19,0-18.38,0-27.57
		c0-4.31,1.37-6.24,5.39-7.68c1.39-0.5,2.75-1.07,4.16-1.48c1.21-0.35,1.65-0.99,1.64-2.28c-0.06-6.07-0.1-12.15,0-18.22
		c0.08-4.95,0-9.95,0.66-14.84c1.65-12.31,7.6-22.38,17.29-30.07c10.84-8.6,23.23-11.88,36.95-9.76
		c12.11,1.88,21.97,7.73,29.64,17.22c7.28,9,10.52,19.43,10.48,30.96c-0.03,8.19,0.03,16.37-0.04,24.56
		c-0.01,1.42,0.45,2.12,1.8,2.49c1.47,0.4,2.88,1,4.32,1.51c3.53,1.26,5.06,3.39,5.08,7.13c0.02,4.01,0.01,8.03,0.01,12.04
		c0,16.16,0,32.32,0,48.48c0,3.61-1.44,5.86-4.53,7.05c-13.19,5.09-26.81,8.41-40.92,9.6C128.5,188.56,126.63,188.8,124.75,189z
		 M86.22,97.52c20.62-4.35,41.24-4.35,61.92,0.02c0.04-0.61,0.09-1.02,0.09-1.44c0-7.5,0.02-15-0.03-22.49
		c-0.01-1.57-0.18-3.16-0.45-4.72c-2.81-16.25-18.13-27.87-35.19-25.41c-12.52,1.8-23.67,11.86-25.77,24.35
		C85.15,77.59,86.17,87.5,86.22,97.52z M110.76,151.77c0,3.27-0.05,6.55,0.03,9.82c0.02,0.97,0.24,2,0.64,2.88
		c1.21,2.66,4.19,4.12,6.93,3.54c3-0.64,5.12-3.11,5.14-6.17c0.04-6.7,0.03-13.41,0-20.11c0-0.92,0.21-1.52,1-2.1
		c3.93-2.84,5.83-6.64,5.37-11.57c-0.73-7.67-8.05-12.96-15.65-11.16c-5.25,1.24-8.61,4.73-9.66,9.97
		c-1.06,5.28,0.82,9.66,5.26,12.8c0.76,0.54,0.96,1.11,0.95,1.96C110.74,145.01,110.76,148.39,110.76,151.77z"/>
</g>
</svg>
