<?xml version="1.0" encoding="utf-8"?>
<!-- Generator: Adobe Illustrator 24.0.2, SVG Export Plug-In . SVG Version: 6.00 Build 0)  -->
<svg version="1.1" id="Capa_1" xmlns="http://www.w3.org/2000/svg" xmlns:xlink="http://www.w3.org/1999/xlink" x="0px" y="0px"
	 viewBox="0 0 216 216" style="enable-background:new 0 0 216 216;" xml:space="preserve">
<style type="text/css">
	.st0{fill:url(#SVGID_1_);}
	.st1{opacity:0.69;fill:none;stroke:#4D4D4D;stroke-width:3;stroke-miterlimit:10;}
	.st2{opacity:0.69;fill:none;stroke:#4D4D4D;stroke-width:3;stroke-linecap:round;stroke-linejoin:round;stroke-miterlimit:10;}
	.st3{opacity:0.6;fill:none;stroke:#4D4D4D;stroke-width:3;stroke-linecap:round;stroke-linejoin:round;stroke-miterlimit:10;}
	.st4{fill:none;}
	.st5{fill:url(#SVGID_2_);}
	.st6{opacity:0.05;}
	.st7{clip-path:url(#SVGID_4_);}
	.st8{fill:#5F27A4;}
	.st9{fill:url(#SVGID_5_);}
	.st10{clip-path:url(#SVGID_7_);}
	.st11{fill:url(#SVGID_8_);}
	.st12{fill:#3C3C3B;}
	.st13{fill:url(#SVGID_9_);}
	.st14{fill:url(#SVGID_10_);}
	.st15{fill:url(#SVGID_11_);}
	.st16{fill:url(#SVGID_12_);}
	.st17{fill:url(#SVGID_13_);}
	.st18{fill:url(#SVGID_14_);}
	.st19{fill:url(#SVGID_15_);}
	.st20{fill:url(#SVGID_16_);}
	.st21{fill:url(#SVGID_17_);}
	.st22{fill:url(#SVGID_18_);}
	.st23{fill:url(#SVGID_19_);}
	.st24{fill:url(#SVGID_20_);}
	.st25{fill:url(#SVGID_21_);}
	.st26{fill:url(#SVGID_22_);}
	.st27{fill:url(#SVGID_23_);}
	.st28{fill:url(#SVGID_24_);}
	.st29{fill:url(#SVGID_25_);}
	.st30{fill:url(#SVGID_26_);}
	.st31{fill:url(#SVGID_27_);}
	.st32{fill:url(#SVGID_28_);}
	.st33{fill:url(#SVGID_29_);}
	.st34{fill:url(#SVGID_30_);}
	.st35{fill:url(#SVGID_31_);}
	.st36{fill:url(#SVGID_32_);}
	.st37{fill:url(#SVGID_33_);}
	.st38{fill:url(#SVGID_34_);}
	.st39{fill:url(#SVGID_35_);}
	.st40{fill:url(#SVGID_36_);}
	.st41{fill:url(#SVGID_37_);}
	.st42{fill:url(#SVGID_38_);}
	.st43{fill:url(#SVGID_39_);}
	.st44{fill:url(#SVGID_40_);}
	.st45{fill:url(#SVGID_41_);}
	.st46{fill:url(#SVGID_42_);}
	.st47{fill:url(#SVGID_43_);}
	.st48{fill:url(#SVGID_44_);}
	.st49{fill:url(#SVGID_45_);}
	.st50{fill:url(#SVGID_46_);}
	.st51{fill:url(#SVGID_47_);}
	.st52{fill:url(#SVGID_48_);}
	.st53{fill:url(#SVGID_49_);}
	.st54{fill:url(#SVGID_50_);}
	.st55{fill:url(#SVGID_51_);}
	.st56{fill:url(#SVGID_52_);}
	.st57{fill:url(#SVGID_53_);}
	.st58{fill:url(#SVGID_54_);}
	.st59{fill:url(#SVGID_55_);}
	.st60{fill:url(#SVGID_56_);}
	.st61{fill:url(#SVGID_57_);}
	.st62{fill:url(#SVGID_58_);}
	.st63{fill:url(#SVGID_59_);}
	.st64{fill:url(#SVGID_60_);}
	.st65{fill:url(#SVGID_61_);}
	.st66{fill:url(#SVGID_62_);}
	.st67{fill:#B3B3B3;}
	.st68{fill:#FFFFFF;}
	.st69{fill:#471D7B;}
	.st70{fill:#E8E6EC;stroke:#999999;stroke-miterlimit:10;}
	.st71{fill:url(#SVGID_63_);}
	.st72{fill:#4D4D4D;}
	.st73{fill:#E6E6E6;}
	.st74{fill:#FFD800;}
	.st75{fill:#C2820F;}
</style>
<g>
	<path class="st8" d="M187.76,58.09L64.94,57.57c-0.17,0-0.34,0.01-0.5,0.03l-1.25,0.16l-5.4-15.78c-0.37-1.08-1.2-1.95-2.26-2.37
		L30.1,29.48c-2.01-0.8-4.29,0.19-5.09,2.19c-0.8,2.01,0.19,4.29,2.19,5.09l23.76,9.45l28.7,83.88l-1.45,0.5
		c-0.87,0.3-1.55,0.95-1.86,1.8l-8.29,22.71c-0.34,0.92-0.2,1.95,0.36,2.75c0.56,0.8,1.48,1.29,2.46,1.29l7.66,0.03l-2.32,2.56
		c-2.47,2.72-3.84,6.23-3.85,9.87c-0.04,8.18,6.59,14.86,14.77,14.9c8.18,0.04,14.87-6.59,14.9-14.77c0.02-3.64-1.32-7.16-3.77-9.9
		l-2.3-2.58l42.61,0.18l-2.32,2.56c-2.47,2.72-3.84,6.23-3.85,9.87c-0.04,8.18,6.59,14.86,14.77,14.9s14.87-6.59,14.9-14.77
		c0.02-3.64-1.32-7.16-3.77-9.9l-2.3-2.58l8.57,0.04c1.66,0.01,3.01-1.34,3.02-3c0.01-1.66-1.34-3.01-3-3.02l-89.43-0.38l6.44-17.65
		l1.49,0.64c0.5,0.21,1.01,0.32,1.51,0.33l80.06,0.34c1.71,0.01,3.21-1.08,3.74-2.71l23.05-70.87c0.39-1.19,0.18-2.5-0.55-3.51
		C190.19,58.7,189.01,58.1,187.76,58.09z M147.28,163.11c4.86,0.02,8.8,3.99,8.78,8.86s-3.99,8.8-8.86,8.78
		c-4.86-0.02-8.8-3.99-8.78-8.86C138.45,167.02,142.42,163.09,147.28,163.11z M87.23,162.85c4.86,0.02,8.8,3.99,8.78,8.86
		c-0.02,4.86-3.99,8.8-8.86,8.78c-4.86-0.02-8.8-3.99-8.78-8.86C78.4,166.77,82.37,162.83,87.23,162.85z M65.81,65.41l37.18,0.16
		l-0.07,15.36l-31.85-0.14L65.81,65.41z M102.72,128.69l-15.28-0.07l-5.11-14.93l20.45,0.09L102.72,128.69z M102.82,105.95
		l-23.17-0.1l-5.89-17.21l29.13,0.12L102.82,105.95z M138.81,128.85l-28.25-0.12l0.06-14.91l28.25,0.12L138.81,128.85z M138.9,106.1
		l-28.25-0.12l0.07-17.18l28.25,0.12L138.9,106.1z M139.01,81.08l-28.25-0.12l0.07-15.36l28.25,0.12L139.01,81.08z M161.86,128.95
		l-15.21-0.07l0.06-14.91l19.99,0.09L161.86,128.95z M169.24,106.23l-22.5-0.1l0.07-17.18l28,0.12L169.24,106.23z M177.37,81.25
		l-30.52-0.13l0.07-15.36l35.44,0.15L177.37,81.25z"/>
</g>
</svg>
