<?xml version="1.0" encoding="utf-8"?>
<!-- Generator: Adobe Illustrator 24.0.2, SVG Export Plug-In . SVG Version: 6.00 Build 0)  -->
<svg version="1.1" id="Capa_1" xmlns="http://www.w3.org/2000/svg" xmlns:xlink="http://www.w3.org/1999/xlink" x="0px" y="0px"
	 viewBox="0 0 216 216" style="enable-background:new 0 0 216 216;" xml:space="preserve">
<style type="text/css">
	.st0{fill:url(#SVGID_1_);}
	.st1{opacity:0.69;fill:none;stroke:#4D4D4D;stroke-width:3;stroke-miterlimit:10;}
	.st2{opacity:0.69;fill:none;stroke:#4D4D4D;stroke-width:3;stroke-linecap:round;stroke-linejoin:round;stroke-miterlimit:10;}
	.st3{opacity:0.6;fill:none;stroke:#4D4D4D;stroke-width:3;stroke-linecap:round;stroke-linejoin:round;stroke-miterlimit:10;}
	.st4{fill:none;}
	.st5{fill:url(#SVGID_2_);}
	.st6{opacity:0.05;}
	.st7{clip-path:url(#SVGID_4_);}
	.st8{fill:#5F27A4;}
	.st9{fill:url(#SVGID_5_);}
	.st10{clip-path:url(#SVGID_7_);}
	.st11{fill:url(#SVGID_8_);}
	.st12{fill:#3C3C3B;}
	.st13{fill:url(#SVGID_9_);}
	.st14{fill:url(#SVGID_10_);}
	.st15{fill:url(#SVGID_11_);}
	.st16{fill:url(#SVGID_12_);}
	.st17{fill:url(#SVGID_13_);}
	.st18{fill:url(#SVGID_14_);}
	.st19{fill:url(#SVGID_15_);}
	.st20{fill:url(#SVGID_16_);}
	.st21{fill:url(#SVGID_17_);}
	.st22{fill:url(#SVGID_18_);}
	.st23{fill:url(#SVGID_19_);}
	.st24{fill:url(#SVGID_20_);}
	.st25{fill:url(#SVGID_21_);}
	.st26{fill:url(#SVGID_22_);}
	.st27{fill:url(#SVGID_23_);}
	.st28{fill:url(#SVGID_24_);}
	.st29{fill:url(#SVGID_25_);}
	.st30{fill:url(#SVGID_26_);}
	.st31{fill:url(#SVGID_27_);}
	.st32{fill:url(#SVGID_28_);}
	.st33{fill:url(#SVGID_29_);}
	.st34{fill:url(#SVGID_30_);}
	.st35{fill:url(#SVGID_31_);}
	.st36{fill:url(#SVGID_32_);}
	.st37{fill:url(#SVGID_33_);}
	.st38{fill:url(#SVGID_34_);}
	.st39{fill:url(#SVGID_35_);}
	.st40{fill:url(#SVGID_36_);}
	.st41{fill:url(#SVGID_37_);}
	.st42{fill:url(#SVGID_38_);}
	.st43{fill:url(#SVGID_39_);}
	.st44{fill:url(#SVGID_40_);}
	.st45{fill:url(#SVGID_41_);}
	.st46{fill:url(#SVGID_42_);}
	.st47{fill:url(#SVGID_43_);}
	.st48{fill:url(#SVGID_44_);}
	.st49{fill:url(#SVGID_45_);}
	.st50{fill:url(#SVGID_46_);}
	.st51{fill:url(#SVGID_47_);}
	.st52{fill:url(#SVGID_48_);}
	.st53{fill:url(#SVGID_49_);}
	.st54{fill:url(#SVGID_50_);}
	.st55{fill:url(#SVGID_51_);}
	.st56{fill:url(#SVGID_52_);}
	.st57{fill:url(#SVGID_53_);}
	.st58{fill:url(#SVGID_54_);}
	.st59{fill:url(#SVGID_55_);}
	.st60{fill:url(#SVGID_56_);}
	.st61{fill:url(#SVGID_57_);}
	.st62{fill:url(#SVGID_58_);}
	.st63{fill:url(#SVGID_59_);}
	.st64{fill:url(#SVGID_60_);}
	.st65{fill:url(#SVGID_61_);}
	.st66{fill:url(#SVGID_62_);}
	.st67{fill:#B3B3B3;}
	.st68{fill:#FFFFFF;}
	.st69{fill:#471D7B;}
	.st70{fill:#E8E6EC;stroke:#999999;stroke-miterlimit:10;}
	.st71{fill:url(#SVGID_63_);}
	.st72{fill:#4D4D4D;}
	.st73{fill:#E6E6E6;}
	.st74{fill:#FFD800;}
	.st75{fill:#C2820F;}
</style>
<g class="st6">
	<defs>
		<path id="SVGID_6_" class="st6" d="M918.57,991.99H335.85c-26.31,0-47.64-21.33-47.64-47.64V-439.36
			c0-26.31,21.33-47.64,47.64-47.64h582.71c26.31,0,47.64,21.33,47.64,47.64V944.35C966.21,970.66,944.88,991.99,918.57,991.99z"/>
	</defs>
	<clipPath id="SVGID_1_">
		<use xlink:href="#SVGID_6_"  style="overflow:visible;"/>
	</clipPath>
	<g style="clip-path:url(#SVGID_1_);">
		<g>
			<path class="st8" d="M86.51-66.55L29.52-50.99c-0.08,0.02-0.16,0.05-0.23,0.08l-0.56,0.24l-4.53-6.62
				c-0.31-0.45-0.8-0.75-1.35-0.81L9.75-59.52c-1.03-0.11-1.97,0.64-2.08,1.67c-0.11,1.03,0.64,1.97,1.67,2.08l12.23,1.32
				l24.1,35.18l-0.61,0.42c-0.37,0.25-0.6,0.64-0.63,1.07L43.52-6.18c-0.04,0.47,0.16,0.93,0.52,1.23c0.36,0.3,0.85,0.41,1.3,0.28
				l3.55-0.97l-0.75,1.48c-0.79,1.58-0.98,3.38-0.51,5.07c1.04,3.8,4.97,6.04,8.77,5c3.8-1.04,6.04-4.97,5-8.77
				c-0.46-1.69-1.53-3.15-3.02-4.11l-1.4-0.9l19.77-5.4l-0.75,1.48c-0.79,1.58-0.98,3.38-0.52,5.07c1.04,3.8,4.97,6.04,8.77,5
				s6.04-4.97,5-8.77c-0.46-1.69-1.53-3.15-3.02-4.11l-1.4-0.9l3.98-1.09c0.77-0.21,1.23-1.01,1.01-1.78
				c-0.21-0.77-1.01-1.23-1.78-1.01L46.56-8.01l0.71-9.01l0.77,0.1c0.26,0.03,0.51,0.02,0.74-0.04L85.94-27.1
				c0.79-0.22,1.35-0.91,1.39-1.74l1.56-35.81c0.03-0.6-0.24-1.18-0.71-1.56C87.71-66.58,87.09-66.71,86.51-66.55z M81.26-12.67
				c2.26-0.62,4.59,0.72,5.21,2.97S85.76-5.1,83.5-4.48c-2.26,0.62-4.59-0.72-5.21-2.97S79.01-12.05,81.26-12.67z M53.4-5.06
				c2.26-0.62,4.59,0.72,5.21,2.97c0.62,2.26-0.72,4.59-2.97,5.21c-2.26,0.62-4.59-0.72-5.21-2.97C49.81-2.1,51.14-4.44,53.4-5.06z
				 M30.93-47.46l17.25-4.71l1.95,7.13l-14.78,4.04L30.93-47.46z M56.18-22.88l-7.09,1.94l-4.29-6.26l9.49-2.59L56.18-22.88z
				 M53.3-33.44L42.55-30.5l-4.94-7.22l13.52-3.69L53.3-33.44z M72.93-27.46l-13.11,3.58l-1.89-6.92l13.11-3.58L72.93-27.46z
				 M70.04-38.01l-13.11,3.58l-2.18-7.97l13.11-3.58L70.04-38.01z M66.87-49.62l-13.11,3.58l-1.95-7.13l13.11-3.58L66.87-49.62z
				 M83.62-30.38l-7.06,1.93l-1.89-6.92l9.27-2.53L83.62-30.38z M84.12-41.86L73.68-39l-2.18-7.97l13-3.55L84.12-41.86z
				 M84.67-54.48l-14.16,3.87l-1.95-7.13l16.45-4.49L84.67-54.48z"/>
		</g>
		<g>
			<path class="st8" d="M85.12,59.98c-1.82-2.95-4.75-4.02-8.53-2.99c-1.43,0.39-2.86,0.78-4.3,1.17
				c-3.31-10.46-13.65-18.05-24.96-18.2c-1.77-0.02-3.55,0.17-5.33,0.27c-1.55,0.42-3.1,0.85-4.64,1.27
				c-0.31,0.19-0.6,0.43-0.94,0.57c-9.32,4.11-14.72,11.25-16.31,21.26c-0.47,2.98-0.44,5.98,0.31,8.99c-1.46,0.4-2.92,0.8-4.38,1.2
				c-0.36,0.1-0.71,0.2-1.06,0.33c-2.98,1.14-4.68,3.51-4.73,6.61c-0.05,2.9,1.64,5.28,4.58,6.52c0.52,0.22,1.15,0.56,1.39,1.03
				c4.39,8.4,8.92,16.74,12.98,25.3c1.79,3.77,4.14,5.96,8.31,6.07c14.89-4.07,29.77-8.13,44.66-12.2c3.57-2.15,4.61-5.15,4.22-9.36
				c-0.88-9.43-1.23-18.92-1.72-28.38c-0.04-0.85,0.26-1.79,0.63-2.58C86.39,64.5,86.51,62.24,85.12,59.98z M39.39,46.03
				c4.99-1.8,10.05-1.76,15.02,0.09c6.53,2.42,10.85,6.99,13.29,13.3c-14.22,3.88-28.44,7.76-42.66,11.65
				C23.08,59.31,29.85,49.48,39.39,46.03z M81.06,65.06c-0.56,1-1.03,2.25-0.97,3.36c0.56,10.45,1.25,20.88,1.9,31.32
				c0.11,1.81-0.75,2.94-2.44,3.44c-1.71,0.51-3.45,0.96-5.17,1.43c-11.78,3.22-23.57,6.44-35.35,9.65
				c-3.29,0.9-4.01,0.47-5.52-2.51c-4.64-9.17-9.33-18.31-14.09-27.42c-0.36-0.69-1.36-1.25-2.16-1.45
				c-1.33-0.33-2.41-0.81-2.49-2.28c-0.07-1.52,0.92-2.32,2.32-2.69c5.3-1.44,10.59-2.89,15.89-4.34c4.88-1.33,9.76-2.67,14.64-4
				c9.88-2.7,19.76-5.4,29.64-8.08c0.76-0.21,1.6-0.42,2.35-0.31C81.46,61.44,82.02,63.35,81.06,65.06z"/>
			<path class="st8" d="M38.33,95.42c-0.8-2.91-1.61-5.82-2.38-8.73c-0.31-1.18-0.9-1.9-2.22-1.58c-1.32,0.32-1.56,1.23-1.24,2.42
				c1.59,5.82,3.19,11.64,4.77,17.47c0.33,1.21,1.04,1.84,2.29,1.47c1.25-0.37,1.47-1.29,1.12-2.49
				C39.86,101.13,39.11,98.27,38.33,95.42z"/>
			<path class="st8" d="M49.75,92.23c-0.8-2.91-1.61-5.82-2.38-8.74c-0.32-1.2-0.96-1.86-2.26-1.51c-1.32,0.36-1.47,1.29-1.15,2.47
				c1.58,5.76,3.16,11.52,4.72,17.29c0.32,1.17,0.9,1.94,2.2,1.62c1.39-0.34,1.58-1.3,1.22-2.58
				C51.28,97.95,50.53,95.09,49.75,92.23z"/>
			<path class="st8" d="M72.71,86.16c-0.81-2.97-1.63-5.94-2.43-8.91c-0.32-1.18-0.95-1.88-2.26-1.51
				c-1.29,0.37-1.47,1.27-1.14,2.46c1.59,5.76,3.17,11.52,4.72,17.29c0.32,1.18,0.9,1.93,2.2,1.62c1.4-0.34,1.58-1.31,1.22-2.58
				C74.22,91.75,73.48,88.95,72.71,86.16z"/>
			<path class="st8" d="M56.59,78.86c-1.44,0.39-1.47,1.41-1.13,2.63c1.58,5.7,3.14,11.4,4.67,17.11c0.34,1.27,0.99,2.02,2.36,1.6
				c1.29-0.39,1.4-1.36,1.07-2.52c-0.8-2.84-1.57-5.7-2.34-8.55c-0.78-2.85-1.57-5.7-2.33-8.56C58.57,79.36,58.04,78.47,56.59,78.86
				z"/>
		</g>
		<g>
			<path class="st8" d="M202.63,27.88c-1.82-2.95-4.75-4.02-8.53-2.99c-1.43,0.39-2.86,0.78-4.3,1.17
				c-3.31-10.46-13.65-18.05-24.96-18.2c-1.77-0.02-3.55,0.17-5.33,0.27c-1.55,0.42-3.1,0.85-4.64,1.27
				c-0.31,0.19-0.6,0.43-0.94,0.57c-9.32,4.11-14.72,11.25-16.31,21.26c-0.47,2.98-0.44,5.98,0.31,8.99c-1.46,0.4-2.92,0.8-4.38,1.2
				c-0.36,0.1-0.71,0.2-1.06,0.33c-2.98,1.14-4.68,3.51-4.73,6.61c-0.05,2.9,1.64,5.28,4.58,6.52c0.52,0.22,1.15,0.56,1.39,1.03
				c4.39,8.4,8.92,16.74,12.98,25.3c1.79,3.77,4.14,5.96,8.31,6.07c14.89-4.07,29.77-8.13,44.66-12.2c3.57-2.15,4.61-5.15,4.22-9.36
				c-0.88-9.43-1.23-18.92-1.72-28.38c-0.04-0.85,0.26-1.79,0.63-2.58C203.91,32.41,204.03,30.14,202.63,27.88z M156.91,13.93
				c4.99-1.8,10.05-1.76,15.02,0.09c6.53,2.42,10.85,6.99,13.29,13.3c-14.22,3.88-28.44,7.76-42.66,11.65
				C140.6,27.21,147.37,17.39,156.91,13.93z M198.58,32.97c-0.56,1-1.03,2.25-0.97,3.36c0.56,10.45,1.25,20.88,1.9,31.32
				c0.11,1.81-0.75,2.94-2.44,3.44c-1.71,0.51-3.45,0.96-5.17,1.43c-11.78,3.22-23.57,6.44-35.35,9.65
				c-3.29,0.9-4.01,0.47-5.52-2.51c-4.64-9.17-9.33-18.31-14.09-27.42c-0.36-0.69-1.36-1.25-2.16-1.45
				c-1.33-0.33-2.41-0.81-2.49-2.28c-0.07-1.52,0.92-2.32,2.32-2.69c5.3-1.44,10.59-2.89,15.89-4.34c4.88-1.33,9.76-2.67,14.64-4
				c9.88-2.7,19.76-5.4,29.64-8.08c0.76-0.21,1.6-0.42,2.35-0.31C198.98,29.35,199.54,31.25,198.58,32.97z"/>
			<path class="st8" d="M155.84,63.32c-0.8-2.91-1.61-5.82-2.38-8.73c-0.31-1.18-0.9-1.9-2.22-1.58c-1.32,0.32-1.56,1.23-1.24,2.42
				c1.59,5.82,3.19,11.64,4.77,17.47c0.33,1.21,1.04,1.84,2.29,1.47c1.25-0.37,1.47-1.29,1.12-2.49
				C157.38,69.03,156.62,66.18,155.84,63.32z"/>
			<path class="st8" d="M167.27,60.14c-0.8-2.91-1.61-5.82-2.38-8.74c-0.32-1.2-0.96-1.86-2.26-1.51c-1.32,0.36-1.47,1.29-1.15,2.47
				c1.58,5.76,3.16,11.52,4.72,17.29c0.32,1.17,0.9,1.94,2.2,1.62c1.39-0.34,1.58-1.3,1.22-2.58
				C168.8,65.85,168.05,62.99,167.27,60.14z"/>
			<path class="st8" d="M190.23,54.06c-0.81-2.97-1.63-5.94-2.43-8.91c-0.32-1.18-0.95-1.88-2.26-1.51
				c-1.29,0.37-1.47,1.27-1.14,2.46c1.59,5.76,3.17,11.52,4.72,17.29c0.32,1.18,0.9,1.93,2.2,1.62c1.4-0.34,1.58-1.31,1.22-2.58
				C191.74,59.65,191,56.85,190.23,54.06z"/>
			<path class="st8" d="M174.11,46.76c-1.44,0.39-1.47,1.41-1.13,2.63c1.58,5.7,3.14,11.4,4.67,17.11c0.34,1.27,0.99,2.02,2.36,1.6
				c1.29-0.39,1.4-1.36,1.07-2.52c-0.8-2.84-1.57-5.7-2.34-8.55c-0.78-2.85-1.57-5.7-2.33-8.56
				C176.09,47.26,175.56,46.37,174.11,46.76z"/>
		</g>
		<g>
			<g>
				<g>
					<path class="st8" d="M67.51,226.31l-7.54,2.06l-7.24-26.52c0.44-0.02,0.87-0.09,1.3-0.2c3.47-0.95,5.51-4.53,4.57-8
						c-0.03-0.09-0.06-0.18-0.1-0.26l-5.6-10.62c-0.28-0.54-0.91-0.81-1.49-0.65l-3.77,1.03l-1.03-3.77
						c-0.19-0.69-0.91-1.1-1.6-0.91l-10.05,2.74l-0.69-2.51l2.51-0.69c0.69-0.19,1.1-0.91,0.91-1.6l-3.43-12.56
						c-0.19-0.69-0.91-1.1-1.6-0.91l-40.2,10.98c-0.69,0.19-1.1,0.91-0.91,1.6l3.43,12.56c0.19,0.69,0.91,1.1,1.6,0.91l2.51-0.69
						l0.69,2.51l-10.05,2.74c-0.69,0.19-1.1,0.91-0.91,1.6l1.03,3.77l-3.77,1.03c-0.59,0.16-0.99,0.71-0.96,1.32l0.58,11.99
						c0,0.09,0.02,0.19,0.04,0.28c0.95,3.47,4.53,5.51,8,4.57c0.42-0.12,0.83-0.28,1.22-0.49l7.24,26.52l-7.54,2.06
						c-0.69,0.19-1.1,0.91-0.91,1.6l1.37,5.03c0.19,0.69,0.91,1.1,1.6,0.91l72.86-19.9c0.69-0.19,1.1-0.91,0.91-1.6l-1.37-5.03
						C68.92,226.53,68.2,226.12,67.51,226.31z M51.07,184.9l5.04,9.56c0.49,2.05-0.74,4.12-2.77,4.67c-0.66,0.18-1.36,0.18-2.02,0
						c-1.02-0.27-1.89-0.94-2.41-1.86c-0.16-0.28-0.29-0.57-0.37-0.88c-0.01-0.05-0.03-0.09-0.05-0.14l-3.81-9.61L51.07,184.9z
						 M45.68,210.67l-12.56,3.43c-0.69,0.19-1.1,0.91-0.91,1.6l5.15,18.84l-32.66,8.92l-7.56-27.68c0.38-0.48,0.69-1.01,0.92-1.58
						c2.81,2.22,6.88,1.74,9.09-1.07c0.4-0.51,0.72-1.07,0.96-1.67c2.81,2.22,6.88,1.74,9.09-1.07c0.4-0.51,0.72-1.07,0.96-1.67
						c2.81,2.22,6.88,1.74,9.09-1.07c0.4-0.51,0.72-1.07,0.96-1.67c2.81,2.22,6.88,1.74,9.09-1.07c0.4-0.51,0.72-1.07,0.96-1.67
						c2.81,2.22,6.88,1.73,9.1-1.07c0.4-0.51,0.72-1.07,0.95-1.67c0.49,0.37,1.02,0.67,1.59,0.89l7.56,27.69l-5.03,1.37l-5.15-18.84
						C47.09,210.89,46.38,210.48,45.68,210.67z M45.11,213.53l4.8,17.59l-10.05,2.74l-4.8-17.59L45.11,213.53z M-1.7,210.18
						l-1.63-10.42l7.52-2.05l1.61,10.21c0.01,0.05,0.01,0.1,0.02,0.14c0.09,0.32,0.13,0.65,0.13,0.98c0.02,2.16-1.71,3.92-3.87,3.94
						c-1.42,0.01-2.73-0.74-3.43-1.98C-1.5,210.74-1.62,210.47-1.7,210.18z M8.35,207.44l-1.63-10.42l6.41-1.75l2.74,10.05
						c0.09,0.32,0.13,0.65,0.13,0.98c0.02,2.16-1.71,3.92-3.87,3.94c-1.42,0.01-2.73-0.74-3.43-1.98
						C8.55,208,8.43,207.72,8.35,207.44z M18.38,204.63l-2.74-10.05l7.54-2.06l2.74,10.05c0.09,0.32,0.13,0.65,0.13,0.98
						c0.02,2.16-1.71,3.92-3.87,3.94c-1.42,0.01-2.73-0.74-3.43-1.98C18.59,205.23,18.46,204.94,18.38,204.63z M28.43,201.88
						l-2.74-10.05l6.41-1.75l3.89,9.81c0.08,0.3,0.12,0.61,0.11,0.91c0.02,2.16-1.71,3.92-3.87,3.94c-1.42,0.01-2.73-0.74-3.43-1.98
						C28.64,202.49,28.51,202.19,28.43,201.88z M34.63,189.39l7.52-2.05l3.89,9.81c0.08,0.3,0.12,0.61,0.11,0.91
						c0.02,2.16-1.71,3.92-3.87,3.94c-1.42,0.01-2.73-0.74-3.43-1.98c-0.16-0.28-0.29-0.57-0.37-0.88
						c-0.01-0.05-0.03-0.09-0.05-0.14L34.63,189.39z M-2.87,186.13l-2.74-10.05l37.69-10.29l2.74,10.05L-2.87,186.13z M31.74,179.38
						l0.69,2.51l-30.15,8.23l-0.69-2.51L31.74,179.38z M-8.35,195.73l52.76-14.41l0.69,2.51l-52.76,14.41L-8.35,195.73z
						 M-6.97,215.6c-2.03,0.56-4.14-0.6-4.76-2.61l-0.52-10.79l6.38-1.74l1.61,10.21c0.01,0.05,0.02,0.09,0.03,0.14
						c0.09,0.32,0.13,0.65,0.13,0.98c0.01,1.04-0.39,2.05-1.13,2.79C-5.7,215.07-6.31,215.42-6.97,215.6z M67.62,231.68
						l-70.35,19.21l-0.69-2.51l70.35-19.21L67.62,231.68z"/>
				</g>
			</g>
		</g>
		<g>
			<g>
				<g>
					<path class="st8" d="M186.09,193.92l-7.54,2.06l-7.24-26.52c0.44-0.02,0.87-0.09,1.3-0.2c3.47-0.95,5.51-4.53,4.57-8
						c-0.03-0.09-0.06-0.18-0.1-0.26l-5.6-10.62c-0.28-0.54-0.91-0.81-1.49-0.65l-3.77,1.03l-1.03-3.77
						c-0.19-0.69-0.91-1.1-1.6-0.91l-10.05,2.74l-0.69-2.51l2.51-0.69c0.69-0.19,1.1-0.91,0.91-1.6l-3.43-12.56
						c-0.19-0.69-0.91-1.1-1.6-0.91l-40.2,10.98c-0.69,0.19-1.1,0.91-0.91,1.6l3.43,12.56c0.19,0.69,0.91,1.1,1.6,0.91l2.51-0.69
						l0.69,2.51l-10.05,2.74c-0.69,0.19-1.1,0.91-0.91,1.6l1.03,3.77l-3.77,1.03c-0.59,0.16-0.99,0.71-0.96,1.32l0.58,11.99
						c0,0.1,0.02,0.19,0.04,0.28c0.95,3.47,4.53,5.51,8,4.57c0.42-0.12,0.83-0.28,1.22-0.49l7.24,26.52l-7.54,2.06
						c-0.69,0.19-1.1,0.91-0.91,1.6l1.37,5.03c0.19,0.69,0.91,1.1,1.6,0.91l72.86-19.9c0.69-0.19,1.1-0.91,0.91-1.6l-1.37-5.03
						C187.5,194.14,186.79,193.73,186.09,193.92z M169.66,152.51l5.04,9.56c0.49,2.05-0.74,4.12-2.77,4.67
						c-0.66,0.18-1.36,0.18-2.02,0c-1.02-0.27-1.89-0.94-2.41-1.86c-0.16-0.28-0.29-0.57-0.37-0.88c-0.01-0.05-0.03-0.09-0.05-0.14
						l-3.81-9.61L169.66,152.51z M164.27,178.28l-12.56,3.43c-0.69,0.19-1.1,0.91-0.91,1.6l5.15,18.84l-32.66,8.92l-7.56-27.68
						c0.38-0.48,0.69-1.01,0.92-1.58c2.81,2.22,6.88,1.74,9.09-1.07c0.4-0.51,0.72-1.07,0.96-1.67c2.81,2.22,6.88,1.74,9.09-1.07
						c0.4-0.51,0.72-1.07,0.96-1.67c2.81,2.22,6.88,1.74,9.09-1.07c0.4-0.51,0.72-1.07,0.96-1.67c2.81,2.22,6.88,1.74,9.09-1.07
						c0.4-0.51,0.72-1.07,0.96-1.67c2.81,2.22,6.88,1.73,9.1-1.07c0.4-0.51,0.72-1.07,0.95-1.67c0.49,0.37,1.02,0.67,1.59,0.89
						l7.56,27.69l-5.03,1.37l-5.15-18.84C165.68,178.5,164.97,178.09,164.27,178.28z M163.7,181.14l4.8,17.59l-10.05,2.74
						l-4.8-17.59L163.7,181.14z M116.89,177.79l-1.63-10.42l7.52-2.05l1.61,10.21c0.01,0.05,0.01,0.1,0.02,0.14
						c0.09,0.32,0.13,0.65,0.13,0.98c0.02,2.16-1.71,3.92-3.87,3.94c-1.42,0.01-2.73-0.74-3.43-1.98
						C117.09,178.36,116.97,178.08,116.89,177.79z M126.94,175.05l-1.63-10.42l6.41-1.75l2.74,10.05c0.09,0.32,0.13,0.65,0.13,0.98
						c0.02,2.16-1.71,3.92-3.87,3.94c-1.42,0.01-2.73-0.74-3.43-1.98C127.14,175.61,127.02,175.34,126.94,175.05z M136.97,172.24
						l-2.74-10.05l7.54-2.06l2.74,10.05c0.09,0.32,0.13,0.65,0.13,0.98c0.02,2.16-1.71,3.92-3.87,3.94
						c-1.42,0.01-2.73-0.74-3.43-1.98C137.18,172.85,137.05,172.55,136.97,172.24z M147.02,169.49l-2.74-10.05l6.41-1.75l3.89,9.81
						c0.08,0.3,0.12,0.61,0.11,0.91c0.02,2.16-1.71,3.92-3.87,3.94c-1.42,0.01-2.73-0.74-3.43-1.98
						C147.23,170.1,147.1,169.8,147.02,169.49z M153.22,157l7.52-2.05l3.89,9.81c0.08,0.3,0.12,0.61,0.11,0.91
						c0.02,2.16-1.71,3.92-3.87,3.94c-1.42,0.01-2.73-0.74-3.43-1.98c-0.16-0.28-0.29-0.57-0.37-0.88
						c-0.01-0.05-0.03-0.09-0.05-0.14L153.22,157z M115.72,153.74l-2.74-10.05l37.69-10.29l2.74,10.05L115.72,153.74z
						 M150.33,146.99l0.69,2.51l-30.15,8.23l-0.69-2.51L150.33,146.99z M110.24,163.34l52.76-14.41l0.69,2.51l-52.76,14.41
						L110.24,163.34z M111.62,183.21c-2.03,0.56-4.14-0.6-4.76-2.61l-0.52-10.79l6.38-1.74l1.61,10.21
						c0.01,0.05,0.02,0.09,0.03,0.14c0.09,0.32,0.13,0.65,0.13,0.98c0.01,1.04-0.39,2.05-1.13,2.79
						C112.89,182.68,112.28,183.03,111.62,183.21z M186.21,199.29l-70.35,19.21l-0.69-2.51l70.35-19.21L186.21,199.29z"/>
				</g>
			</g>
			<g>
				<g>
					<path class="st8" d="M144.58,184.33l-20.1,5.49c-0.69,0.19-1.1,0.91-0.91,1.6l3.43,12.56c0.19,0.69,0.91,1.1,1.6,0.91
						l20.1-5.49c0.69-0.19,1.1-0.91,0.91-1.6l-3.43-12.56C145.99,184.55,145.27,184.14,144.58,184.33z M146.75,197.24l-17.59,4.8
						l-2.74-10.05l17.59-4.8L146.75,197.24z"/>
				</g>
			</g>
		</g>
	</g>
	<g style="clip-path:url(#SVGID_1_);">
	</g>
</g>
<g>
	<g>
		<path class="st8" d="M117,39.34c0,3.31,0,5.85,0,9.02c-26.43,0-52.66,0-79.29,0c0,41.68,0,82.73,0,124.52c1.93,0,3.89,0,5.86,0
			c37.28,0,74.55,0,111.83,0c9.03,0,11.89-2.85,11.9-11.99c0.03-19.64,0.01-39.29,0.01-59.4c2.98,0,5.63,0,8.62,0
			c0.13,0.51,0.44,1.18,0.44,1.85c0.03,20.21,0.15,40.43,0,60.64c-0.08,10.47-7.42,17.91-17.93,17.95
			c-41.36,0.15-82.71,0.05-124.07,0.13c-4.52,0.01-6.27-1.99-6.26-6.41c0.06-43.21,0.06-86.42,0-129.63
			c-0.01-3.97,1.26-6.63,5.55-6.64C61.24,39.31,88.84,39.34,117,39.34z"/>
		<path class="st8" d="M175.62,76.53c-20.33,20.82-41,41.3-61.62,61.83c-1.12,1.11-2.66,2.05-4.18,2.46
			c-12.85,3.49-25.72,6.86-38.6,10.23c-5.91,1.55-8.59-1.02-7.03-7c3.22-12.34,6.52-24.66,10.07-36.91
			c0.68-2.34,2.36-4.62,4.11-6.39c19.71-19.86,39.5-39.66,59.34-59.4c9.33-9.28,19.4-9.23,28.76-0.04c3.17,3.11,6.75,5.95,9.33,9.51
			C188.16,63.17,178.74,73.33,175.62,76.53z M87.39,105.72c7.53,7.83,15.03,15.63,22.32,23.22c16.35-16.33,32.83-32.78,48.82-48.74
			c-7.64-7.68-15.4-15.49-22.74-22.87C119.57,73.54,103.1,90.01,87.39,105.72z M143.45,48.97c7.83,7.97,15.42,15.71,23.03,23.45
			c7.48-6.18,7.71-10.3,0.85-17.21c-2.22-2.23-4.44-4.46-6.68-6.68C153.68,41.63,149.69,41.78,143.45,48.97z M81.37,116.02
			c-2.17,8.09-4.28,15.93-6.6,24.59c8.83-2.42,16.64-4.57,23.84-6.55C92.85,128.03,87.31,122.24,81.37,116.02z"/>
	</g>
</g>
</svg>
