<?xml version="1.0" encoding="utf-8"?>
<!-- Generator: Adobe Illustrator 24.0.2, SVG Export Plug-In . SVG Version: 6.00 Build 0)  -->
<svg version="1.1" id="Capa_1" xmlns="http://www.w3.org/2000/svg" xmlns:xlink="http://www.w3.org/1999/xlink" x="0px" y="0px"
	 viewBox="0 0 161 161" style="enable-background:new 0 0 161 161;" xml:space="preserve">
<style type="text/css">
	.st0{fill:#FFFFFF;}
	.st1{fill:#5F27A4;}
	.st2{fill:none;stroke:#FFFFFF;stroke-width:2;stroke-miterlimit:10;}
	.st3{opacity:0.69;fill:none;stroke:#4D4D4D;stroke-width:3;stroke-miterlimit:10;}
	.st4{opacity:0.69;fill:none;stroke:#4D4D4D;stroke-width:3;stroke-linecap:round;stroke-linejoin:round;stroke-miterlimit:10;}
	.st5{opacity:0.69;fill:none;stroke:#FFFFFF;stroke-width:3;stroke-linecap:round;stroke-linejoin:round;stroke-miterlimit:10;}
	.st6{opacity:0.6;fill:none;stroke:#4D4D4D;stroke-width:3;stroke-linecap:round;stroke-linejoin:round;stroke-miterlimit:10;}
	.st7{fill:none;}
	.st8{opacity:0.6;}
	.st9{clip-path:url(#SVGID_2_);}
	.st10{fill:none;stroke:#000000;stroke-width:2;stroke-miterlimit:10;}
	.st11{opacity:0.39;}
	.st12{clip-path:url(#SVGID_4_);fill:none;stroke:#FFFFFF;stroke-miterlimit:10;}
	.st13{fill:#787878;}
	.st14{fill:#4C4C4C;}
	.st15{fill:#BEBEBE;}
	.st16{fill:#B1B1B1;}
	.st17{opacity:0.2;}
	.st18{fill:#939393;}
	.st19{fill:#E1E1E1;}
	.st20{opacity:0.1;}
	.st21{opacity:0.2;fill:#4C4C4C;}
	.st22{fill:#B9B9B9;}
	.st23{fill:#FFFFFF;stroke:#FFFFFF;stroke-width:0.75;stroke-miterlimit:10;}
	.st24{fill:#D5D5D5;}
	.st25{clip-path:url(#SVGID_6_);}
	.st26{fill:#292929;}
	.st27{fill:#F0F0F0;}
	.st28{fill:#555555;}
	.st29{fill:#ADADAD;}
	.st30{opacity:0.5;}
	.st31{fill:none;stroke:#292929;stroke-miterlimit:10;}
	.st32{fill:#FFFFFF;stroke:#CCCCCC;stroke-width:3;stroke-miterlimit:10;}
	.st33{fill:url(#SVGID_7_);}
	.st34{fill:#DFDFDF;}
	.st35{fill:#C5C5C5;}
	.st36{fill:#A8A8A8;}
	.st37{fill:#898989;}
	.st38{fill:#141414;}
	.st39{fill:#888888;}
	.st40{fill:#656565;}
	.st41{fill:#616161;}
	.st42{fill:#A5A5A5;}
	.st43{fill:#4F4F4F;}
	.st44{fill:#2D2D2D;}
	.st45{fill:#C7C7C7;}
	.st46{fill:#999999;}
	.st47{fill:#838383;}
	.st48{fill:#262626;}
	.st49{fill:#9A9A9A;}
	.st50{fill:#C9C9C9;}
	.st51{fill:#39B54A;}
	.st52{fill:url(#SVGID_8_);}
	.st53{fill:#ED1C24;}
	.st54{fill:#009245;}
	.st55{fill:#C1272D;}
	.st56{fill:#F2F2F2;}
	.st57{fill:none;stroke:#009245;stroke-width:2;stroke-miterlimit:10;}
	.st58{fill:none;stroke:#C1272D;stroke-width:2;stroke-miterlimit:10;}
	.st59{fill:#0071BC;}
	.st60{fill:none;stroke:#FFFFFF;stroke-miterlimit:10;}
	.st61{fill:#EB5B27;}
</style>
<rect class="st0" width="161" height="161"/>
<g>
	<path class="st1" d="M80.3,111.6c-14.4,0-28.8,0-43.2,0c-5.61,0-10.33-4-11.22-9.53c-0.11-0.68-0.16-1.39-0.16-2.08
		c-0.01-6.84-0.01-13.69-0.01-20.53c0-5.07,0.02-10.14,0.02-15.21c0-5.24,0-10.49-0.03-15.73c-0.03-5.32,3.96-10.19,9.2-11.08
		c1.35-0.23,2.74-0.21,4.11-0.22c4.1-0.03,8.21-0.01,12.31-0.01c14.61,0,29.21,0,43.82,0c4.39,0,8.78,0,13.17,0
		c5.05,0,10.11,0.01,15.16-0.01c2.59-0.01,4.94,0.71,6.99,2.29c1.68,1.29,2.96,2.91,3.73,4.92c0.57,1.49,0.81,3.01,0.81,4.59
		c-0.01,6.32,0,12.64,0,18.96c0,9.72,0,19.45-0.01,29.17c0,1.39,0.06,2.79-0.08,4.17c-0.4,3.99-2.42,6.96-5.9,8.92
		c-1.73,0.98-3.62,1.36-5.61,1.36C109.04,111.6,94.67,111.6,80.3,111.6z M128.08,43.72c-0.2-0.17-0.37-0.31-0.54-0.45
		c-1.75-1.33-3.73-1.97-5.92-1.98c-5.76,0-11.53,0-17.29,0c-9.17,0-18.34,0-27.51,0c-1.53,0-3.07,0-4.6,0c-8.08,0-16.15,0-24.23,0
		c-3.31,0-6.62-0.01-9.93,0c-2.12,0.01-4.04,0.67-5.74,1.93c-0.2,0.15-0.38,0.32-0.58,0.49c0.14,0.14,0.25,0.23,0.35,0.33
		c2.31,2.12,4.62,4.24,6.94,6.35c6.67,6.1,13.35,12.2,20.02,18.3c5.26,4.81,10.5,9.63,15.79,14.41c3.1,2.8,7.62,2.75,10.7-0.09
		c5.33-4.9,10.63-9.82,15.95-14.73c5.91-5.46,11.82-10.92,17.73-16.37C122.15,49.21,125.09,46.48,128.08,43.72z M129.04,104.85
		c-11.47-8.6-22.9-17.17-34.34-25.75c-2.29,2.11-4.59,4.24-6.89,6.37c-3.99,3.69-10.02,4.08-14.35,0.79
		c-1.7-1.29-3.2-2.83-4.79-4.26c-1.01-0.91-2-1.84-3.03-2.78c-11.31,8.87-22.6,17.73-33.89,26.59c0.08,0.08,0.11,0.12,0.14,0.15
		c0.08,0.07,0.17,0.14,0.26,0.21c1.77,1.38,3.82,1.93,6.03,1.93c5.89,0.01,11.79,0.01,17.68,0.01c9.5,0,19.01,0,28.51,0
		c9.5,0,19.01,0.01,28.51,0c3.23,0,6.47,0.05,9.69-0.08C125.14,107.94,127.3,106.83,129.04,104.85z M30,46.3
		c-0.43,0.83-0.67,1.65-0.7,2.5c-0.06,1.72-0.09,3.45-0.09,5.18c-0.01,14.91,0,29.81,0,44.72c0,0.76-0.01,1.53,0.1,2.28
		c0.12,0.82,0.37,1.62,0.58,2.53c11.16-8.9,22.2-17.7,33.26-26.51C52.08,66.74,41.06,56.54,30,46.3z M97.12,76.79
		c11.16,8.47,22.26,16.9,33.42,25.37c0.05-0.19,0.09-0.33,0.12-0.46c0.35-1.61,0.26-3.24,0.26-4.87c0-8.06,0-16.12,0-24.18
		c0-7.16,0.01-14.32-0.01-21.48c0-0.84-0.05-1.68-0.2-2.5c-0.14-0.79-0.45-1.55-0.71-2.42C118.96,56.49,108.06,66.62,97.12,76.79z"
		/>
</g>
</svg>
