<?xml version="1.0" encoding="utf-8"?>
<!-- Generator: Adobe Illustrator 24.0.2, SVG Export Plug-In . SVG Version: 6.00 Build 0)  -->
<svg version="1.1" id="Capa_1" xmlns="http://www.w3.org/2000/svg" xmlns:xlink="http://www.w3.org/1999/xlink" x="0px" y="0px"
	 viewBox="0 0 216 216" style="enable-background:new 0 0 216 216;" xml:space="preserve">
<style type="text/css">
	.st0{fill:url(#SVGID_1_);}
	.st1{opacity:0.69;fill:none;stroke:#4D4D4D;stroke-width:3;stroke-miterlimit:10;}
	.st2{opacity:0.69;fill:none;stroke:#4D4D4D;stroke-width:3;stroke-linecap:round;stroke-linejoin:round;stroke-miterlimit:10;}
	.st3{opacity:0.6;fill:none;stroke:#4D4D4D;stroke-width:3;stroke-linecap:round;stroke-linejoin:round;stroke-miterlimit:10;}
	.st4{fill:none;}
	.st5{fill:url(#SVGID_2_);}
	.st6{opacity:0.05;}
	.st7{clip-path:url(#SVGID_4_);}
	.st8{fill:#5F27A4;}
	.st9{fill:url(#SVGID_5_);}
	.st10{clip-path:url(#SVGID_7_);}
	.st11{fill:url(#SVGID_8_);}
	.st12{fill:#3C3C3B;}
	.st13{fill:url(#SVGID_9_);}
	.st14{fill:url(#SVGID_10_);}
	.st15{fill:url(#SVGID_11_);}
	.st16{fill:url(#SVGID_12_);}
	.st17{fill:url(#SVGID_13_);}
	.st18{fill:url(#SVGID_14_);}
	.st19{fill:url(#SVGID_15_);}
	.st20{fill:url(#SVGID_16_);}
	.st21{fill:url(#SVGID_17_);}
	.st22{fill:url(#SVGID_18_);}
	.st23{fill:url(#SVGID_19_);}
	.st24{fill:url(#SVGID_20_);}
	.st25{fill:url(#SVGID_21_);}
	.st26{fill:url(#SVGID_22_);}
	.st27{fill:url(#SVGID_23_);}
	.st28{fill:url(#SVGID_24_);}
	.st29{fill:url(#SVGID_25_);}
	.st30{fill:url(#SVGID_26_);}
	.st31{fill:url(#SVGID_27_);}
	.st32{fill:url(#SVGID_28_);}
	.st33{fill:url(#SVGID_29_);}
	.st34{fill:url(#SVGID_30_);}
	.st35{fill:url(#SVGID_31_);}
	.st36{fill:url(#SVGID_32_);}
	.st37{fill:url(#SVGID_33_);}
	.st38{fill:url(#SVGID_34_);}
	.st39{fill:url(#SVGID_35_);}
	.st40{fill:url(#SVGID_36_);}
	.st41{fill:url(#SVGID_37_);}
	.st42{fill:url(#SVGID_38_);}
	.st43{fill:url(#SVGID_39_);}
	.st44{fill:url(#SVGID_40_);}
	.st45{fill:url(#SVGID_41_);}
	.st46{fill:url(#SVGID_42_);}
	.st47{fill:url(#SVGID_43_);}
	.st48{fill:url(#SVGID_44_);}
	.st49{fill:url(#SVGID_45_);}
	.st50{fill:url(#SVGID_46_);}
	.st51{fill:url(#SVGID_47_);}
	.st52{fill:url(#SVGID_48_);}
	.st53{fill:url(#SVGID_49_);}
	.st54{fill:url(#SVGID_50_);}
	.st55{fill:url(#SVGID_51_);}
	.st56{fill:url(#SVGID_52_);}
	.st57{fill:url(#SVGID_53_);}
	.st58{fill:url(#SVGID_54_);}
	.st59{fill:url(#SVGID_55_);}
	.st60{fill:url(#SVGID_56_);}
	.st61{fill:url(#SVGID_57_);}
	.st62{fill:url(#SVGID_58_);}
	.st63{fill:url(#SVGID_59_);}
	.st64{fill:url(#SVGID_60_);}
	.st65{fill:url(#SVGID_61_);}
	.st66{fill:url(#SVGID_62_);}
	.st67{fill:#B3B3B3;}
	.st68{fill:#FFFFFF;}
	.st69{fill:#471D7B;}
	.st70{fill:#E8E6EC;stroke:#999999;stroke-miterlimit:10;}
	.st71{fill:url(#SVGID_63_);}
	.st72{fill:#4D4D4D;}
	.st73{fill:#E6E6E6;}
	.st74{fill:#FFD800;}
	.st75{fill:#C2820F;}
</style>
<g class="st6">
	<defs>
		<path id="SVGID_6_" class="st6" d="M1390.57,991.99H807.85c-26.31,0-47.64-21.33-47.64-47.64V-439.36
			c0-26.31,21.33-47.64,47.64-47.64h582.71c26.31,0,47.64,21.33,47.64,47.64V944.35C1438.21,970.66,1416.88,991.99,1390.57,991.99z"
			/>
	</defs>
	<clipPath id="SVGID_1_">
		<use xlink:href="#SVGID_6_"  style="overflow:visible;"/>
	</clipPath>
</g>
<g>
	<path class="st8" d="M159.3,53.63c2.7,0,6.04-0.15,9.35,0.03c11.94,0.62,22.11,9.18,24.66,20.75c0.42,1.93,0.5,3.97,0.5,5.96
		c0.02,10.96-0.04,21.93-0.04,32.89c0,11.11,0.05,22.22,0.05,33.34c0,9.63,0.11,19.26-0.09,28.89
		c-0.25,11.92-9.83,21.06-20.18,23.56c-2.63,0.64-5.41,0.89-8.12,0.9c-27.21,0.06-54.42,0.06-81.63,0.03
		c-12.14-0.01-23.35-8.46-26.07-19.65c-0.55-2.28-0.68-4.66-1.04-7.3c-1.32,0-2.84-0.06-4.36,0.01c-7,0.33-13.58-0.96-19.41-5.02
		c-7.43-5.18-11.35-12.25-11.33-21.4c0.02-11.56-0.02-23.11-0.01-34.67c0.01-11.04,0.07-22.07,0.07-33.11
		c0-7.93-0.16-15.85-0.04-23.78c0.05-3.22,0.16-6.59,1.08-9.64c3.21-10.62,10.87-16.55,21.54-18.32c4.99-0.83,10.18-0.53,15.28-0.54
		c24.17-0.04,48.34-0.23,72.51,0.08c10.71,0.14,19.07,5.29,23.94,14.98C157.7,45.09,158.12,49.2,159.3,53.63z M184.69,126.72
		c0-15.71-0.01-31.41,0-47.12c0-8.95-6.73-16.66-15.69-17.43c-5.37-0.46-10.8-0.34-16.2-0.36c-11.12-0.04-22.23,0-33.35,0
		c-11.19,0-22.38-0.03-33.57,0.01c-4.83,0.02-9.39,1.03-13.3,4.13c-4.96,3.93-6.64,9.2-6.58,15.3c0.08,8.15,0.09,16.3,0.09,24.44
		c0.01,11.26-0.03,22.52-0.03,33.77c-0.01,11.11,0.17,22.22-0.05,33.33c-0.21,10.22,7.29,18.57,17.49,18.75
		c7.48,0.13,14.97,0.05,22.46,0.05c20.31-0.01,40.62,0.01,60.93-0.05c9.2-0.03,18.01-7.26,17.85-18.14
		C184.53,157.84,184.69,142.28,184.69,126.72z"/>
	<path class="st8" d="M125.35,102.12c11.86,0,23.72-0.02,35.58,0.02c2.6,0.01,4.21,1.47,4.18,3.55c-0.03,2.2-1.73,3.61-4.43,3.61
		c-23.5,0-47,0-70.5,0.01c-1.82,0-3.65-0.3-4.15-2.2c-0.31-1.17-0.06-2.91,0.67-3.8c0.67-0.83,2.31-1.19,3.53-1.2
		c11.71-0.08,23.42-0.05,35.13-0.05C125.35,102.07,125.35,102.09,125.35,102.12z"/>
	<path class="st8" d="M125.51,126.63c11.04,0,22.09-0.01,33.13,0c2.82,0,4.37,1.28,4.35,3.55c-0.02,2.29-1.56,3.56-4.37,3.56
		c-22.09,0-44.18,0-66.27,0c-2.68,0-4.29-1.43-4.23-3.7c0.06-2.22,1.52-3.4,4.26-3.41C103.42,126.63,114.47,126.64,125.51,126.63z"
		/>
	<path class="st8" d="M120.91,158.3c-10.38,0-20.75,0.01-31.13-0.01c-2.52,0-4.2-1.45-4.24-3.56c-0.04-2.13,1.62-3.63,4.16-3.63
		c20.83-0.01,41.66-0.02,62.49-0.01c2.53,0,4.06,1.45,4.04,3.7c-0.02,2.15-1.45,3.43-3.98,3.43c-10.45,0.02-20.9,0.01-31.35,0.01
		C120.91,158.25,120.91,158.28,120.91,158.3z"/>
</g>
</svg>
