<?xml version="1.0" encoding="utf-8"?>
<!-- Generator: Adobe Illustrator 24.0.2, SVG Export Plug-In . SVG Version: 6.00 Build 0)  -->
<svg version="1.1" id="Capa_1" xmlns="http://www.w3.org/2000/svg" xmlns:xlink="http://www.w3.org/1999/xlink" x="0px" y="0px"
	 viewBox="0 0 216 216" style="enable-background:new 0 0 216 216;" xml:space="preserve">
<style type="text/css">
	.st0{fill:url(#SVGID_1_);}
	.st1{opacity:0.69;fill:none;stroke:#4D4D4D;stroke-width:3;stroke-miterlimit:10;}
	.st2{opacity:0.69;fill:none;stroke:#4D4D4D;stroke-width:3;stroke-linecap:round;stroke-linejoin:round;stroke-miterlimit:10;}
	.st3{opacity:0.6;fill:none;stroke:#4D4D4D;stroke-width:3;stroke-linecap:round;stroke-linejoin:round;stroke-miterlimit:10;}
	.st4{fill:none;}
	.st5{fill:url(#SVGID_2_);}
	.st6{opacity:0.05;}
	.st7{clip-path:url(#SVGID_4_);}
	.st8{fill:#5F27A4;}
	.st9{fill:url(#SVGID_5_);}
	.st10{clip-path:url(#SVGID_7_);}
	.st11{fill:url(#SVGID_8_);}
	.st12{fill:#3C3C3B;}
	.st13{fill:url(#SVGID_9_);}
	.st14{fill:url(#SVGID_10_);}
	.st15{fill:url(#SVGID_11_);}
	.st16{fill:url(#SVGID_12_);}
	.st17{fill:url(#SVGID_13_);}
	.st18{fill:url(#SVGID_14_);}
	.st19{fill:url(#SVGID_15_);}
	.st20{fill:url(#SVGID_16_);}
	.st21{fill:url(#SVGID_17_);}
	.st22{fill:url(#SVGID_18_);}
	.st23{fill:url(#SVGID_19_);}
	.st24{fill:url(#SVGID_20_);}
	.st25{fill:url(#SVGID_21_);}
	.st26{fill:url(#SVGID_22_);}
	.st27{fill:url(#SVGID_23_);}
	.st28{fill:url(#SVGID_24_);}
	.st29{fill:url(#SVGID_25_);}
	.st30{fill:url(#SVGID_26_);}
	.st31{fill:url(#SVGID_27_);}
	.st32{fill:url(#SVGID_28_);}
	.st33{fill:url(#SVGID_29_);}
	.st34{fill:url(#SVGID_30_);}
	.st35{fill:url(#SVGID_31_);}
	.st36{fill:url(#SVGID_32_);}
	.st37{fill:url(#SVGID_33_);}
	.st38{fill:url(#SVGID_34_);}
	.st39{fill:url(#SVGID_35_);}
	.st40{fill:url(#SVGID_36_);}
	.st41{fill:url(#SVGID_37_);}
	.st42{fill:url(#SVGID_38_);}
	.st43{fill:url(#SVGID_39_);}
	.st44{fill:url(#SVGID_40_);}
	.st45{fill:url(#SVGID_41_);}
	.st46{fill:url(#SVGID_42_);}
	.st47{fill:url(#SVGID_43_);}
	.st48{fill:url(#SVGID_44_);}
	.st49{fill:url(#SVGID_45_);}
	.st50{fill:url(#SVGID_46_);}
	.st51{fill:url(#SVGID_47_);}
	.st52{fill:url(#SVGID_48_);}
	.st53{fill:url(#SVGID_49_);}
	.st54{fill:url(#SVGID_50_);}
	.st55{fill:url(#SVGID_51_);}
	.st56{fill:url(#SVGID_52_);}
	.st57{fill:url(#SVGID_53_);}
	.st58{fill:url(#SVGID_54_);}
	.st59{fill:url(#SVGID_55_);}
	.st60{fill:url(#SVGID_56_);}
	.st61{fill:url(#SVGID_57_);}
	.st62{fill:url(#SVGID_58_);}
	.st63{fill:url(#SVGID_59_);}
	.st64{fill:url(#SVGID_60_);}
	.st65{fill:url(#SVGID_61_);}
	.st66{fill:url(#SVGID_62_);}
	.st67{fill:#B3B3B3;}
	.st68{fill:#FFFFFF;}
	.st69{fill:#471D7B;}
	.st70{fill:#E8E6EC;stroke:#999999;stroke-miterlimit:10;}
	.st71{fill:url(#SVGID_63_);}
	.st72{fill:#4D4D4D;}
	.st73{fill:#E6E6E6;}
	.st74{fill:#FFD800;}
	.st75{fill:#C2820F;}
</style>
<g>
	<path class="st8" d="M17.22,61.93c0-13.12,8.55-13.66,20.31-13.66c46.97,0,93.93,0,140.9,0c13.34,0,19.57,6.28,19.57,19.72
		c0,29.57,0,59.14,0,88.72c0,12.88-6.38,19.31-19.17,19.31c-47.1,0.01-94.2,0-141.3,0c-8.4,0-12.9-1.42-16.4-6.19
		c-2.63-3.58-3.91-7.97-3.91-12.42V61.93z M107.39,165.44c24.09,0,48.18,0.01,72.27,0c6.3,0,7.82-1.52,7.82-7.8
		c0.01-30.24,0.01-60.49,0-90.73c0-6.57-1.47-8.04-7.98-8.04c-47.91-0.01-95.82-0.01-143.73,0c-6.56,0-8.02,1.47-8.03,8
		c-0.01,30.11-0.01,60.22,0,90.33c0,6.83,1.4,8.24,8.19,8.25C59.74,165.44,83.56,165.44,107.39,165.44z"/>
	<path class="st8" d="M165.98,99.25c0,5.21,0.07,10.43-0.02,15.64c-0.07,3.95-1.7,5.63-5.63,5.67c-8.95,0.08-17.91,0.05-26.86,0.02
		c-3.53-0.01-5.5-1.77-5.51-5.41c-0.01-10.56,0-21.12,0-31.68c0-3.51,2.01-5.25,5.23-5.3c9.22-0.13,18.44-0.14,27.66,0.01
		c3.25,0.05,5.14,1.96,5.13,5.41C165.96,88.83,165.98,94.04,165.98,99.25z M155.13,109.93c0-7.32,0-14.18,0-20.95
		c-5.72,0-11.09,0-16.36,0c0,7.22,0,14.08,0,20.95C144.4,109.93,149.69,109.93,155.13,109.93z"/>
	<path class="st8" d="M107.62,143.95c-17.25,0-34.51-0.02-51.76,0.02c-2.88,0.01-5.42-0.4-6.41-3.55c-1.09-3.46,0.92-6.46,4.58-6.95
		c0.79-0.1,1.6-0.05,2.4-0.05c34.11,0,68.21,0,102.32-0.01c3.24,0,6.33,0.21,7.12,4.2c0.77,3.88-1.55,6.32-6.08,6.33
		C142.4,143.97,125.01,143.95,107.62,143.95z"/>
	<path class="st8" d="M78.51,80.34c7.63,0,15.26-0.04,22.9,0.02c4.17,0.03,6.05,1.75,6.01,5.26c-0.04,3.52-1.9,5.22-6.12,5.23
		c-15.26,0.05-30.53,0.04-45.79,0c-4.21-0.01-6.17-1.73-6.25-5.13c-0.08-3.6,1.93-5.35,6.36-5.37
		C63.24,80.31,70.87,80.33,78.51,80.34z"/>
	<path class="st8" d="M78.54,106.9c7.36,0,14.73-0.01,22.09,0c4.9,0.01,6.83,1.55,6.78,5.33c-0.04,3.59-1.97,5.14-6.55,5.15
		c-15,0.02-29.99,0.02-44.99,0c-4.61-0.01-6.55-1.55-6.61-5.12c-0.06-3.71,1.97-5.34,6.79-5.35
		C63.54,106.88,71.04,106.9,78.54,106.9z"/>
</g>
</svg>
