<?xml version="1.0" encoding="utf-8"?>
<!-- Generator: Adobe Illustrator 24.0.2, SVG Export Plug-In . SVG Version: 6.00 Build 0)  -->
<svg version="1.1" id="Capa_1" xmlns="http://www.w3.org/2000/svg" xmlns:xlink="http://www.w3.org/1999/xlink" x="0px" y="0px"
	 viewBox="0 0 161 161" style="enable-background:new 0 0 161 161;" xml:space="preserve">
<style type="text/css">
	.st0{fill:#FFFFFF;fill-opacity:"0";}
	.st1{fill:#5F27A4;}
	.st2{fill:none;stroke:#FFFFFF;stroke-width:2;stroke-miterlimit:10;}
	.st3{opacity:0.69;fill:none;stroke:#4D4D4D;stroke-width:3;stroke-miterlimit:10;}
	.st4{opacity:0.69;fill:none;stroke:#4D4D4D;stroke-width:3;stroke-linecap:round;stroke-linejoin:round;stroke-miterlimit:10;}
	.st5{opacity:0.69;fill:none;stroke:#FFFFFF;stroke-width:3;stroke-linecap:round;stroke-linejoin:round;stroke-miterlimit:10;}
	.st6{opacity:0.6;fill:none;stroke:#4D4D4D;stroke-width:3;stroke-linecap:round;stroke-linejoin:round;stroke-miterlimit:10;}
	.st7{fill:none;}
	.st8{opacity:0.6;}
	.st9{clip-path:url(#SVGID_2_);}
	.st10{fill:none;stroke:#000000;stroke-width:2;stroke-miterlimit:10;}
	.st11{opacity:0.39;}
	.st12{clip-path:url(#SVGID_4_);fill:none;stroke:#FFFFFF;stroke-miterlimit:10;}
	.st13{fill:#787878;}
	.st14{fill:#4C4C4C;}
	.st15{fill:#BEBEBE;}
	.st16{fill:#B1B1B1;}
	.st17{opacity:0.2;}
	.st18{fill:#939393;}
	.st19{fill:#E1E1E1;}
	.st20{opacity:0.1;}
	.st21{opacity:0.2;fill:#4C4C4C;}
	.st22{fill:#B9B9B9;}
	.st23{fill:#FFFFFF;stroke:#FFFFFF;stroke-width:0.75;stroke-miterlimit:10;}
	.st24{fill:#D5D5D5;}
	.st25{clip-path:url(#SVGID_6_);}
	.st26{fill:#292929;}
	.st27{fill:#F0F0F0;}
	.st28{fill:#555555;}
	.st29{fill:#ADADAD;}
	.st30{opacity:0.5;}
	.st31{fill:none;stroke:#292929;stroke-miterlimit:10;}
	.st32{fill:#FFFFFF;stroke:#CCCCCC;stroke-width:3;stroke-miterlimit:10;}
	.st33{fill:url(#SVGID_7_);}
	.st34{fill:#DFDFDF;}
	.st35{fill:#C5C5C5;}
	.st36{fill:#A8A8A8;}
	.st37{fill:#898989;}
	.st38{fill:#141414;}
	.st39{fill:#888888;}
	.st40{fill:#656565;}
	.st41{fill:#616161;}
	.st42{fill:#A5A5A5;}
	.st43{fill:#4F4F4F;}
	.st44{fill:#2D2D2D;}
	.st45{fill:#C7C7C7;}
	.st46{fill:#999999;}
	.st47{fill:#838383;}
	.st48{fill:#262626;}
	.st49{fill:#9A9A9A;}
	.st50{fill:#C9C9C9;}
	.st51{fill:#39B54A;}
	.st52{fill:url(#SVGID_8_);}
	.st53{fill:#ED1C24;}
	.st54{fill:#009245;}
	.st55{fill:#C1272D;}
	.st56{fill:#F2F2F2;}
	.st57{fill:none;stroke:#009245;stroke-width:2;stroke-miterlimit:10;}
	.st58{fill:none;stroke:#C1272D;stroke-width:2;stroke-miterlimit:10;}
	.st59{fill:#0071BC;}
	.st60{fill:none;stroke:#FFFFFF;stroke-miterlimit:10;}
	.st61{fill:#EB5B27;}
</style>
<rect class="st0" width="161" height="161"/>
<g>
	<path class="st1" d="M85.23,127.68c0.38,0.04,0.64,0.1,0.9,0.1c1.92,0.01,3.83,0.01,5.75,0.02c1.4,0.01,2.42,0.89,2.47,2.11
		c0.05,1.37-0.93,2.38-2.41,2.38c-7.6,0.01-15.19,0.01-22.79,0c-1.41,0-2.37-0.89-2.41-2.16c-0.04-1.32,0.89-2.28,2.35-2.32
		c1.84-0.05,3.69-0.02,5.54-0.02c0.34,0,0.68-0.03,1.23-0.06c-0.92-1.25-1.72-2.35-2.53-3.45c-7.34-9.98-14.36-20.18-20.63-30.87
		c-4-6.83-7.76-13.78-10.57-21.21c-1.76-4.67-3.19-9.42-3.09-14.48c0.13-6.68,1.68-13.02,4.95-18.85c1.42-2.53,3.06-5.01,4.96-7.2
		c9.11-10.52,20.74-15.65,34.58-14.51c16.95,1.4,28.86,10.36,35.56,26c2.5,5.82,3.45,12,2.74,18.33c-0.53,4.73-2.14,9.17-3.99,13.53
		C114.55,82.74,87.07,125.19,85.23,127.68z M80.51,126.3c0.36-0.44,0.63-0.76,0.88-1.09c7.01-9.34,13.71-18.89,19.87-28.82
		c5.07-8.18,9.85-16.51,13.34-25.51c1.45-3.75,2.78-7.56,2.87-11.62c0.2-8.72-2.3-16.67-7.8-23.44
		c-9.46-11.65-21.78-16.28-36.52-13.5c-10.91,2.06-19.24,8.24-24.72,17.9c-5.05,8.89-6.45,18.29-2.9,28.17
		c2.77,7.71,6.53,14.94,10.64,22c6.06,10.4,12.85,20.32,19.94,30.05C77.54,122.36,78.99,124.27,80.51,126.3z"/>
	<path class="st1" d="M78.32,146.15c-7.45-0.17-15.76-1.21-23.68-4.43c-2.98-1.21-5.78-2.74-8.04-5.08
		c-4.05-4.21-3.95-9.42,0.28-13.46c3.49-3.32,7.83-5.06,12.36-6.39c1.2-0.35,2.34,0.4,2.67,1.54c0.36,1.24-0.26,2.33-1.57,2.85
		c-2.37,0.94-4.82,1.75-7.04,2.96c-1.58,0.86-3,2.15-4.21,3.5c-1.38,1.55-1.24,3.29,0.04,4.96c1.91,2.48,4.6,3.85,7.41,5
		c5.68,2.33,11.65,3.38,17.72,3.82c8.41,0.61,16.74,0.12,24.93-2.04c4-1.05,7.86-2.46,11.12-5.11c3.43-2.8,3.41-5.62-0.02-8.44
		c-2.57-2.11-5.59-3.33-8.7-4.38c-0.27-0.09-0.54-0.16-0.81-0.25c-1.34-0.46-2.01-1.67-1.62-2.91c0.38-1.2,1.61-1.9,2.91-1.41
		c2.71,1.03,5.42,2.1,8.03,3.36c2.21,1.07,4.15,2.63,5.55,4.7c2.64,3.92,2.29,7.99-0.94,11.45c-2.43,2.6-5.49,4.25-8.75,5.52
		C97.41,145.25,88.45,146.22,78.32,146.15z"/>
	<polygon class="st1" points="99.2,45.93 99.17,45.88 99.12,45.9 	"/>
	<g>
		<path class="st1" d="M80.43,39.02c-12.76,0-23.1,10.34-23.1,23.1s10.34,23.1,23.1,23.1s23.1-10.34,23.1-23.1
			S93.19,39.02,80.43,39.02z M80.43,80.78c-10.31,0-18.66-8.35-18.66-18.66c0-10.31,8.35-18.66,18.66-18.66s18.66,8.35,18.66,18.66
			C99.09,72.43,90.74,80.78,80.43,80.78z"/>
	</g>
</g>
</svg>
