<?xml version="1.0" encoding="utf-8"?>
<!-- Generator: Adobe Illustrator 24.0.2, SVG Export Plug-In . SVG Version: 6.00 Build 0)  -->
<svg version="1.1" id="Capa_1" xmlns="http://www.w3.org/2000/svg" xmlns:xlink="http://www.w3.org/1999/xlink" x="0px" y="0px"
	 viewBox="0 0 216 216" style="enable-background:new 0 0 216 216;" xml:space="preserve">
<style type="text/css">
	.st0{fill:url(#SVGID_1_);}
	.st1{opacity:0.69;fill:none;stroke:#4D4D4D;stroke-width:3;stroke-miterlimit:10;}
	.st2{opacity:0.69;fill:none;stroke:#4D4D4D;stroke-width:3;stroke-linecap:round;stroke-linejoin:round;stroke-miterlimit:10;}
	.st3{opacity:0.6;fill:none;stroke:#4D4D4D;stroke-width:3;stroke-linecap:round;stroke-linejoin:round;stroke-miterlimit:10;}
	.st4{fill:none;}
	.st5{fill:url(#SVGID_2_);}
	.st6{opacity:0.05;}
	.st7{clip-path:url(#SVGID_4_);}
	.st8{fill:#5F27A4;}
	.st9{fill:url(#SVGID_5_);}
	.st10{clip-path:url(#SVGID_7_);}
	.st11{fill:url(#SVGID_8_);}
	.st12{fill:#3C3C3B;}
	.st13{fill:url(#SVGID_9_);}
	.st14{fill:url(#SVGID_10_);}
	.st15{fill:url(#SVGID_11_);}
	.st16{fill:url(#SVGID_12_);}
	.st17{fill:url(#SVGID_13_);}
	.st18{fill:url(#SVGID_14_);}
	.st19{fill:url(#SVGID_15_);}
	.st20{fill:url(#SVGID_16_);}
	.st21{fill:url(#SVGID_17_);}
	.st22{fill:url(#SVGID_18_);}
	.st23{fill:url(#SVGID_19_);}
	.st24{fill:url(#SVGID_20_);}
	.st25{fill:url(#SVGID_21_);}
	.st26{fill:url(#SVGID_22_);}
	.st27{fill:url(#SVGID_23_);}
	.st28{fill:url(#SVGID_24_);}
	.st29{fill:url(#SVGID_25_);}
	.st30{fill:url(#SVGID_26_);}
	.st31{fill:url(#SVGID_27_);}
	.st32{fill:url(#SVGID_28_);}
	.st33{fill:url(#SVGID_29_);}
	.st34{fill:url(#SVGID_30_);}
	.st35{fill:url(#SVGID_31_);}
	.st36{fill:url(#SVGID_32_);}
	.st37{fill:url(#SVGID_33_);}
	.st38{fill:url(#SVGID_34_);}
	.st39{fill:url(#SVGID_35_);}
	.st40{fill:url(#SVGID_36_);}
	.st41{fill:url(#SVGID_37_);}
	.st42{fill:url(#SVGID_38_);}
	.st43{fill:url(#SVGID_39_);}
	.st44{fill:url(#SVGID_40_);}
	.st45{fill:url(#SVGID_41_);}
	.st46{fill:url(#SVGID_42_);}
	.st47{fill:url(#SVGID_43_);}
	.st48{fill:url(#SVGID_44_);}
	.st49{fill:url(#SVGID_45_);}
	.st50{fill:url(#SVGID_46_);}
	.st51{fill:url(#SVGID_47_);}
	.st52{fill:url(#SVGID_48_);}
	.st53{fill:url(#SVGID_49_);}
	.st54{fill:url(#SVGID_50_);}
	.st55{fill:url(#SVGID_51_);}
	.st56{fill:url(#SVGID_52_);}
	.st57{fill:url(#SVGID_53_);}
	.st58{fill:url(#SVGID_54_);}
	.st59{fill:url(#SVGID_55_);}
	.st60{fill:url(#SVGID_56_);}
	.st61{fill:url(#SVGID_57_);}
	.st62{fill:url(#SVGID_58_);}
	.st63{fill:url(#SVGID_59_);}
	.st64{fill:url(#SVGID_60_);}
	.st65{fill:url(#SVGID_61_);}
	.st66{fill:url(#SVGID_62_);}
	.st67{fill:#B3B3B3;}
	.st68{fill:#FFFFFF;}
	.st69{fill:#471D7B;}
	.st70{fill:#E8E6EC;stroke:#999999;stroke-miterlimit:10;}
	.st71{fill:url(#SVGID_63_);}
	.st72{fill:#4D4D4D;}
	.st73{fill:#E6E6E6;}
	.st74{fill:#FFD800;}
	.st75{fill:#C2820F;}
</style>
<g>
	<g>
		<g>
			<path class="st8" d="M176.64,160.69l-13.98,0.02l-0.08-49.21c0.77,0.17,1.55,0.26,2.33,0.26c6.43-0.02,11.64-5.24,11.63-11.67
				c0-0.17-0.02-0.34-0.06-0.51l-4.7-20.97c-0.24-1.07-1.19-1.82-2.28-1.82l-6.99,0.01l-0.01-6.99c0-1.29-1.05-2.33-2.33-2.33
				l-18.64,0.03l-0.01-4.66l4.66-0.01c1.29,0,2.33-1.05,2.33-2.33l-0.04-23.31c0-1.29-1.05-2.33-2.33-2.33l-74.58,0.12
				c-1.29,0-2.33,1.05-2.33,2.33l0.04,23.31c0,1.29,1.05,2.33,2.33,2.33l4.66-0.01l0.01,4.66l-18.64,0.03
				c-1.29,0-2.33,1.05-2.33,2.33l0.01,6.99L48.33,77c-1.09,0-2.04,0.76-2.27,1.83l-4.63,20.98c-0.04,0.17-0.06,0.34-0.06,0.51
				c0.02,6.43,5.24,11.64,11.67,11.63c0.78-0.01,1.56-0.1,2.33-0.27l0.08,49.21l-13.98,0.02c-1.29,0-2.33,1.05-2.33,2.33l0.02,9.32
				c0,1.29,1.05,2.33,2.33,2.33l135.17-0.22c1.29,0,2.33-1.05,2.33-2.33l-0.02-9.32C178.97,161.73,177.93,160.69,176.64,160.69z
				 M167.66,81.47l4.23,18.87c-0.12,3.77-3.21,6.77-6.98,6.77c-1.23,0-2.44-0.32-3.5-0.94c-1.63-0.95-2.82-2.51-3.28-4.34
				c-0.15-0.55-0.23-1.12-0.22-1.7c0-0.09,0-0.17-0.01-0.26l-2.07-18.38L167.66,81.47z M146.28,123.45l-23.31,0.04
				c-1.29,0-2.33,1.05-2.33,2.33l0.06,34.96l-60.59,0.1l-0.08-51.36c0.88-0.65,1.66-1.43,2.33-2.3c3.81,5.14,11.07,6.22,16.21,2.41
				c0.93-0.69,1.75-1.51,2.44-2.44c3.81,5.14,11.07,6.22,16.21,2.41c0.93-0.69,1.75-1.51,2.44-2.44c3.81,5.14,11.07,6.22,16.21,2.41
				c0.93-0.69,1.75-1.51,2.44-2.44c3.81,5.14,11.07,6.22,16.21,2.41c0.93-0.69,1.75-1.51,2.44-2.44c3.81,5.14,11.07,6.22,16.21,2.41
				c0.93-0.69,1.75-1.51,2.43-2.44c0.67,0.87,1.45,1.64,2.33,2.28l0.08,51.36l-9.32,0.02l-0.06-34.96
				C148.62,124.49,147.57,123.45,146.28,123.45z M143.96,128.12l0.05,32.63l-18.64,0.03l-0.05-32.63L143.96,128.12z M64.68,100.4
				l2.07-18.77l13.96-0.02L78.69,100c-0.01,0.09-0.02,0.17-0.03,0.26c0.01,0.59-0.07,1.18-0.23,1.76c-0.98,3.74-4.8,5.97-8.53,4.99
				c-2.46-0.64-4.37-2.57-5-5.03C64.75,101.47,64.68,100.94,64.68,100.4z M83.32,100.37l2.07-18.77l11.89-0.02l0.03,18.64
				c0.01,0.59-0.07,1.18-0.23,1.76c-0.98,3.74-4.8,5.97-8.53,4.99c-2.46-0.64-4.37-2.57-5-5.03
				C83.4,101.44,83.32,100.91,83.32,100.37z M101.97,100.22l-0.03-18.64l13.98-0.02l0.03,18.64c0.01,0.59-0.07,1.18-0.23,1.76
				c-0.98,3.74-4.8,5.97-8.53,4.99c-2.46-0.64-4.37-2.57-5-5.03C102.03,101.37,101.96,100.8,101.97,100.22z M120.61,100.19
				l-0.03-18.64l11.89-0.02l2.13,18.76c-0.01,0.55-0.08,1.1-0.23,1.63c-0.98,3.74-4.8,5.97-8.53,4.99c-2.46-0.64-4.37-2.57-5-5.03
				C120.68,101.34,120.6,100.76,120.61,100.19z M137.17,81.52l13.96-0.02l2.13,18.76c-0.01,0.55-0.08,1.1-0.23,1.63
				c-0.98,3.74-4.8,5.97-8.53,4.99c-2.46-0.64-4.37-2.57-5-5.03c-0.16-0.55-0.23-1.12-0.23-1.7c0-0.09,0-0.17-0.01-0.26
				L137.17,81.52z M73.93,58.32L73.9,39.67l69.92-0.11l0.03,18.64L73.93,58.32z M136.86,62.88l0.01,4.66l-55.93,0.09l-0.01-4.66
				L136.86,62.88z M59.97,72.32l97.88-0.16l0.01,4.66l-97.88,0.16L59.97,72.32z M53.04,107.29c-3.77,0.01-6.87-2.98-7-6.75
				l4.16-18.88l11.84-0.02l-2.01,18.39c-0.01,0.09-0.01,0.17-0.01,0.26c0.01,0.59-0.07,1.18-0.23,1.75
				c-0.47,1.81-1.64,3.36-3.26,4.3C55.47,106.96,54.26,107.29,53.04,107.29z M174.33,170.02l-130.51,0.21l-0.01-4.66l130.51-0.21
				L174.33,170.02z"/>
		</g>
	</g>
	<g>
		<g>
			<path class="st8" d="M109.43,124.67l-37.29,0.06c-1.29,0-2.33,1.05-2.33,2.33l0.04,23.31c0,1.29,1.05,2.33,2.33,2.33l37.29-0.06
				c1.29,0,2.33-1.05,2.33-2.33L111.77,127C111.76,125.71,110.72,124.67,109.43,124.67z M107.14,147.98l-32.63,0.05l-0.03-18.64
				l32.63-0.05L107.14,147.98z"/>
		</g>
	</g>
</g>
</svg>
