<?xml version="1.0" encoding="utf-8"?>
<!-- Generator: Adobe Illustrator 24.0.2, SVG Export Plug-In . SVG Version: 6.00 Build 0)  -->
<svg version="1.1" id="Capa_1" xmlns="http://www.w3.org/2000/svg" xmlns:xlink="http://www.w3.org/1999/xlink" x="0px" y="0px"
	 viewBox="0 0 161 161" style="enable-background:new 0 0 161 161;" xml:space="preserve">
<style type="text/css">
	.st0{fill:#FFFFFF;}
	.st1{fill:#5F27A4;}
	.st2{fill:none;stroke:#FFFFFF;stroke-width:2;stroke-miterlimit:10;}
	.st3{opacity:0.69;fill:none;stroke:#4D4D4D;stroke-width:3;stroke-miterlimit:10;}
	.st4{opacity:0.69;fill:none;stroke:#4D4D4D;stroke-width:3;stroke-linecap:round;stroke-linejoin:round;stroke-miterlimit:10;}
	.st5{opacity:0.69;fill:none;stroke:#FFFFFF;stroke-width:3;stroke-linecap:round;stroke-linejoin:round;stroke-miterlimit:10;}
	.st6{opacity:0.6;fill:none;stroke:#4D4D4D;stroke-width:3;stroke-linecap:round;stroke-linejoin:round;stroke-miterlimit:10;}
	.st7{fill:none;}
	.st8{opacity:0.6;}
	.st9{clip-path:url(#SVGID_2_);}
	.st10{fill:none;stroke:#000000;stroke-width:2;stroke-miterlimit:10;}
	.st11{opacity:0.39;}
	.st12{clip-path:url(#SVGID_4_);fill:none;stroke:#FFFFFF;stroke-miterlimit:10;}
	.st13{fill:#787878;}
	.st14{fill:#4C4C4C;}
	.st15{fill:#BEBEBE;}
	.st16{fill:#B1B1B1;}
	.st17{opacity:0.2;}
	.st18{fill:#939393;}
	.st19{fill:#E1E1E1;}
	.st20{opacity:0.1;}
	.st21{opacity:0.2;fill:#4C4C4C;}
	.st22{fill:#B9B9B9;}
	.st23{fill:#FFFFFF;stroke:#FFFFFF;stroke-width:0.75;stroke-miterlimit:10;}
	.st24{fill:#D5D5D5;}
	.st25{clip-path:url(#SVGID_6_);}
	.st26{fill:#292929;}
	.st27{fill:#F0F0F0;}
	.st28{fill:#555555;}
	.st29{fill:#ADADAD;}
	.st30{opacity:0.5;}
	.st31{fill:none;stroke:#292929;stroke-miterlimit:10;}
	.st32{fill:#FFFFFF;stroke:#CCCCCC;stroke-width:3;stroke-miterlimit:10;}
	.st33{fill:url(#SVGID_7_);}
	.st34{fill:#DFDFDF;}
	.st35{fill:#C5C5C5;}
	.st36{fill:#A8A8A8;}
	.st37{fill:#898989;}
	.st38{fill:#141414;}
	.st39{fill:#888888;}
	.st40{fill:#656565;}
	.st41{fill:#616161;}
	.st42{fill:#A5A5A5;}
	.st43{fill:#4F4F4F;}
	.st44{fill:#2D2D2D;}
	.st45{fill:#C7C7C7;}
	.st46{fill:#999999;}
	.st47{fill:#838383;}
	.st48{fill:#262626;}
	.st49{fill:#9A9A9A;}
	.st50{fill:#C9C9C9;}
	.st51{fill:#39B54A;}
	.st52{fill:url(#SVGID_8_);}
	.st53{fill:#ED1C24;}
	.st54{fill:#009245;}
	.st55{fill:#C1272D;}
	.st56{fill:#F2F2F2;}
	.st57{fill:none;stroke:#009245;stroke-width:2;stroke-miterlimit:10;}
	.st58{fill:none;stroke:#C1272D;stroke-width:2;stroke-miterlimit:10;}
	.st59{fill:#0071BC;}
	.st60{fill:none;stroke:#FFFFFF;stroke-miterlimit:10;}
	.st61{fill:#EB5B27;}
</style>
<rect class="st0" width="161" height="161"/>
<g>
	<path class="st1" d="M63.02,90.97c-1.01-1.13-1.92-2.15-2.9-3.24C61.61,88.05,63.07,89.66,63.02,90.97z"/>
	<path class="st1" d="M133.77,109.34c-1.99-1.1-3.95-2.25-5.85-3.49c-4.63-3.04-9.24-6.12-13.81-9.24
		c-3.29-2.25-8.48-1.94-10.99,1.75c-1.03,1.52-2.23,2.93-3.34,4.39c-0.91,1.2-1.98,2.21-3.35,2.86c-4.2,1.98-8.28,1.47-11.98-1.12
		c-3.15-2.21-6.15-4.66-9.05-7.19c-6.12-5.33-11.67-11.22-16.6-17.67c-1.21-1.57-2.44-3.18-3.3-4.95
		c-2.07-4.25-1.77-10.26,3.43-13.8c1.35-0.92,2.57-2.03,3.91-2.95c3.4-2.34,4.04-7.4,1.72-10.74c-1.35-1.94-6.34-9.16-7.35-10.79
		c-1.88-3.04-3.78-6.07-5.55-9.17c-2.09-3.64-7.06-5.48-11-3.11c-1.66,1-3.4,1.87-5.11,2.79c-6.48,3.49-10.17,8.94-11.45,16.12
		c-1.05,5.86-0.57,11.65,0.75,17.4c2.1,9.12,5.95,17.52,10.93,25.41c6.69,10.59,14.99,19.8,24.35,28.09c3.9,3.46,8,6.66,12.32,9.59
		c7.68,5.21,15.87,9.34,24.8,11.96c0.34,0.1,0.68,0.19,1.03,0.27l0,0c6.22,1.86,11.03,2,13.01,1.95c0.14,0.01,0.27,0.01,0.41,0
		c2.19-0.17,4.4-0.22,6.55-0.6c6.24-1.09,11.25-4.19,14.68-9.59c1.43-2.26,2.6-4.69,4.02-6.96
		C139.33,116.74,137.75,111.54,133.77,109.34z M133.32,118.65c-0.65,1.18-1.29,2.38-1.95,3.56c-1.29,2.3-2.65,4.55-4.58,6.38
		c-3.41,3.24-7.62,4.57-12.18,4.91c-1.85,0.14-3.71,0.02-5.5,0.02c0,0,0,0,0,0c-3.69-0.25-7.5-1.13-9.12-1.54
		c-0.18-0.05-0.36-0.09-0.54-0.14c-0.03-0.01-0.06-0.02-0.08-0.02c-8.83-2.42-16.91-6.49-24.5-11.61
		c-7.01-4.73-13.38-10.23-19.31-16.26c-7.06-7.18-13.37-14.95-18.39-23.72c-3.58-6.25-6.42-12.82-8.13-19.83
		c-1.37-5.63-1.94-11.32-0.82-17.07c0.99-5.09,3.41-9.28,7.95-12.01c2.3-1.38,4.66-2.66,7.05-3.87c0.6-0.3,1.45-0.33,2.14-0.21
		c1.31,0.21,2.17,1.09,2.87,2.22c2.99,4.81,11.92,18.52,12.86,19.82c1.13,1.57,1.11,4.2-0.84,5.49c-1.46,0.97-2.8,2.13-4.22,3.18
		c-1.71,1.27-3.15,2.78-4.09,4.69c-2.72,5.5-2.19,10.87,1.04,15.94c6.4,10.61,22.44,24.34,28.33,28.73
		c2.23,1.66,4.68,2.83,7.42,3.26c5.82,0.91,10.71-0.71,14.38-5.47c1.12-1.45,2.24-2.91,3.34-4.39c0.86-1.16,2.02-1.7,3.4-1.42
		c0.84,0.17,1.68,0.57,2.41,1.05c5.05,3.29,10.05,6.64,15.09,9.94c1.43,0.93,2.94,1.75,4.41,2.63
		C134,114.25,134.58,116.37,133.32,118.65z"/>
</g>
</svg>
