<?xml version="1.0" encoding="utf-8"?>
<!-- Generator: Adobe Illustrator 24.0.2, SVG Export Plug-In . SVG Version: 6.00 Build 0)  -->
<svg version="1.1" id="Capa_1" xmlns="http://www.w3.org/2000/svg" xmlns:xlink="http://www.w3.org/1999/xlink" x="0px" y="0px"
	 viewBox="0 0 93 93" style="enable-background:new 0 0 93 93;" xml:space="preserve">
<style type="text/css">
	.st0{fill:#22324E;}
	.st1{fill:#5F27A4;}
	.st2{fill:none;}
	.st3{fill:#F15A24;}
	.st4{fill:#EEEEEC;}
	.st5{clip-path:url(#SVGID_2_);}
	.st6{fill:#4D4D4D;}
	.st7{fill:#222221;}
	.st8{fill:#FFFFFF;}
	.st9{fill:none;stroke:#999999;stroke-miterlimit:10;}
	.st10{fill:none;stroke:#F15A24;stroke-width:8;stroke-linecap:round;stroke-linejoin:round;stroke-miterlimit:10;}
</style>
<g>
	<path class="st1" d="M46.46,74.07c-0.5-0.14-0.99-0.14-1.38-0.14h-6.29c-3.29,0-6.57,0-9.86-0.01c-4.3-0.01-7.42-3.13-7.43-7.42
		c0-7.78,0-15.55,0-23.33l0-16.97c0-1.25,0.21-2.28,0.65-3.16c1.4-2.83,3.63-4.21,6.82-4.22c3.72-0.02,7.43-0.01,11.15-0.01l5.22,0
		c0.28-0.01,0.57,0,0.85-0.03c1.53-0.16,2.67-1.39,2.69-2.94c0.02-1.35-0.68-2.36-2.1-2.99l-0.23-0.1H27.41l-0.28,0.03
		c-0.26,0.06-0.52,0.12-0.79,0.18c-0.61,0.13-1.23,0.27-1.86,0.48c-5.45,1.78-9.09,6.96-9.07,12.88c0.04,8.45,0.03,16.9,0.03,25.35
		c0,4.92,0,9.83,0,14.74c0,1.12,0.09,2.08,0.26,2.94c1.27,6.23,6.64,10.6,13.06,10.62C30.9,80,33.04,80,35.17,80
		c1.78,0,3.56,0,5.34,0l4.86,0c0.21,0,0.4,0,0.59-0.03c1.43-0.19,2.52-1.33,2.63-2.77C48.71,75.77,47.82,74.45,46.46,74.07z"/>
	<path class="st1" d="M76.74,43.94L65.49,32.69c-0.18-0.18-0.4-0.4-0.68-0.59c-1.01-0.71-2.16-0.77-3.22-0.18
		c-1.01,0.57-1.56,1.52-1.56,2.7c0.01,1.08,0.58,1.8,1.14,2.35c2.12,2.12,4.24,4.24,6.36,6.36l-34.16,0c-0.4,0-0.83,0.01-1.27,0.08
		c-1.35,0.23-2.36,1.37-2.46,2.75c-0.09,1.43,0.81,2.73,2.16,3.1c0.5,0.14,1.01,0.15,1.43,0.15c10.98,0,21.95,0,32.94,0h1.35
		l-5.39,5.38c-0.46,0.45-0.91,0.89-1.33,1.37c-0.71,0.81-0.96,1.89-0.66,2.9c0.3,1,1.09,1.77,2.12,2.05
		c0.27,0.08,0.54,0.11,0.81,0.11c0.82,0,1.6-0.37,2.33-1.09c2.41-2.41,4.82-4.83,7.23-7.24l4.1-4.1
		C78.33,47.22,78.33,45.53,76.74,43.94z"/>
</g>
</svg>
