<?xml version="1.0" encoding="utf-8"?>
<!-- Generator: Adobe Illustrator 24.0.2, SVG Export Plug-In . SVG Version: 6.00 Build 0)  -->
<svg version="1.1" id="Capa_1" xmlns="http://www.w3.org/2000/svg" xmlns:xlink="http://www.w3.org/1999/xlink" x="0px" y="0px"
	 viewBox="0 0 705.13 127.7" style="enable-background:new 0 0 705.13 127.7;" xml:space="preserve">
<style type="text/css">
	.st0{fill:#FFFFFF;}
	.st1{fill:#E84B27;}
	.st2{fill:none;stroke:#FFFFFF;stroke-width:2;stroke-miterlimit:10;}
	.st3{opacity:0.69;fill:none;stroke:#4D4D4D;stroke-width:3;stroke-miterlimit:10;}
	.st4{opacity:0.69;fill:none;stroke:#4D4D4D;stroke-width:3;stroke-linecap:round;stroke-linejoin:round;stroke-miterlimit:10;}
	.st5{opacity:0.69;fill:none;stroke:#FFFFFF;stroke-width:3;stroke-linecap:round;stroke-linejoin:round;stroke-miterlimit:10;}
	.st6{opacity:0.6;fill:none;stroke:#4D4D4D;stroke-width:3;stroke-linecap:round;stroke-linejoin:round;stroke-miterlimit:10;}
	.st7{fill:none;}
	.st8{opacity:0.6;}
	.st9{clip-path:url(#SVGID_2_);}
	.st10{fill:none;stroke:#000000;stroke-width:2;stroke-miterlimit:10;}
	.st11{opacity:0.39;}
	.st12{clip-path:url(#SVGID_4_);fill:none;stroke:#FFFFFF;stroke-miterlimit:10;}
	.st13{fill:#787878;}
	.st14{fill:#4C4C4C;}
	.st15{fill:#BEBEBE;}
	.st16{fill:#B1B1B1;}
	.st17{opacity:0.2;}
	.st18{fill:#939393;}
	.st19{fill:#E1E1E1;}
	.st20{opacity:0.1;}
	.st21{opacity:0.2;fill:#4C4C4C;}
	.st22{fill:#B9B9B9;}
	.st23{fill:#FFFFFF;stroke:#FFFFFF;stroke-width:0.75;stroke-miterlimit:10;}
	.st24{fill:#D5D5D5;}
	.st25{clip-path:url(#SVGID_6_);}
	.st26{fill:#292929;}
	.st27{fill:#F0F0F0;}
	.st28{fill:#555555;}
	.st29{fill:#ADADAD;}
	.st30{opacity:0.5;}
	.st31{fill:none;stroke:#292929;stroke-miterlimit:10;}
	.st32{fill:#FFFFFF;stroke:#CCCCCC;stroke-width:3;stroke-miterlimit:10;}
	.st33{fill:url(#SVGID_7_);}
	.st34{fill:#DFDFDF;}
	.st35{fill:#C5C5C5;}
	.st36{fill:#A8A8A8;}
	.st37{fill:#898989;}
	.st38{fill:#141414;}
	.st39{fill:#888888;}
	.st40{fill:#656565;}
	.st41{fill:#616161;}
	.st42{fill:#A5A5A5;}
	.st43{fill:#4F4F4F;}
	.st44{fill:#2D2D2D;}
	.st45{fill:#C7C7C7;}
	.st46{fill:#999999;}
	.st47{fill:#838383;}
	.st48{fill:#262626;}
	.st49{fill:#9A9A9A;}
	.st50{fill:#C9C9C9;}
	.st51{fill:#39B54A;}
	.st52{fill:url(#SVGID_8_);}
	.st53{fill:#ED1C24;}
	.st54{fill:#009245;}
	.st55{fill:#C1272D;}
	.st56{fill:#F2F2F2;}
	.st57{fill:none;stroke:#009245;stroke-width:2;stroke-miterlimit:10;}
	.st58{fill:none;stroke:#C1272D;stroke-width:2;stroke-miterlimit:10;}
	.st59{fill:#0071BC;}
	.st60{fill:none;stroke:#FFFFFF;stroke-miterlimit:10;}
	.st61{font-family:'Nunito-Regular';}
	.st62{font-size:42.1285px;}
	.st63{fill:#EB5B27;}
</style>
<g class="st11">
	<defs>
		<path id="SVGID_3_" class="st11" d="M-87.77,798.94V22.35c0-26.31-21.33-47.64-47.64-47.64h-582.71
			c-26.31,0-47.64,21.33-47.64,47.64v763.32c74.27-66,195.3-108.96,332-108.96C-288.11,676.71-160.23,725.49-87.77,798.94z"/>
	</defs>
	<clipPath id="SVGID_2_">
		<use xlink:href="#SVGID_3_"  style="overflow:visible;"/>
	</clipPath>
	<circle style="clip-path:url(#SVGID_2_);fill:none;stroke:#FFFFFF;stroke-miterlimit:10;" cx="-427.27" cy="365.21" r="505.5"/>
</g>
<g>
	<path id="XMLID_7_" class="st59" d="M686.1,127.7H19.03C8.52,127.7,0,119.18,0,108.67l0-89.64C0,8.52,8.52,0,19.03,0L686.1,0
		c10.51,0,19.03,8.52,19.03,19.03v89.64C705.13,119.18,696.61,127.7,686.1,127.7z"/>
	<path id="XMLID_6_" class="st0" d="M54.19,102.54h15.54V63.62h10.84l1.16-13.03h-12c0,0,0-4.87,0-7.42c0-3.07,0.62-4.29,3.59-4.29
		c2.39,0,8.41,0,8.41,0V25.35c0,0-8.87,0-10.76,0c-11.57,0-16.78,5.09-16.78,14.84c0,8.49,0,10.39,0,10.39H46.1v13.19h8.08V102.54z"
		/>
</g>
<line class="st60" x1="128.85" y1="9.02" x2="128.85" y2="117.15"/>
<rect x="166.22" y="47.51" class="st7" width="459.2" height="45.83"/>
<text transform="matrix(1 0 0 1 166.2224 77.418)" class="st0 st61 st62">Ingresar con Facebook</text>
</svg>
